<?xml version="1.0" encoding="utf-8"?>
<!-- Generator: Adobe Illustrator 17.0.2, SVG Export Plug-In . SVG Version: 6.00 Build 0)  -->
<!DOCTYPE svg PUBLIC "-//W3C//DTD SVG 1.1//EN" "http://www.w3.org/Graphics/SVG/1.1/DTD/svg11.dtd">
<svg version="1.1" id="Layer_1" xmlns="http://www.w3.org/2000/svg" xmlns:xlink="http://www.w3.org/1999/xlink" x="0px" y="0px"
	 width="128px" height="90.002px" viewBox="0 0 128 90.002" enable-background="new 0 0 128 90.002" xml:space="preserve">
<path fill="#FFFFFF" d="M41.806,88.648c1.744,1.805,4.646,1.805,6.451,0c1.744-1.744,1.744-4.646,0-6.386L15.548,49.554h107.936
	c2.482,0.012,4.504-1.99,4.516-4.472c0-0.016,0-0.032,0-0.048c0-2.516-2-4.581-4.516-4.581H15.548L48.257,7.805
	c1.744-1.805,1.744-4.711,0-6.451c-1.805-1.805-4.711-1.805-6.451,0L1.353,41.807c-1.763,1.705-1.81,4.518-0.105,6.281
	c0.034,0.036,0.069,0.071,0.105,0.105L41.806,88.648L41.806,88.648z"/>
</svg>
