<?xml version="1.0" encoding="UTF-8" standalone="no"?>
<svg
   xmlns:mapsvg="http://mapsvg.com"
   xmlns:dc="http://purl.org/dc/elements/1.1/"
   xmlns:cc="http://creativecommons.org/ns#"
   xmlns:rdf="http://www.w3.org/1999/02/22-rdf-syntax-ns#"
   xmlns:svg="http://www.w3.org/2000/svg"
   xmlns="http://www.w3.org/2000/svg"
   mapsvg:geoViewBox="-64.887379 32.390463 -64.647032 32.246650"
   version="1.1"
   id="svg2"
   width="792.00098"
   height="558.05798">
  <metadata
     id="metadata21">
    <rdf:RDF>
      <cc:Work
         rdf:about="">
        <dc:format>image/svg+xml</dc:format>
        <dc:type
           rdf:resource="http://purl.org/dc/dcmitype/StillImage" />
        <dc:title></dc:title>
      </cc:Work>
    </rdf:RDF>
  </metadata>
  <defs
     id="defs19" />
  <path
     id="BM-SA"
     title="Sandys"
     d="m 20.82,434.875 -1.294,1.938 -1.529,-0.416 0.353,-3.461 0.118,-2.492 2,-2.077 1.529,-2.354 0.235,1.385 0.706,2.216 -1.647,0.415 -1.294,2.354 0.823,2.492 z m -0.823,9.277 1.882,1.385 1.412,-0.692 0.235,-2.492 -1.059,-1.523 0.471,-1.384 0.235,-1.801 0.353,-3.046 2.235,-0.831 2,-1.107 2,-0.692 2.588,1.246 2.47,2.077 2.588,1.523 1.647,1.661 1.176,0.97 2.94,1.107 1.412,2.077 0.353,2.769 0.941,1.772 1.647,0.415 3.176,0.416 1.882,0.692 1.412,2.076 2.587,1.801 3.882,-0.692 3.294,-1.246 2.706,0.692 2.587,1.522 4.117,0.97 3.293,2.63 2.235,2.216 2.588,1.246 3.293,0.139 3.176,0.83 2.823,0.277 2.706,1.107 2.941,0.277 2.235,0.691 2.235,0.416 1.294,1.384 3.059,0.416 -0.118,-2.216 -1.882,-1.246 -0.706,-1.938 1.764,-0.831 2.235,-0.554 2.706,1.246 1.882,0.83 2.117,-0.415 2.941,0 2.94,0.277 2.235,1.107 2.94,0.692 2.941,1.661 2.117,1.246 1.059,1.8 -0.706,2.215 -1.412,1.385 -1.882,0.415 -3.646,0.831 -3.293,0.277 -4.94,-0.416 -5.293,-0.276 -3.764,-0.554 -4.117,-0.831 -3.764,-1.246 -3.176,-2.354 -2,-2.631 -1.529,-0.692 -2.941,0 -2.94,0.554 -4.47,-0.691 -1.646,-0.97 -2.941,-0.415 -2.588,-1.107 -1.059,0.554 0.471,2.769 1.882,1.8 -27.85,12.99 -2.196,-4.43 -19.536,11.156 -1.353,-3.849 -2,-5.814 -1.412,-8.03 -2.117,-4.264 -1.529,-5.123 -2,-4.708 -1.294,-4.846 -1.294,-4.431 -1.059,-3.185 -0.823,-2.907 -2,-1.385 -0.588,-2.908 -1.176,-2.077 -1.412,-2.492 -2,-2.354 0.353,-3.185 -0.353,-1.385 -2.47,-0.416 -0.352,-1.66 2,-0.692 2.118,-0.692 -0.471,-1.662 -0.235,-1.522 1.529,-0.277 4.47,-1.938 3.294,-0.554 2.588,-1.662 1.882,-0.276 -0.118,2.409 -1.882,1.107 -2.588,1.108 -2.235,0.969 -0.941,1.246 -1.059,1.938 -1.059,2.493 0.823,1.385 1.882,0.276 2,1.523 0.235,3.046 1.765,2.492 0.235,3.047 0.47,4.569 2,1.522 0.941,2.216 2.353,1.662 z m 5.528,-35.226 -1.529,0.139 -1.529,-0.416 0.235,-0.969 0.706,-0.277 2.235,-0.139 0.706,-1.661 1.059,0.139 0.118,1.246 -0.118,0.831 -0.941,0.692 -0.942,0.415 z m 7.412,-9.971 -1.647,1.523 -1.647,-1.246 0.823,-0.831 0.706,-0.969 0.118,-2.493 1.176,-2.216 0.823,0.831 0.588,0.692 0,1.801 -1.059,0.83 0.119,2.078 z m -15.528,-69.494 -1.059,0.415 -1.529,-0.554 0.118,-1.523 2,-0.416 0.824,1.108 -0.354,0.97 z m 88.862,-6.379 0.687,1.731 -2.353,1.154 -0.392,1.73 -0.98,0.924 -1.078,1.27 -1.079,0.577 -1.96,1.039 -1.078,0.577 -0.784,-0.462 0,-3.116 1.568,-0.924 0.784,-2.539 1.176,-0.692 2.451,-0.808 1.568,0.115 1.47,-0.576 z m -36.517,11.199 1.529,1.523 1.646,0.831 2.353,-0.276 1.412,-0.416 2.588,0.831 2.588,-0.554 2,-1.108 1.411,-1.108 2,-1.246 1.176,-0.692 2.94,0.554 1.529,1.108 -0.118,1.523 0,1.662 -2,1.938 -0.941,1.662 -2.47,2.217 -1.059,3.462 -0.235,3.463 1.176,2.354 1.294,1.523 1.529,1.246 2.235,0.692 1.646,0.97 1.765,1.662 1.529,1.661 1.176,2.078 -1.412,0.554 -1.294,-2.216 -1.294,-1.523 -2.823,-2.077 -2.117,0 0,2.492 1.294,2.216 0.944,2.771 -4.234,-0.555 -3.176,0.139 -1.529,0.97 1.529,2.354 -0.118,2.631 -3.411,0 -0.823,0.555 -1.529,1.385 -1.176,1.385 -2,0.415 -1.764,1.385 -1.294,1.247 -3.059,0.276 -3.646,0.277 -2.235,0.692 -0.588,2.354 0.706,2.631 0.588,3.186 -0.235,2.77 -1.529,2.354 -2,2.771 -1.294,2.215 -1.059,2.354 -2.117,3.323 -1.176,3.462 -0.118,3.047 -0.118,3.323 -1.059,1.246 -0.235,1.523 2.235,0.692 0.941,0.692 0.235,1.439 -0.824,1.385 1.882,0.692 1.529,0.277 1.059,2.631 0.353,2.908 -1.411,1.938 -3.764,-0.139 -2.118,0 -1.529,1.385 -1.764,1.8 -1.529,-0.554 -2.941,1.246 -1.882,1.246 -2.706,1.246 -1.647,0.277 -2.117,-0.277 -0.47,-1.385 0.823,-2.077 1.294,-1.384 0.706,-1.385 1.294,-2.493 1.529,-1.107 1.176,-1.8 1.176,-1.801 -0.118,-2.215 -0.941,-0.831 -2.117,1.662 -1.529,2.769 -1.765,1.247 -2.94,0.83 -1.765,0.97 -3.646,0.276 -1.765,-0.415 -0.353,-1.938 0.941,-1.662 0.471,-2.354 0.47,-1.938 1.529,-0.416 3.646,-0.554 1.647,-0.415 0.706,-2.216 0.235,-1.385 1.412,-1.938 0.47,-2.77 0.588,-2.77 1.765,-1.523 1.646,-0.692 0.824,-3.185 -0.471,-3.186 -1.647,-3.046 -2.823,-0.97 -2.353,0.97 -1.764,-0.692 2.353,-0.831 0.823,-1.938 0.706,-3.601 0.118,-2.659 1.059,-2.354 1.176,-1.8 -0.823,-2.077 -2.118,-1.108 -0.941,-2.354 0.353,-3.323 1.529,-1.247 0.118,-4.847 -1.059,-4.155 -0.941,-2.77 -0.706,-1.523 -2.353,-1.662 -2,-2.354 -0.823,-3.462 -1.882,-4.986 -2.353,-3.463 -1.059,-2.354 -1.059,-2.077 -2.941,-0.139 -1.529,-1.107 0.706,-1.939 1.412,-0.831 1.412,-0.831 1.294,-0.582 3.176,3.324 2.353,1.801 5.293,1.523 3.293,0.831 4.823,-0.554 3.764,0.276 3.176,-1.246 1.646,-3.463 2.235,-3.878 1.411,-1.108 2.588,-1.107 0.471,-3.324 -2.47,-1.386 -1.765,-1.8 1.412,-2.078 3.059,-0.554 1.764,-0.831 0.941,-1.523 2.823,-2.078 1.882,-0.97 4.234,-0.139 0.706,1.939 -1.412,0.692 -2.353,0.139 -2,1.247 -1.647,0.554 -0.235,3.463 -0.941,2.216 1.646,0.416 2.588,0.969 1.529,1.386 1.647,2.632 0.118,3.462 -1.059,1.523 -0.349,3.463 z m 42.889,-9.237 -2.548,0.23 -1.079,-1.962 -0.784,-1.154 -1.372,-1.385 -0.098,-4.155 2.059,-2.539 2.059,-1.501 2.156,-2.424 2.647,-1.154 2.156,-2.193 0.196,-3.231 0.882,-0.924 0.392,2.309 0.588,1.27 0.49,2.424 0.686,1.039 0.098,1.847 -1.862,0.577 -1.274,0.809 0.392,1.154 0.784,1.154 0.882,0.692 -1.373,1.847 -1.274,1.27 -1.862,2.539 -0.686,2.424 -2.255,1.037 z m 35.877,-28.048 1.373,1.616 0.098,1.27 -1.471,-0.23 -1.666,0.462 -0.49,1.962 -1.078,1.962 -1.765,-0.346 -1.47,-1.963 -1.471,-0.577 -3.431,0 -3.137,0 -1.863,0.924 -1.666,0.924 -2.255,0.461 -2.254,-0.115 -1.078,-1.039 1.176,-3.463 1.078,-2.192 1.96,-1.155 1.96,-0.692 1.765,-0.23 1.862,1.616 2.254,0.923 1.373,0.924 2.254,-0.115 0.392,-1.848 -0.98,-1.962 -2.255,-2.078 -1.764,-0.923 -2.157,-0.231 -0.882,-0.923 0.294,-1.616 1.47,-1.731 1.274,-1.386 1.568,-2.193 0.882,-2.771 1.372,-2.424 2.941,-1.154 2.353,-0.924 2.745,-1.847 1.568,-0.692 2.745,-0.116 0.392,1.155 -0.49,1.615 -1.274,3.349 -1.471,1.154 -1.372,5.425 -0.392,2.886 0.294,2.655 0,2.424 0.294,2.309 0.395,0.92 z m 34.407,-60.076 -0.098,2.424 -0.882,1.732 -0.98,1.731 -0.098,2.309 -0.784,2.54 -1.764,0.346 -0.98,-0.115 -1.667,-0.577 -2.254,0.346 0.882,1.385 0.882,1.501 -0.588,1.154 -1.078,1.155 -0.49,2.886 -0.196,4.733 -1.176,1.039 -2.059,-0.115 -1.667,2.886 -2.255,0.115 -1.274,0.693 -1.373,1.616 -1.568,0.923 -1.765,1.039 -1.666,1.386 -2.157,0.808 -1.96,0.809 -1.568,-1.039 -0.686,-1.154 0.392,-1.271 0.392,-1.5 0,-1.963 1.078,-2.309 1.568,-1.616 2.843,-1.732 0.98,-1.847 2.255,-0.462 1.274,-2.193 0.098,-2.886 0.588,-2.193 1.862,-2.886 1.863,-1.154 0.98,-1.848 0.98,-3.232 1.078,-1.154 1.568,-0.231 1.274,-0.346 -0.784,-1.617 -1.176,-1.385 0.686,-1.039 1.862,0.693 0.687,1.27 1.862,0.461 1.176,-1.501 1.274,-1.154 1.764,-0.346 2.353,0.808 0.492,2.077 z" />
  <path
     id="BM-SO"
     title="Southampton"
     d="m 24.879,485.438 19.535,-11.154 2.196,4.429 27.849,-12.99 0.471,1.662 0.588,2.076 -0.823,1.939 -0.353,2.907 0.706,4.153 0.588,2.216 2.117,1.661 0.353,3.046 -0.706,1.883 -1.529,1.384 -0.353,3.046 0.235,1.8 0,2.907 -0.353,3.322 -0.352,2.769 -2,1.523 -0.823,2.63 1.294,2.768 2.117,0.278 1.764,1.661 2.118,1.107 0.117,1.661 -0.353,1.108 -2.117,0.139 -0.235,1.246 1.647,2.214 1.294,0.138 2.822,0 1.412,0.416 1.529,0.415 2,-0.969 1.411,0.692 2,1.246 1.647,2.769 3.176,1.799 1.882,2.492 0.118,3.045 2,1.662 1.999,0.276 3.176,0.277 1.294,-1.938 0.706,-1.661 1.647,-0.969 2.705,1.246 2.47,1.384 2,0.692 2.588,1.246 3.294,0.139 1.882,-0.692 3.881,-1.247 4.941,0.416 1.764,-1.938 2.235,-0.969 2.706,0.554 1.882,0.83 3.647,-0.692 3.646,-0.554 3.529,-1.245 3.293,-0.637 3.647,-1.938 2,-2.908 0.235,-1.107 1.411,-0.276 0.589,2.907 3.411,0 5.176,-0.554 2.234,-1.385 4.823,-0.138 2.588,-1.523 3.294,-0.276 6.94,0 1.882,-0.692 2.235,-0.969 -0.118,-2.631 -2.117,-1.384 -3.764,0.138 -3.647,0 0.236,-2.076 1.882,-0.83 1.529,-0.693 3.647,0.139 1.411,-0.97 3.529,0.139 1.764,-1.108 2.235,-1.246 0.824,-1.661 1.176,-2.768 0.823,-2.215 2.471,-1.385 3.646,0.277 3.529,0.415 2.705,0.415 2.824,-0.276 2.694,7.405 5.02,-0.369 17.31,22.099 -0.087,0.074 -2.823,0.692 -2.823,0.692 -3.058,0.138 -1.765,1.523 -2.117,1.661 -3.294,2.492 -3.176,0.692 -5.058,0.416 -2.47,0.83 -1.647,3.183 -1.764,2.63 -2.471,2.354 -1.999,-0.278 -1.529,-0.968 -2.118,-1.108 -2.47,0.693 -2.823,1.383 -3.882,0.554 -2.823,1.939 -3.411,2.076 -3.294,2.215 -0.588,2.491 -1.529,-0.139 -2.471,-0.691 -1.646,0.276 -2.941,-0.554 -1.294,-3.045 -2.117,0.554 -0.942,1.938 -0.47,2.907 -1.882,0.83 -2.941,-0.83 -0.588,-2.215 -0.823,-1.522 -1.647,1.661 -1.529,1.106 -2.706,0 -1.294,-2.352 -3.411,-1.938 -5.176,0 -6.234,-0.277 -4.235,0.277 -5.763,-0.416 -6.352,-0.554 -6.235,-0.137 -6.469,0 -2.824,0.968 -2.941,1.799 -2.822,0.97 -5.294,0.276 -4.47,0.693 -2.941,0.415 -0.353,1.246 -0.94,0.83 -1.059,-0.83 -0.588,-1.524 -1.412,-0.968 -2.117,-0.692 -2.706,-0.277 -3.882,0.139 -1.764,-1.661 -1.647,-1.384 -1.764,-2.769 -1.765,-1.661 -1.647,-0.692 -1.528,0.138 -1.647,-0.83 -1.059,-1.246 -2.352,-0.692 -1.53,0.277 -1.411,-2.077 -1.882,-1.245 -2.47,-0.554 -1.647,-0.692 -0.706,-1.384 -0.941,-1.938 -0.941,-1.384 -0.941,-1.8 -1.412,-0.83 -1.882,-0.471 -2.117,-2.492 -2.118,-1.523 -2,-2.768 -3.058,-3.876 -3.176,-3.184 -2.588,-1.246 -1.293,-2.076 -1.059,-1.8 -2.353,-0.692 -1.412,-3.461 -1.176,-2.076 0.118,-4.015 -1.647,-1.523 -0.353,-2.354 -0.706,-4.291 -1.058,-3.877 -0.823,-4.153 z" />
  <path
     id="BM-WA"
     title="Warwick"
     d="m 173.621,456.89 -0.941,2.215 -1.529,-1.107 0.471,-1.938 0.941,-2.215 1.529,-1.938 0.353,1.385 0.941,0.415 0.706,1.385 -1.882,0.554 -0.589,1.244 z m 33.407,-5.399 -2.353,0 -2.47,-0.97 -0.823,-1.8 -0.588,-2.215 0.823,-2.077 2.588,-0.139 0.706,1.661 1.765,0.692 1.176,0.97 0.47,2.631 -1.294,1.247 z m 27.173,-4.985 -0.824,2.215 -0.823,0.277 -1.882,-2.216 -2.823,0.139 -3.176,1.523 -1.059,1.661 -2.47,3.461 -0.118,-1.938 -1.646,0.139 -1.294,1.8 -2,1.938 -2.235,0.97 -3.882,0.692 -2.353,-0.692 3.411,-2.631 2,-3.046 3.529,-3.046 2.823,-1.662 2.823,-1.246 4,0 1.529,-0.415 1.176,-2.492 1.176,2.215 1.059,0.97 3.059,1.384 z m 97.044,32.619 -4.47,2.354 -5.058,1.661 -2.353,0.277 -2.117,1.384 -2.941,1.938 -2.94,1.938 -4.353,2.769 -4.352,2.354 -2.588,0.139 -2.941,0.554 -2.706,1.8 -1.529,2.657 -3.293,1.938 -3.058,1.385 -4.47,2.076 -3.411,1.385 -3.059,2.491 -3.293,2.077 -3.293,2.63 -3.059,1.661 -2.823,1.522 -3.999,2.354 -2.588,2.076 -4.706,2.077 -2.353,2.353 -1.764,2.492 -2.501,2.141 -17.311,-22.099 -5.019,0.369 -2.695,-7.405 4.117,0 2.823,-1.246 -0.353,-1.8 -2,-0.692 -1.294,0.416 -0.823,0.83 -1.059,-1.661 -1.529,-0.831 -3.764,0.139 -1.647,1.938 -1.059,0.554 -1.529,-1.107 -0.823,-1.523 -1.765,0.139 -2.94,0.139 -1.412,-1.385 -0.235,-2.354 -0.353,-2.215 -1.529,0.139 -0.706,1.246 0.118,2.076 -0.588,1.661 -1.176,0.97 -3.764,0 -1.059,1.661 -3.058,1.107 -2.117,0 -1.412,0.554 -1.882,0.692 -1.529,-0.97 0.47,-1.799 1.176,-1.246 1.647,-0.831 0.471,-1.385 -0.588,-1.107 -1.294,-0.83 0.118,-0.97 1.294,-0.691 1.176,-1.246 0.706,-1.107 0.588,-1.385 0.588,-1.522 -1.764,-0.831 -1.647,-0.415 -1.059,-1.385 1.412,-0.554 1.764,-0.831 1.529,-0.554 0.941,-1.661 1.059,-0.554 1.646,0.831 1.647,0.276 0.941,-0.83 2,-0.555 2.705,-0.138 2.353,1.522 4.94,0.415 3.176,-0.276 1.765,-0.969 3.058,-1.246 1.765,-1.108 1.412,-1.522 2.588,-1.219 3.411,-0.138 2.47,-2.077 2.588,-2.354 4.117,-1.246 4.235,-1.523 4.235,-1.661 1.529,-3.185 2,-1.384 4.234,-1.938 2.47,-0.692 3.294,-0.97 2,-1.661 2,-0.692 5.176,-0.415 1.412,-1.523 2.235,-2.215 3.294,-2.077 2.235,-1.107 3.176,0 1.294,-2.908 3.059,-2.907 3.176,-2.77 2.47,-1.8 2,-2.216 4.823,-3.6 1.176,-2.077 2.706,-2.631 39.252,48.896 -0.317,0.201 -1.764,2.077 -4.353,0.692 -2.826,1.799 z m -106.22,-60.312 -0.823,1.107 -2.118,-0.276 -1.412,1.661 -1.529,0.692 -1.647,-1.661 -0.941,-1.108 -1.647,-1.938 -1.059,-1.938 0.823,-1.523 2.353,-0.415 2.353,-0.276 2.117,-0.692 1.529,1.661 0.47,1.107 0.588,1.385 0.943,2.214 z m 26.937,-6.924 3.059,1.523 2,0.277 2.941,-0.416 3.058,0.139 0,2.354 -1.411,1.385 -0.471,1.246 -1.765,1.385 -1.764,0.554 -1.882,-0.831 -0.941,-1.523 -0.941,-2.354 -1.647,-1.108 -1.529,-0.969 -1.882,-0.554 -0.941,1.522 0.706,1.523 0.353,1.523 -0.706,1.385 -0.941,0.692 -1.176,-3.462 -0.235,-2.077 -1.412,-1.661 -2,-0.831 -2.117,-1.662 0.235,-1.107 1.294,-0.277 2,0.554 2.47,0.277 3.411,0.277 2.234,2.216 z m -44.11,7.339 -2.588,0.139 -0.588,-1.938 1.412,-1.385 0,-2.354 0.235,-2.631 -1.176,-1.385 0.471,-3.047 2.94,0.277 0.235,1.661 -0.823,1.108 0.706,1.246 1.059,1.8 -0.118,1.523 -0.353,2.077 -1.412,2.909 z m 28.466,-17.862 -0.706,2.492 -2.941,1.246 -2.47,1.523 -2.117,-0.831 -1.765,-0.692 -1.294,1.108 -1.294,0.969 -2.588,-0.969 -2.117,-0.416 -4,-0.415 -2.117,-0.554 -3.059,-0.277 -1.529,-1.385 -1.411,-0.692 1.294,-0.554 4.823,-0.277 2.823,0.555 4,0.138 5.999,0.416 2.47,-0.692 1.529,-0.416 1.412,-0.276 2.353,0.139 0.588,-0.555 1.294,-2.492 1.529,0.554 0.118,1.246 -0.824,1.107 z m -42.818,11.078 -2.94,0.969 -1.882,-1.246 -0.941,-1.523 1.294,-1.523 0.588,-2.215 0.941,-2.354 0.118,-2.77 -1.529,-0.554 -2,-1.938 2,-0.97 2.47,0 2.588,0.692 2.588,0.277 0.588,2.077 1.412,0.831 1.529,0.415 0.353,2.77 -1.176,0.415 -1.882,1.385 -1.882,2.216 -2.237,3.046 z" />
  <path
     id="BM-PA"
     title="Paget"
     d="m 271.842,414.244 0.941,1.246 1.882,0 2.47,0 3.646,0.139 3.059,0.139 1.764,1.246 1.882,0.969 1.059,1.662 -1.059,1.385 -2,0.276 -1.412,2.077 -2.587,2.631 0.353,3.185 -1.412,0 -0.235,-1.661 -1.765,-1.938 -1.882,-2.492 -1.176,-2.354 -1.882,-0.692 -1.059,-1.107 -1.529,-1.938 -1.176,-1.385 0.471,-1.523 1.647,0.135 z m 155.507,-21.492 -2.353,2.631 -1.059,1.246 -1.412,1.523 -0.823,-0.692 0.353,-2.077 1.177,-1.108 -0.471,-0.969 -3.059,-0.554 -1.294,0.415 -1.411,1.801 -0.235,1.522 2,1.385 1.528,2.632 -0.117,2.492 -1.646,2.354 -2.235,1.938 -3.529,3.323 -3.999,2.492 -3.176,0.277 -2.706,1.246 -2.587,2.492 -1.529,1.772 -2.941,3.323 -1.059,4.154 -2.353,4.847 -2.47,3.185 -3.293,3.877 -2.117,4.015 -0.941,2.492 -2.47,1.662 -2.587,1.246 -2,1.661 -2.235,1.523 -1.647,3.323 -3.176,3.876 -2.941,1.523 -4.117,3.738 -4.117,4.292 -4.353,2.769 -5.528,1.107 -3.882,0.277 -4.035,2.567 -39.252,-48.896 2.706,-0.969 2.94,0 3.411,-0.139 2.706,-0.416 0.941,-1.522 -0.353,-1.523 -1.294,-1.385 -1.176,-2.077 -0.824,-2.631 -0.353,-1.246 1.294,-0.415 1.882,1.246 0.471,2.077 2.353,1.246 2,0.831 1.647,-1.108 1.294,0.277 2.588,-0.139 3.764,-1.523 3.529,-1.385 3.176,-1.522 2.588,-0.416 1.294,0.831 4.235,-0.415 2.235,-1.385 1.882,-2.216 2.235,-4.569 1.529,-4.432 2.117,-1.523 3.411,-0.969 2.353,-2.908 1.647,-2.216 2.941,0.139 1.411,0.969 4.117,0.831 2.706,-2.908 0.588,-3.047 -0.353,-3.323 1.294,-2.354 4.587,-0.969 3.059,-0.416 5.058,-1.107 1.177,-2.077 32.717,-19.126 15.512,26.721 -1.06,0.963 -0.94,2.216 -2.588,2.354 -2.357,0.973 z" />
  <path
     id="BM-PE"
     title="Pembroke"
     d="m 257.609,377.159 -1.412,2.077 -1.412,-0.554 0,-1.662 1.059,-0.692 0.941,-1.246 -0.823,-1.523 -0.471,-1.107 0.118,-2.216 2.47,-0.139 -0.706,1.938 0.823,1.246 0.118,1.939 -0.705,1.939 z m 9.998,-53.82 0.47,1.662 2.118,1.385 2.235,0 2.235,-0.97 1.412,0.831 0.588,1.801 2.587,0.831 1.765,-0.831 1.882,-0.139 1.647,1.523 2.117,0.831 3.059,-1.108 4,0.555 3.764,0.831 6.47,-0.555 5.999,1.386 3.411,0.415 9.175,0.139 2.47,-1.246 1.882,-1.386 3.764,0.277 2.117,-0.277 2.47,-0.692 3.176,0 3.058,-0.97 2.47,0.555 2.823,0.415 3.411,-1.385 4.706,-0.139 3.411,0 1.882,-1.801 2.235,-0.831 4.47,-0.139 14.409,52.812 -2.058,-0.404 -4.823,-0.138 -4.235,0.692 -2.117,2.077 -4.47,1.246 -2.23,0.375 -6.89,-22.363 -26.075,3.463 5.435,24.757 -0.824,2.354 -1.176,1.523 -1.765,-1.107 -2,-1.801 -2.47,-0.139 -4.117,1.662 -2,1.246 -6.94,0.277 -3.764,0.276 -1.529,-2.77 0.353,-1.246 1.529,-0.97 0.471,-1.385 -1.176,-1.661 -2.941,0.138 -2,0.831 -0.941,2.077 -2.235,0.555 -1.293,-1.523 -1.294,-1.801 -2.353,-1.107 -3.293,-2.216 -2,-1.523 -2.353,-0.554 -2.118,0.554 -0.588,2.354 -2.235,1.107 -3.882,-0.139 -2.235,1.247 -2.118,0.83 -2.823,0.692 -2.117,0 -2.117,-1.522 -1.412,-1.939 -0.588,-3.185 -0.117,-4.709 -1.294,-1.246 -0.235,-2.216 1.764,-0.97 2.588,0.416 1.882,-0.555 1.294,-1.246 0.588,-1.246 -0.941,-1.247 -0.235,-0.969 1.529,0 1.765,1.661 0.588,1.247 0.353,2.354 2.353,1.8 0.941,-0.692 1.176,-0.831 1.529,1.662 -0.235,1.662 -0.706,0.969 0.588,1.801 2,-0.139 2,-0.554 0.823,-1.938 -0.118,-2.354 -0.941,-0.97 -1.646,-0.831 -0.941,-1.302 -2,-0.831 -0.118,-2.492 -0.706,-1.939 -1.647,-1.8 -3.293,-0.277 -1.882,0.692 -2.47,1.107 -1.882,0.416 -1.294,-1.108 -0.588,-2.631 -1.176,-0.831 0.471,-1.801 0.118,-2.77 -1.176,-2.077 -1.765,-0.555 -1.529,-1.661 0.118,-0.97 2,-0.555 3.059,0 1.882,1.247 1.765,1.385 2.235,1.385 2.823,-0.276 3.059,0 1.529,-1.108 -0.118,-2.354 -2.587,-1.385 -2.235,-0.416 -1.764,-1.523 -1.882,-2.216 -2.706,-1.662 -2.94,0.277 -3.294,0.277 -0.823,2.216 -1.764,2.493 -1.882,0.276 0.235,-1.662 -0.118,-2.908 -1.412,-0.97 -1.882,2.493 -2.353,2.908 -2.47,2.493 -2,2.632 -2.47,1.107 -2.941,0.97 -2.117,-0.415 2.235,-1.386 1.294,-1.107 0.471,-1.523 0.941,-2.216 -0.706,-1.523 -0.941,-2.493 -2.353,-1.801 -0.47,-1.938 -1.294,-2.078 -1.412,0.831 -1.529,1.247 -2,0 -1.294,-0.831 -1.765,-0.416 -0.706,-2.493 0.235,-1.107 0.823,-2.217 0.706,-1.523 1.176,-1.107 2.941,-0.416 1.294,-0.831 -0.471,-1.801 -2.588,-0.276 -1.646,-0.831 1.529,-1.801 1.882,-1.247 2.706,0.831 2,0.693 3.176,-1.108 4.705,0 6.705,-0.692 5.058,-0.416 3.529,0.692 3.526,1.526 z" />
  <path
     id="BM-HA"
     title="Hamilton"
     d="m 496.373,272.763 -11.175,7.203 -8.681,-12.922 2,-2.077 2.353,-0.831 5.881,0 4.117,0.276 1.646,0.97 1.177,1.662 2.682,5.719 z m 33.548,-46.587 -2.588,0.277 -0.235,-2.494 -1.059,-1.94 -1.176,-0.97 1.411,-1.801 1.059,-1.108 2.823,-1.524 0.589,1.108 -0.589,1.524 -0.94,0.554 -0.118,2.079 1.412,1.108 0.353,1.801 -0.942,1.386 z m 65.52,36.685 -2.083,0.491 -23.443,-20.966 1.765,-2.078 1.412,-1.385 2.822,-1.94 0.941,-1.939 1.294,-2.217 1.177,-2.632 1.764,-1.524 0.941,-2.106 3.176,-3.048 2.588,-0.693 0.941,-1.385 2.94,-1.524 1.411,-1.939 2.706,-2.355 2.705,-1.939 27.515,30.058 -3.518,2.223 -3.765,2.632 -3.999,0.97 -2.117,3.463 -3.412,1.801 -2.117,0.97 -3.176,0.276 -3.059,2.771 -3.528,1.662 -1.881,2.353 z m -17.111,-61.254 -0.862,0.092 -0.863,-0.37 -0.234,-1.201 -0.235,-1.293 -0.314,-1.016 1.49,0.462 1.098,0.646 0.393,1.386 -0.473,1.294 z m 12.641,-27.833 -0.94,1.524 -1.294,0.554 -1.177,-0.693 -1.411,1.108 -0.235,1.94 1.765,1.247 2.353,1.108 1.882,1.802 2.117,0.277 2.235,1.386 0.588,2.771 2,2.771 3.293,0.416 5.882,0.416 2.353,1.108 2.705,1.663 2.353,2.494 3.647,2.771 3.999,2.771 1.41,0.63 -17.961,13.658 -5.563,-4.035 1.765,-2.217 0.234,-2.355 -2.94,-1.663 -2.234,-1.385 -1.765,-0.832 -2.471,-0.277 -0.588,-1.524 -2.235,-1.939 -1.882,0.416 -2.823,0.139 -1.529,-1.524 -1.059,-1.524 -0.705,-1.108 0.94,-1.801 1.177,-1.663 0.353,-2.079 -1.176,-1.663 -1.177,-1.247 -0.706,-1.94 -1.294,-2.355 -2.822,-0.693 -1.529,0.139 -0.941,-1.94 0.706,-1.109 -0.706,-2.078 -1.294,-1.247 -1.529,-0.416 -3.528,0.554 -2.235,0.555 -4.588,0 -3.646,1.524 -1.059,0.554 -2.705,0.554 -2.235,1.663 1.529,0.831 2.471,0.97 0.235,1.801 -1.883,1.247 -3.882,-0.139 -2.353,3.048 -2.47,2.494 -2.823,1.94 -1.765,0.416 -2.94,0.277 -2,0.139 -3.646,1.247 -1.882,1.247 -2.117,1.663 -1.647,2.078 -1.646,0.554 -3.882,-0.139 -1.059,1.663 -0.706,2.771 -1.059,2.91 -2.588,2.494 -1.529,1.663 -1.411,1.247 -1.882,1.108 -1.647,1.801 -0.353,1.164 -0.823,1.524 -1.177,-0.139 -1.059,-0.97 -3.528,0.277 -1.177,1.108 -3.176,1.663 -0.588,2.217 2.47,1.386 1.412,2.216 -0.354,2.632 -1.646,0.277 -1.412,1.385 -1.294,1.108 -1.059,2.078 -2.822,0.139 -1.883,0.832 -0.471,2.078 -0.47,2.355 1.529,1.939 1.646,1.524 0.471,2.355 -1.059,0.692 -3.294,0.693 -0.353,0.97 0.234,1.939 -0.705,1.801 -1.294,1.247 0,2.355 -1.882,1.247 -1.177,-0.692 -1.765,-0.416 -1.294,1.662 1.883,1.247 2.47,0.416 5.293,0.276 3.294,0.416 0.941,1.801 -0.941,1.386 -2.117,0 -2.706,-1.247 -3.999,0.139 -2.705,-0.693 -2.117,-0.831 -1.883,-1.523 -1.882,-1.386 -1.177,-2.632 0.589,-3.463 1.294,-2.078 0.705,-3.048 0.706,-3.602 0.941,-2.217 0.94,-2.494 0.471,-1.801 2,-2.632 1.529,-2.217 1.294,-2.771 0.94,-2.494 -0.823,-2.217 -1.529,-1.386 -3.058,-0.138 -0.824,2.355 -2.234,1.247 -0.354,-1.801 0.354,-3.879 1.646,-1.108 1.882,-1.663 0.824,-4.156 0.588,-3.187 1.765,-1.524 0.705,-1.801 -1.176,-0.692 0.117,-2.494 0.823,-2.217 2.471,-0.416 1.294,-2.632 1.882,-1.663 1.412,-0.97 0.353,-3.325 0.471,-5.542 -1.177,-1.801 0.235,-2.494 2.235,-1.386 2.588,-1.663 2.94,-1.663 2.94,-1.247 6.47,-0.277 3.294,-0.555 4.47,-0.554 1.177,-0.665 2.117,-2.494 2.705,-3.187 2.471,-2.356 3.528,-0.277 3.765,-0.277 3.176,-1.94 2.47,-1.94 2,-1.108 2.706,-0.139 -0.354,-2.91 -1.529,-2.079 -1.411,-2.356 2.47,-1.524 3.059,-0.832 1.412,-0.97 1.529,-1.524 0.47,-3.049 1.412,-1.94 2.94,0 2.471,-0.693 0.94,-2.91 -0.353,-4.712 0.94,-2.633 1.412,-1.94 1.529,0 0.471,1.248 1.411,1.663 1.059,3.326 1.646,2.079 1.647,1.026 3.764,1.108 4.353,0.693 4.234,3.464 3.411,2.356 0.589,3.464 0.353,3.742 0.471,4.019 1.882,2.633 0.471,2.217 0,2.771 2.588,1.108 2.117,0.832 2.471,1.386 -0.589,1.663 -1.646,0.97 -0.942,1.801 z" />
  <path
     id="BM-SC"
     title="St. George's"
     d="m 715.169,205.665 -1.333,0.093 -0.94,-0.462 -2.51,-0.462 0.078,-1.108 1.412,-0.646 1.02,-0.37 0.705,-0.646 1.333,-1.016 1.412,0.185 0.941,1.57 -0.471,1.201 -1.647,1.661 z m -14.097,-5.565 1.412,0.416 0.94,-0.139 0.588,2.771 -1.411,1.94 -2,0.416 -2.353,0.97 -3.059,0.277 -0.47,1.801 0,2.771 -0.471,2.771 -1.529,1.801 -2.353,0.831 -1.765,1.386 -2.47,-0.139 -2.118,1.385 -3.764,0.832 -2.471,0.831 -2.353,0.693 -2.705,-0.554 -1.529,1.524 -1.765,1.386 -0.823,3.048 -1.646,0.554 -1.529,0.693 0,1.524 -1.882,1.385 -2.823,0.693 -5.411,0.693 -1.646,1.108 -2.471,0.831 -3.411,1.939 -2.94,1.247 -2.706,1.524 -4.705,0.831 -3.882,0.693 -2.47,1.108 -3.765,0.97 -1.305,0.825 -27.515,-30.058 2.471,-2.217 5.563,4.035 17.961,-13.658 2.001,0.894 3.529,1.247 3.999,0.416 6.94,0.554 3.646,1.386 1.529,2.632 0.235,4.711 0.823,2.632 -0.823,1.524 -1.647,2.217 -1.999,0.832 -0.589,1.385 0.589,1.94 0.823,1.108 0.823,1.524 1.882,-0.416 0.588,-2.771 0.706,-2.771 2.117,-1.108 3.765,0 1.529,1.801 1.764,1.247 2.471,-1.663 2.94,0.416 1.882,0 -0.234,-1.801 -1.412,-0.554 -0.235,-1.524 1.765,0 1.765,0.416 3.528,0.277 2,-1.524 1.529,-1.247 2,-2.494 1.646,-1.247 2.94,0 1.412,2.217 1.882,1.247 3.529,-0.97 2.353,-2.494 1.999,-4.018 2,-3.187 2.47,-1.663 3.647,0.416 1.411,-1.386 1.063,-1.939 z m 12.45,-3.395 -1.02,1.201 -0.862,-1.108 -1.804,-0.37 -1.568,-0.092 -1.02,-0.647 1.255,-1.478 1.96,0 2.588,-0.277 0.863,1.57 -0.392,1.201 z m 32.426,-28.625 0.098,3.695 0,4.619 -1.176,0.809 -0.589,-1.155 0,-1.27 -0.392,-2.771 -0.784,-0.578 -2.745,0.231 -3.528,-0.231 -3.333,0 -0.784,-1.616 1.862,-1.963 1.078,-1.732 3.431,-0.347 1.961,-0.924 2.156,-0.462 2.451,1.501 0.294,2.194 z m -179.561,-48.573 1.882,0.554 0.471,-0.554 0.588,-0.97 1.059,0 0.823,0.554 0.589,2.079 -0.235,3.049 -0.118,1.524 -0.823,0.832 -1.294,0 -1.411,0.139 -1.059,0.554 -2.471,-0.139 -1.059,-0.554 -0.941,-1.386 0.118,-2.495 1.411,-1.386 0.235,-0.555 0.941,-2.217 0.823,-0.139 0.471,1.11 z m 181.031,-25.723 -1.411,0.693 -0.588,-1.663 -3.177,-0.416 0,-2.079 3.529,-0.97 0.353,1.94 0.824,0.693 0.47,1.802 z m 32.584,-20.846 2.234,0.832 1.294,-1.386 1.177,0 1.765,1.109 1.059,2.079 -1.059,2.218 -2.471,1.109 -0.706,1.109 2.471,0.832 1.765,0.416 1.294,1.802 0.235,2.772 1.059,1.386 1.411,1.247 0.471,1.802 -0.823,1.386 -1.765,0.416 -2.117,0.97 -1.529,2.634 -1.294,4.158 0.823,1.94 0.588,2.356 -0.823,3.188 -1.646,1.386 -1.646,2.079 -0.471,2.218 -0.354,2.91 -1.528,0.887 -1.412,0.832 -0.941,2.356 -1.528,0 -0.118,-2.217 -0.117,-2.495 -2.588,-0.416 -2.235,-0.416 -2.117,-0.97 -1.529,0.97 -2.823,0.277 -2.823,0.555 -2.234,0.832 -1.177,-0.693 -2.353,-0.555 -2.234,-0.139 -2.471,2.079 -0.94,4.573 -0.235,4.712 -1.177,3.604 0.353,3.326 2.823,2.772 1.883,2.91 2.47,0.416 1.177,1.94 1.999,1.94 1.882,2.079 1.883,-1.108 1.646,-0.554 0.353,1.94 -0.47,2.079 -1.647,1.524 -0.823,2.494 0.706,1.802 0.588,2.079 1.177,2.771 3.058,2.217 1.647,0.554 3.293,2.355 2.353,2.079 0.235,2.356 2,1.94 0,2.633 -2.47,-0.277 -0.941,-1.108 -0.353,-3.049 -2,-1.108 -1.294,-2.217 -1.882,0 -2.235,0.277 -1.765,0.693 -1.294,2.355 -1.176,0.277 -0.706,-1.663 0.706,-1.94 0.705,-2.494 1.177,-0.416 0.471,-1.663 -2.477,-0.835 -2.588,0 -3.293,0.277 -1.294,1.524 -0.471,1.94 -1.294,-0.554 -1.059,-2.91 -0.471,-3.603 -1.176,-3.048 -1.177,-1.802 -0.353,-2.079 -1.177,-2.217 -1.529,-2.55 -1.646,-2.771 -1.882,-1.802 -3.177,0.693 -0.705,-3.049 -0.471,-5.682 -2.823,-3.326 -2.823,-2.217 -4.587,-3.049 -4,-0.97 -2.47,-3.188 -4.706,-3.326 -7.763,-4.296 -7.999,-0.97 -4.823,-1.663 -6.939,-1.663 -5.059,-0.832 -4.823,0.277 -3.646,0.97 -5.175,1.802 -2.235,2.079 0,7.345 0.235,10.81 0.588,3.88 0.471,3.88 -0.353,3.187 -0.824,1.109 -1.999,1.663 -2.706,0.693 -2.47,-2.356 0.471,-4.851 -0.354,-9.285 -0.588,-4.296 -0.235,-8.454 -1.646,-3.742 -0.706,-3.465 -1.177,-1.663 -2.234,-2.356 -2.588,-0.832 -4.234,-1.109 -3.412,0.416 -3.528,0.416 -4.117,1.524 -4.234,1.108 -4,0.97 -3.999,2.218 -4.823,3.88 -1.646,4.435 -3.411,3.742 -2.117,1.663 -4,0.139 -1.646,-0.693 -1.529,0.97 -1.176,1.94 -2.588,-0.554 -1.294,-0.277 -1.059,-1.801 -1.647,-4.989 -1.764,-2.217 -1.294,-3.188 -0.589,-3.742 0.824,-4.02 2.94,-0.554 2.705,-1.248 3.059,-1.524 3.529,-1.663 3.528,-1.802 4.47,-1.663 3.646,-0.97 3.882,-1.248 4.471,-2.495 2.588,-1.802 3.528,-2.495 1.294,-2.218 2.235,-2.356 3.999,-1.525 3.294,-0.277 4.117,0.693 5.175,0.97 4.941,-0.139 3.411,-2.633 1.528,-1.941 0.824,-1.524 1.646,-0.139 2.471,0.277 3.293,0.277 2.706,0.138 2.234,1.248 3.059,-0.277 2.353,-0.277 1.177,1.109 2.117,1.247 4.587,-0.554 1.647,1.94 1.176,0.97 1.294,-0.693 1.646,-1.248 2.118,-1.248 3.646,-0.693 2.588,0 3.528,0.832 2.353,1.386 2.235,3.188 2.234,-0.139 3.412,-0.97 2.588,-1.109 3.764,1.386 3.059,-0.138 4.47,0.97 3.529,0.138 1.999,1.386 -0.353,4.158 -2,1.802 -2.705,1.802 -1.412,3.742 1.647,2.495 4.117,0.416 2.117,-1.248 1.882,0.832 1.294,1.525 1.765,-1.109 3.528,-0.277 1.177,1.663 1.411,1.525 2.471,0 -0.706,-3.327 -1.294,-1.802 1.646,-2.911 1.765,-0.693 3.177,-0.693 4.939,-0.555 2.706,-0.138 3.764,0.416 2.235,-3.049 2.235,-1.386 2.117,-0.139 2.47,-1.109 -0.471,-2.218 -2.117,-1.386 -2.588,1.524 -1.764,0.97 -2.706,0.139 -1.765,2.079 -1.646,1.524 -1.882,0 -0.589,-1.386 -1.293,-1.248 -1.295,-1.524 0.941,-1.386 1.765,0 1.176,-2.772 -1.059,-1.525 -0.823,-1.802 0.706,-1.94 2.235,-0.554 3.528,-0.555 4.705,0.139 2.588,-0.139 1.294,-1.248 1.294,-0.97 2.117,-0.139 1.181,1.671 z m -34.466,-2.578 1.529,1.386 3.294,0.971 3.764,-0.139 1.177,1.94 -0.354,2.079 -2.353,0.97 -1.529,0.97 -1.764,0.693 -1.647,-0.97 -1.764,0.693 -1.883,0.554 -5.999,0 -3.411,-1.109 -3.646,-0.139 -3.764,-1.802 -3.059,-0.97 -2.235,-0.97 -1.765,-0.832 -2.47,-0.832 -1.412,-1.663 0.118,-6.515 1.176,-0.554 0.824,0.832 0,1.802 -0.235,2.079 1.059,0.832 3.293,-0.138 2.354,1.802 2.47,0.277 0.588,-0.693 0.235,-2.079 -0.588,-1.94 -1.177,-0.416 -1.294,-1.109 0.706,-1.247 2.235,-0.277 1.764,1.524 0.941,1.802 2.353,1.94 4,0.693 5.999,0.139 2.47,0.416 z m 13.175,-5.545 0,2.218 -1.646,0.693 -2.235,-0.416 -0.588,-1.525 -1.529,-0.97 -2.706,0.139 -1.529,-1.525 -1.528,-0.97 -2.118,-1.802 -2.588,-0.693 -4.352,-0.277 -0.941,-0.554 0.823,-1.664 0.941,-1.386 1.529,-0.693 2.94,-0.554 1.059,-1.386 2.117,-0.416 2.117,1.802 2.235,1.663 1.177,1.664 3.176,2.218 1.646,1.94 2,2.494 z m -16.703,-13.445 -0.706,0.971 -1.529,-0.555 -1.177,-1.109 -0.823,-1.248 1.412,-0.554 1.765,-1.386 1.999,0.832 -0.588,2.079 -0.353,0.97 z m -38.465,-44.998 2.234,1.802 3.176,3.188 3.059,4.714 3.882,2.356 2,2.495 3.882,4.852 1.882,2.772 2.47,1.664 2.118,2.634 3.411,3.05 3.059,2.08 2.822,1.94 1.529,2.356 0.706,2.357 -1.411,1.109 -2.354,0 -4.116,0 -5.646,-0.416 -2.353,-1.386 -2.235,-1.248 -3.293,-0.97 -2.588,-2.218 -1.883,-1.802 -4.352,-0.97 -6.912,-17.463 -24.938,7.763 4.843,17.881 -2.4,1.245 -4.235,1.664 -2.823,0.97 -5.293,0.555 -2.588,1.386 -3.764,0.693 -0.118,2.079 0,0.832 -1.882,-0.139 -1.765,0.97 -1.529,1.248 -2.234,1.386 -5.294,0.277 -3.293,0.277 -1.412,-2.079 -0.941,-0.832 1.177,-1.525 1.529,-0.97 1.529,-0.97 0.823,-1.109 -1.294,-1.386 -2.117,-0.693 -1.882,1.248 -1.177,1.109 -1.529,0.555 -1.765,0.277 -0.588,1.386 -0.353,1.275 -1.883,2.079 -2.353,0.555 -2.234,1.386 -0.588,1.663 2.47,1.109 3.294,1.109 3.293,0.832 2.588,0.693 1.647,0.277 2.353,-0.97 1.529,-1.802 1.764,0.139 2.354,0.555 1.999,1.109 1.765,2.495 0.353,3.327 -1.059,3.327 -3.646,-0.416 -2.117,-0.526 -0.823,-1.525 -1.882,-1.109 -1.529,0.832 -0.471,1.94 -1.411,1.247 -1.529,1.109 -1.883,0.97 -1.646,-1.247 -1.646,0.416 0.471,1.802 0.588,1.386 -1.294,0.832 -5.059,1.109 -1.999,0.277 -1.412,1.109 -1.765,-1.663 -1.646,-1.386 -1.882,2.356 -1.059,2.495 -2,1.663 -3.882,1.94 -2.705,1.386 -3.411,0.277 -5.646,0.277 -2.706,1.386 -2.822,1.524 -2.235,1.386 -4.94,1.386 -2.47,0.555 -1.412,1.247 -2.47,2.079 -2.706,0.416 -2.588,2.079 -2.353,2.218 0.471,3.326 -0.235,1.663 -2.353,0.693 -3.646,0.555 -2.353,0.139 -1.882,1.247 -2.118,1.663 -0.588,-1.108 1.177,-1.664 0.94,-1.94 0.941,-2.911 1.882,-1.247 1.882,-0.555 4.235,-0.97 0.94,-2.079 -0.47,-0.832 -0.824,-1.108 -2.47,1.108 -2.588,0.97 0.471,-2.217 1.294,-0.97 0.823,-2.079 1.765,-1.802 1.999,-1.94 2.353,-2.356 3.059,-2.495 2.235,-1.524 2.588,-1.109 3.528,-1.109 3.765,-0.97 2.117,-1.386 1.176,-1.247 1.295,-1.664 3.881,-1.109 1.529,-0.97 3.177,-1.663 1.176,-1.664 1.529,-1.996 2.117,-3.188 2.823,-1.941 4.823,-1.386 1.176,-2.911 3.176,-2.218 3.294,-2.634 3.529,-1.94 4.116,-2.356 2.941,-1.802 2.47,-1.386 2.235,-2.079 2.234,-0.832 2.823,-1.802 2.235,-2.356 2.47,-0.97 2.235,-1.941 2.823,-1.109 2.588,-2.356 2.94,-2.911 2,-2.911 1.411,-1.664 2.706,-0.832 0.823,-1.802 1.529,-2.773 1.411,-2.079 1.882,-1.525 2.118,-3.188 2.234,-0.832 1.294,-0.277 2.706,-2.08 2.705,-0.832 2.235,-1.386 0.353,-2.08 1.176,-1.386 1.177,1.248 1.529,0.971 2.47,-0.693 0.118,-1.941 -0.588,-2.495 1.293,-0.277 3.294,-0.693 2.117,-1.386 2,0.277 0.235,3.188 0.943,2.907 z" />
  <path
     id="BM-HC"
     title="Hamilton"
     d="m 361.363,380.968 -2.71,0.456 -3.882,0.831 -5.058,1.385 -5.294,0 -3.058,0.692 -4.352,-0.138 -3.176,2.631 -5.435,-24.757 26.075,-3.463" />
  <path
     id="BM-DE"
     title="Devonshire"
     d="m 486.634,342.314 -5.529,-0.554 -3.764,1.246 -0.942,2.216 -0.117,4.57 0.236,4.987 -1.294,0.277 -1.882,-0.831 -1.059,-1.108 -1.883,-1.524 -0.94,2.355 -0.235,1.246 1.764,1.662 2.117,0.97 -0.941,1.938 -1.411,-0.803 -1.765,1.246 -2.47,0.831 -0.706,3.325 -1.764,1.107 -2.823,1.109 -4.353,0.553 -2.823,1.524 -2.705,0.831 -2.117,0.969 -2.236,2.909 -1.999,3.046 -2.588,2.908 -4,3.463 -2.588,2.077 -1.528,1.39 -15.512,-26.72 -32.716,19.126 -2.588,-1.109 -2.177,-0.426 -14.409,-52.812 4.822,-0.138 3.177,-1.524 3.293,-0.415 3.529,-0.554 1.882,-2.078 2.705,-0.139 3.882,-0.969 2.706,0.138 3.882,-0.969 2,-2.355 2.588,-1.662 3.411,0 3.175,-0.415 2.353,-0.97 2.823,-1.247 2.235,-1.024 3.412,-1.386 4.351,-1.385 3.059,-0.97 4.352,-2.631 2.824,-2.216 1.646,-2.632 2.235,-1.524 2.824,-1.108 3.293,-0.555 1.176,-2.215 1.412,-2.217 3.058,-0.415 2,-1.386" />
  <path
     id="BM-SM"
     title="Smiths"
     d="m 593.358,263.352 -0.858,0.202 -3.528,2.771 -3.411,2.909 -3.059,2.078 -1.177,2.632 -0.117,1.745 -1.882,1.523 -2.706,1.109 -1.411,3.186 -1.647,3.324 -0.706,4.433 -1.764,1.247 -2.942,4.433 -3.999,0 -4.469,0.553 -3.411,1.248 -2.824,0.415 -4.588,0.693 -1.058,2.354 -0.353,4.017 -2.117,1.939 -2.588,0.278 -0.706,-2.356 -2,-0.968 -2.47,1.246 -4.588,1.939 -4.117,2.493 -0.588,3.878 1.765,0.416 2.117,-1.523 1.765,-2.356 2.117,-1.384 3.647,-0.831 1.646,0.553 -0.47,0.97 -2.823,3.324 -1.765,1.662 -2,1.386 -2.587,1.523 -1.412,0.554 -1.529,1.247 -3.646,1.524 -4.118,0.553 -2.587,1.524 -2.824,1.247 -2.94,0.97 -3.294,0.831 -1.294,1.8 -2.588,3.462 -3.411,1.247 -3.176,2.909 -2.706,1.523 -2.352,2.771 -1.059,2.493 -1.529,2.216 -1.294,1.246 -1.176,0.969 -0.471,-2.077 -1.646,-1.108 -35.642,-52.967 3.999,-1.801 1.177,-2.493 1.764,-1.801 4,-0.831 2.352,-1.939 2.117,-4.018 0.942,-3.878 2.588,-1.663 2.822,-0.415 3.765,-3.464 8.68,12.922 11.175,-7.203 -2.682,-5.719 2.353,0 0.941,-0.415 1.294,-1.8 1.059,-2.217 2.47,-0.278 1.881,1.247 2.942,1.386 3.411,0.831 2.47,1.524 2.941,0.831 2.823,-1.385 3.293,-0.97 3.177,0 3.764,-0.277 4.469,-0.277 9.293,-0.139 3.882,-0.138 1.882,0.554 1.412,1.386 1.999,0.831 1.765,1.246 3.411,1.939 2,1.109 2.353,0.138 3.999,-0.553 1.412,-1.525 1.646,-2.77 1.53,-1.662 -0.471,-2.217 -1.294,-2.355 -1.529,-1.663 -0.824,-1.801 0,-3.74 0.824,-1.385 1.529,-2.078 0.588,-3.187 0.118,-3.186 1.411,-1.662 z" />
  <path
     id="BM-SG"
     title="St. George's"
     d="m 709.542,36.732 -3.882,-1.386 -4.235,0 -3.999,0.554 -3.53,1.247 -1.999,1.387 -2.117,0 -2.47,1.108 -1.53,3.189 -2.705,1.802 -0.54,0.28 -4.843,-17.881 24.938,-7.764 z" />
</svg>
