<?xml version="1.0" encoding="UTF-8" standalone="no"?>
<svg
   xmlns:mapsvg="http://mapsvg.com"
   xmlns:dc="http://purl.org/dc/elements/1.1/"
   xmlns:cc="http://creativecommons.org/ns#"
   xmlns:rdf="http://www.w3.org/1999/02/22-rdf-syntax-ns#"
   xmlns:svg="http://www.w3.org/2000/svg"
   xmlns="http://www.w3.org/2000/svg"
   version="1.1"
   id="svg2"
   mapsvg:geoViewBox="-74.008595 5.275696 -34.789914 -33.743888"
   height="642.3609"
   width="612">
  <metadata
     id="metadata35">
    <rdf:RDF>
      <cc:Work
         rdf:about="">
        <dc:format>image/svg+xml</dc:format>
        <dc:type
           rdf:resource="http://purl.org/dc/dcmitype/StillImage" />
        <dc:title></dc:title>
      </cc:Work>
    </rdf:RDF>
  </metadata>
  <defs
     id="defs33" />
  <path
     style="fill:#000000;fill-opacity:1"
     id="BR-AC"
     title="Acre"
     d="m 30.47,239.19651 -2.08,-0.0402 0.54,-1.82087 -0.21,-0.83497 -0.25,-0.49294 -1.25,-0.70421 -0.14,-0.45268 0.27,-1.15691 -0.77,-1.9617 -1.09,-0.64384 -5.6,-1.2575 -7.34,-0.19114 0.27,-0.56335 2.49,-2.27357 0.89,-1.23738 0.29,-1.20719 -0.22,-1.23739 -0.68,-0.91545 -0.83,-0.44264 -1.68,-2.9677 -0.77,-0.44263 -0.9,-0.19116 -1.13,-1.13677 -0.92,-2.39429 -2,-1.53917 -0.98,-3.64171 -0.87,-1.64985 -1.88,-1.08647 -0.08,-1.17703 0.81,0.10061 0.42,-0.52313 0.07,-0.67402 -0.2,-0.42252 -2.12,-0.93557 -0.36,-0.66395 -2.17,-1.90135 0.04,-0.37222 0.62,-0.0504 0.5,-1.32791 -0.01,-1.31786 3.01,-0.39235 0.5,-0.39233 -0.22,-1.3581 -1.17,-1.57941 0,0 17.95,7.52486 23.66,5.69396 12.14,3.15885 26.44,14.25501 28.51,12.20276 0,0 2.97,1.26756 0,0 -0.3,0.48289 -1.57,0.66396 -2.09,1.59954 -2.86,2.80674 -1.65,0.86516 -0.66,-0.18109 -1.53,0.18109 -0.05,0.56336 -1.92,1.3078 -2.08,0.99593 -1.44,1.84099 -0.44,1.18707 -0.61,0.28168 -1.17,-0.7545 -0.76,-0.13078 -2.37,0.0504 -0.68,0.26155 -0.63,0.45269 -0.36,0.86518 -2.44,3.50087 -3.77,1.2575 -0.84,0.69415 -1.94,0.51305 -1.03,0.0302 0.08,-2.12265 -1.36,0.20119 -3.55,-0.77462 -5.24,-0.47282 -5.09,0.38228 -0.66,-0.58348 -2.27,-0.17103 -3.56,1.84099 -2.73,0.62373 -1.68,-0.67404 -1.4,-1.44864 -1.64,1.16698 0.04,-17.6553 0.05,-1.10661 0.47,-0.71424 0.07,-2.36411 -0.26,-0.88528 0.97,-1.18707 0.48,-1.14685 -1.16,0.2012 -2.97,2.60554 -1.6,1.01607 -2.06,2.39427 -1.95,0.67403 -0.65,1.08647 -1.81,0.99594 z" />
  <path
     style="fill:#000000;fill-opacity:1"
     id="BR-AL"
     title="Alagoas"
     d="m 561.91,231.6817 -0.2,-0.73438 -1.42,-0.78469 -0.45,0.0906 -1.02,-0.29175 -0.54,-1.4084 0,0 1.32,-1.07641 0.64,-1.09654 2.17,-0.76456 2.38,-3.30975 0.09,-0.69413 0.82,-0.60361 1,1.22733 1.67,0.3018 1.08,-0.12072 2.55,2.03212 1.9,2.13271 1.78,1.0563 1.91,0.48289 2.5,-0.65391 3.14,0.29173 1.17,-0.11065 1.86,-1.06636 1.16,0.0503 1.81,-1.11666 2.18,-2.30373 0.12,-0.4527 1.55,-1.24744 2,-0.24144 2.24,0.85511 2.56,-1.29775 1.47,-0.19114 1.92,0.81485 2.9,0.27163 0.27,0.21126 0,0 -2.78,4.98974 -4.55,5.16079 -3.58,3.60149 -3.04,4.60747 -3.33,2.89728 -1,2.04218 -1.32,1.80073 0,0 -0.6,-1.31785 -3.59,-2.24339 -0.46,-0.0301 -1.66,-0.79475 -1.76,-1.4587 -1.3,-2.46469 -5.42,-3.08842 -3.68,-0.9557 z" />
  <path
     style="fill:#000000;fill-opacity:1"
     id="BR-AM"
     title="Amazonas"
     d="m 165.82,47.573718 0.72,0.784679 0.75,0.34204 0.61,0.01006 1.13,-0.42252 0.63,0.110659 0.06,0.96576 1.21,1.177021 0.97,0.372219 0.88,-0.21126 1.36,0.11066 1.95,0.955701 0.49,0.663958 -0.91,3.339919 -0.71,1.508999 2.73,3.762438 1.66,4.788559 0.19,2.273559 0.87,1.126718 0.05,0.452701 -1.62,1.468759 0.36,1.599539 0.66,1.589479 -0.77,3.058239 -0.57,0.965759 0.29,5.009878 0.88,2.183019 1.22,0.845039 0.58,0.9054 1.13,4.355978 -0.06,0.58348 -1.14,1.327919 -1.84,-0.33198 -0.14,1.146839 5.01,4.446519 0.52,0.04024 1.96,1.317856 1.48,1.6599 1.04,2.05224 0.53,0.0704 1.34,-0.42252 2.36,1.04624 -0.44,-2.12266 0.75,-2.30375 0.25,-1.740366 -0.37,-1.8108 0.82,-2.987819 1.02,-1.267558 1.28,-0.69414 2.09,-0.714259 0.55,-0.89534 1.6,-0.06036 2.83,0.935579 1.87,2.052241 0.92,2.525058 1.82,0.231379 1.25,-0.46276 1.41,-1.418459 2.03,-0.553299 0.42,-0.392341 0.02,-0.53318 -1.14,-1.418459 -0.23,-0.734379 0.11,-0.66396 1.15,-2.655839 0.07,-1.13678 1.66,-3.048177 2.33,-3.279558 -0.03,-0.684082 18.49,0.07043 0,0 0.4,4.889158 -0.43,1.458699 0.18,2.283619 0.24,0.684079 1.7,0.855101 0.18,0.412459 -0.35,0.69414 -0.05,2.122659 1.83,2.001939 0.36,0.191141 0.7,-0.181081 1.84,1.23738 0.55,1.840979 0.04,0.93558 0.3,0.452699 4.64,3.792617 4.58,2.55524 0.63,0.90539 1.35,1.09655 1.88,0.67401 2.37,1.31786 2.26,0.65391 1.36,0.1509 1.32,0.82491 0.08,0.61366 1.27,1.34804 2.7,1.44864 1.1,2.18303 1.87,0.79473 0.85,-0.61367 1.38,-0.35209 0.19,0.48289 -0.13,0.78468 1.81,1.68 -29.9,64.62542 -0.78,1.31785 -1.45,1.13679 -0.58,0.97581 -0.03,1.13678 0.82,2.34399 0.38,0.57341 1.07,0.58348 1.58,1.56937 0.64,1.26756 0.15,1.97175 0.57,0.57342 0,0 -1.18,1.2072 -0.2,0.61365 -0.06,0.76458 0.34,0.84502 -0.27,1.01607 -1.2,1.83092 -0.86,0.64384 -0.42,0.85509 0.1,0.85511 0.66,1.37821 0.46,1.95164 -1.38,4.24532 -1.18,5.25133 -1.21,0.73437 -47.85,0.32192 0,0 0.04,-0.7042 -0.36,-0.38228 -1.39,-0.28167 -1.92,1.08648 -0.54,1.75043 -0.68,0.19115 -3.24,-1.48889 -0.68,-2.89728 -0.62,-0.2012 -0.98,0.13078 -0.46,-0.21125 -1.25,-3.28962 -2.54,-0.98588 -1.33,-1.27762 -0.8,-1.92146 -0.45,-0.49294 -2.15,-1.13679 -10.79,0.0603 -1.38,2.57537 -1.72,0.503 0.09,1.17703 -0.26,0.22131 -2.48,0.53318 -1.19,1.59954 -0.05,0.67401 0.9,0.7042 0.17,0.4527 -0.36,1.02611 -0.81,1.15691 -2.06,1.21726 -0.11,1.82086 0.24,1.46876 -3.87,-0.46275 -2.13,0.38227 -1.2,1.07641 -1.79,-0.10059 -0.84,-0.55329 -0.46,-0.02 -1.75,1.26756 -0.53,0.84504 0.26,1.76049 -2.54,3.17897 -0.68,0.0805 -0.68,-0.53318 -0.64,-2.27355 -0.38,-0.0906 -1.84,1.02612 -1.3,1.21726 -1.37,0.39234 -0.77,-0.13078 -1.08,0.503 -0.41,0.53318 -0.13,0.72432 -1.22,0.79474 -0.37,0.02 -2.31,-2.34397 -0.72,-0.37223 -2.87,0.33198 -3.96,-0.26155 0.16,1.29773 -0.15,0.56336 -1.55,1.82086 -1.92,0.58348 -3.26,2.57535 0,0 -28.51,-12.20276 -26.44,-14.25501 -12.14,-3.15884 -23.66,-5.69396 -17.95,-7.52487 0,0 -0.07,-0.65391 0.7,-2.93752 1.22,-1.40839 4.92,-3.49082 2.26,-0.24144 0.47,-0.3018 0.98,-1.56937 0.08,-1.03617 -1.74,-4.51695 0.38,-1.19712 1.18,-2.20315 1.28,-1.32791 0.92,-1.2575 0.42,-0.98588 0.3,-1.75045 -0.29,-1.32791 0.67,-2.05224 0.31,-2.32386 0.73,-0.7545 3.66,-1.63979 2.19,-1.23737 1.15,-1.04624 0.44,-1.40839 0.78,-0.37223 1.41,-0.11066 1.65,-0.93559 3.54,-2.74636 2.42,-0.43259 1.51,0.29174 4.19,-1.22732 1.5,-0.77463 1.82,-0.36215 3.33,0.38229 1.3,-1.59955 0.63,-1.4587 1.09,-0.61365 2.14,0.2012 0.64,0.54324 1.32,-0.24144 1.1,-0.74445 1.71,0.12072 0.31,0.53318 -0.02,1.18709 1.61,1.29773 2.83,0.0805 0.58,-0.4024 0.46,-0.78467 -0.11,-0.39235 1.17,-4.94951 6.7,-37.393 1.16,-2.93753 -0.99,-4.989747 0.12,-0.26156 -1.3,-1.056299 -1.48,-2.7665 -0.04,-0.492939 0.65,-1.398339 -0.52,-1.790679 -0.37,-0.402401 -1.7,-0.593539 -3.03,-2.364099 -1.94,-2.293679 0.2,-11.579055 3.89,-0.261558 1.75,-1.177021 3.5,-0.925519 2.68,1.770559 1.22,0.11066 1.27,-0.43258 -0.49,-1.700139 0.3,-1.730319 -1.37,-2.112599 -0.57,-0.54324 -1.15,-0.603599 -1.51,0.533179 -2.79,-0.61366 -3.57,0.09053 -0.06,-9.959397 0.96,0.04023 1.32,-0.58348 2.28,-0.6036 2.84,0.87522 19.03,0.06037 -0.46,-0.66396 -0.79,-0.14084 -0.38,-1.2072 0.95,-1.941578 1.43,0.402399 0.61,1.52912 0.87,1.32792 0.66,0.352099 0.83,0.01006 1.61,-0.613659 1.94,-2.10254 0.32,-0.845039 1.26,-1.247439 2.55,-1.39834 1.29,0.46276 1.17,2.595479 1.62,2.001938 0.74,1.3078 0.66,1.790679 0.23,1.5593 -0.49,3.651778 0.2,1.770559 3.2,-0.754499 8.31,7.102356 0.79,0.281681 2.5,0.211259 2.3,-1.006 1.7,-1.710199 2.11,-1.16696 2.19,-0.110659 0.56,0.291739 0.77,1.08648 -0.02,0.975819 -1.11,1.710199 0.37,0.98588 0.58,0.27162 1.33,-0.724319 0.56,-0.91546 0.23,-1.29774 1,-1.166959 0.47,-0.231379 1,0.181079 0.55,-0.181079 0.41,-0.663961 0.46,-2.323857 0.51,-0.372221 1.51,-0.362159 2.93,-1.78062 0.97,0.553299 0.93,-0.291739 1.6,-1.04624 1.02,-1.61966 2.11,-1.217259 2.03,0.553301 2.36,-1.6599 0.55,-0.824919 0.44,-2.675959 -0.03,-1.297739 0.77,-0.92552 1.03,-0.42252 1.74,-0.02012 1.34,-0.392339 2.06,-1.609599 0.96,-0.372221 2.28,-0.301799 z" />
  <path
     style="fill:#000000;fill-opacity:1"
     id="BR-AP"
     title="Amapá"
     d="m 344.98,100.29816 -0.94,-0.0604 -0.77,0.34203 -1.3,0.12073 -2.79,-0.68408 -1.45,-1.036176 -0.43,-1.508999 -1.87,-1.398339 -0.11,-1.3078 0.21,-0.694141 -0.31,-1.589477 -0.33,-0.472821 -0.95,-0.191141 -0.41,-0.945639 0.08,-2.444578 -2.93,-3.299678 -0.78,0.362159 -0.82,-0.19114 -1.5,-3.500879 0.13,-1.589478 -0.59,-1.82086 -0.62,-0.56336 -0.67,-1.519059 -0.19,-2.122658 0.43,-3.15884 -0.17,-0.331979 -2.57,-0.73438 -2.02,-2.273558 -0.76,-2.846979 0.19,-0.72432 0.68,-0.23138 -0.49,-1.18708 -0.68,0.03018 -2.84,-2.675958 -0.94,0.140838 -0.38,0.42252 -1.33,0.140841 -0.84,-0.27162 -0.8,-0.98588 -1.14,-0.845039 -1.19,-0.12072 -0.49,-1.28768 -0.67,-0.804799 -1.93,-1.056299 -1.29,-0.49294 -3.39,-0.37222 -1.08,0.29174 -1.17,-0.02012 -0.31,-0.543239 -0.24,-1.44864 0.25,-4.567238 0.62,-1.307799 -0.37,-2.313799 -0.62,-0.573418 0,0 0.35,-0.21126 0.99,0.301798 -0.01,0.81486 -0.29,0.18108 0.34,0.97582 1.47,-0.06036 0.82,0.231381 0.35,0.905398 0.84,0.71426 2.25,0.78468 3.29,0.754499 2.76,-1.790679 0.35,-0.76456 1.73,-1.177018 0.83,-0.291741 0.69,0.94564 2.71,0.94564 1.08,-0.120721 1.72,-1.016059 0.12,-0.42252 0.32,0.03018 1.46,1.307799 -0.2,0.87522 2.37,-0.171021 0.51,0.503001 0.95,0.171019 0.62,-0.01006 0.91,-0.482879 1.67,-1.509 1.78,-1.106599 1.75,-2.3138 0.37,-1.005999 -0.2,-0.54324 3.13,-6.538996 0.11,-1.83092 1.11,-1.307799 0.73,-0.19114 3.6,-5.824738 0.23,-1.156898 0.84,-1.2072 1.79,-1.559299 0.63,-1.669959 2.11,-1.146839 0.47,-0.925519 1.04,-0.583482 0.56,1.46876 0.88,1.36816 -1.67,-4.828799 -0.07,-1.297739 0.18,-0.331979 3.37,2.434518 1.14,1.21726 0.91,1.227319 0.52,1.197139 0.03,1.58948 0.44,0.31186 0.32,-0.482879 0.38,-0.100601 0.21,0.402401 0.21,7.937335 0.66,3.893218 2.71,6.086297 2.66,8.993636 3.32,5.029997 1.01,0.352101 3.27,-0.08048 2.78,0.94564 1.29,0.855098 0.77,2.665901 -0.16,3.349977 -1.29,0.96576 -1.73,0.43258 -0.38,0.331979 1.79,-0.1509 1.04,-0.422519 0.28,0.23138 0.12,0.593539 -0.17,0.73438 -5.03,4.084358 -1.17,2.112599 -2.15,1.418459 -1.94,3.742319 -2.91,3.520998 -0.7,0.462759 -0.94,-0.09053 -1.45,0.523119 -2.08,2.99788 0,0 -1.34,0.07043 -0.75,0.905401 0,0 -1.47,1.690079 -0.97,2.233319 -1.12,1.881219 -0.84,0.6539 -3.01,3.470699 -0.36,2.414399 0.17,1.810798 -1.95,1.820855 -0.98,0.12073 z m 23.36,-47.271924 -0.45,-0.33198 -1.1,-1.871159 0.07,-0.885281 0.23,-0.412459 1.66,-0.4527 0.43,0.39234 0.83,2.283619 -0.99,1.1066 -0.68,0.17102 z m 2.49,17.715651 -0.4,-0.251501 -0.08,-0.714259 1.11,-1.106599 0.88,-0.1509 1.25,0.24144 0.46,-0.11066 0.44,-0.64384 0.05,0.59354 -0.97,1.448639 -0.99,0.503 -1.75,0.19114 z m 3.44,-2.887219 -0.78,-0.231379 0,-0.56336 0.72,-1.04624 1.25,-0.100599 0.18,0.352099 -0.1,0.51306 -1.27,1.076419 z m -7.19,-18.530511 -0.76,-0.503 0.26,-0.83498 0.88,-0.171019 0.86,0.321919 0.01,0.73438 -1.25,0.4527 z" />
  <path
     style="fill:#000000;fill-opacity:1"
     id="BR-BA"
     title="Bahia"
     d="m 527.5,367.52181 -0.36,-0.83498 0.68,-1.3581 -0.01,-0.53318 -0.53,-1.04623 -4.13,-3.0683 -0.15,-0.51307 0.22,-1.51907 -0.57,-1.23736 -0.65,0.24144 -0.2,0.45269 -0.34,0.18109 -0.22,-0.25152 0.53,-4.42638 0.82,-3.3198 0.82,-0.88529 2.47,0.24144 1.02,-0.71425 0,-0.42252 -0.56,-1.02612 0.16,-2.6659 4.96,-4.24531 1.47,-3.09849 -0.42,-1.17702 -0.78,-1.02611 -0.89,-0.0604 -0.73,-0.38229 -2.83,-2.48482 -2.12,0.02 -2.19,-0.60358 -2.27,-1.0865 -2.73,-0.56335 -1.98,-0.14083 -1.32,0.99593 -1.47,0.50299 -2.61,-0.45269 -0.57,0.21126 -0.44,-3.98375 -6.52,-6.23721 -0.38,-0.18108 -4.39,1.23738 -1.53,-1.24745 -0.51,0.21127 -0.93,-0.22132 -2.54,-1.22732 -2.17,-1.62972 -0.98,0.18109 -4.35,-3.65178 -1.1,-0.54324 -2.73,-0.75451 -1.77,0.2515 -1.88,0.9054 -0.81,1.12672 -0.64,0.18108 -5.33,-1.47881 -0.61,-0.49295 -0.26,-1.50899 0.14,-0.89535 1.29,-2.75644 -0.86,-0.46276 -2.28,-0.52312 -2.18,-0.0402 -1.2,-0.503 -1.79,-0.0805 -3.83,1.58947 -4.26,3.04818 -0.64,1.11666 -3.37,1.88121 -2.02,0.40242 -0.95,1.18707 -1.81,1.5593 -1.43,0.52311 -1,-0.15089 -1.85,2.59548 -1.04,0.77461 -2.13,-0.38227 -0.72,0.13079 -0.69,1.00599 -1.34,0.92552 -0.4,-0.24144 1.43,-3.45058 -0.51,-2.42446 0,0 1.48,-1.98182 0.25,-0.77462 -0.23,-1.27763 -0.67,-1.7303 0.1,-0.67404 0.71,-1.42851 -0.05,-0.46276 -3.21,-2.63571 -1.69,-3.48077 -0.62,-3.5411 0.05,-1.55932 1.2,-3.85297 1.59,-1.03618 0.23,-0.38228 0.06,-0.94564 -1.63,-0.84504 -0.11,-0.33197 0.48,-2.53512 1.43,-1.06637 -0.02,-0.37222 -2.72,-2.47475 0,0 -0.04,-0.93558 1.36,-2.39428 -0.04,-1.07643 -0.17,-0.42251 -1.46,-0.49294 -0.94,-0.65391 -0.35,-1.26755 0.06,-2.93751 0.19,-0.85511 1.95,-1.68002 1.14,-0.42252 0.96,-0.72431 -0.29,-0.63378 -0.58,-0.52312 -0.92,-0.29174 -1.03,0.18108 -0.35,-0.33198 -0.09,-0.503 0.42,-0.96576 2.04,-0.82492 0.56,-0.4527 -0.04,-0.76456 -1.88,-0.98588 -3.58,-0.67403 -1.86,-1.97176 -0.23,-0.92551 0.5,-1.16696 1.01,-0.73437 1.52,-3.50089 0.9,-0.61366 1.01,-0.27162 0.35,-0.38228 -1.29,-1.81079 0.19,-0.37223 3.21,-2.63572 3.82,-2.03211 0.56,-0.47283 0.22,-0.98587 0.69,-0.65391 0,0 2.33,-0.02 1.44,1.34805 0.66,1.04623 0.53,2.22326 1.76,2.50494 4.18,1.87117 1.8,-0.52313 2.11,0.18109 0.33,-0.21127 0.75,-1.4587 1.14,-0.37222 0.67,-0.87522 1.17,-0.89534 2.21,-0.7545 1.33,0.17102 1.48,0.53318 1.35,-0.42251 2.97,-2.43452 2.95,-5.0803 0.72,-0.86517 0.24,-0.92551 0.3,-2.57536 -0.12,-1.16696 -2.24,-4.45658 0.05,-0.93558 3.24,-1.6599 1.95,-0.02 1.5,0.46275 0.41,0.93558 0.32,0.18108 2.12,-0.43258 1.39,-0.54323 1.33,0.38226 1.71,0.99595 -0.13,0.6539 0.19,0.29174 0.82,0.28169 3,-0.11067 1.47,-0.64384 1.7,-0.1006 0.82,-1.22731 1.51,-1.34804 2.73,-0.34204 0.77,-0.36217 0.81,-0.98587 2.17,0.0101 0.62,0.63379 0.31,0.0503 1.86,-1.82085 -0.1,-2.4144 1.99,-0.38229 0.79,0.18109 1.05,-0.66396 1.5,-2.32385 0.46,-1.15691 0,0 0.89,0.40239 1.16,-0.27161 2.2,0.29174 2.82,1.39835 0.44,0.51305 -0.06,2.74638 0.72,1.95164 2.21,0.91545 0.27,2.01201 -0.92,1.69007 1.83,0.62373 0.96,-0.22133 0.82,-0.92551 2.87,-0.88528 0.77,-3.60149 0.5,-0.87522 0.75,-0.16096 0.78,0.53319 0.63,0.0503 2.39,-1.02612 1.1,-1.24745 0.17,-0.59354 -0.25,-1.36815 0.29,-0.25151 2.24,-0.4527 0.77,-2.06229 1.65,-0.44264 2.53,-1.46876 0.59,-0.1006 1.49,0.56336 0.83,1.44864 1.36,0.81486 2.36,0.78468 2.99,0.40239 1.58,1.1569 0.54,1.65991 0.39,0.27162 0.43,-0.1509 0.29,-1.76051 0.43,-0.44263 1,-0.0101 0.45,0.32192 0.02,0.63378 -0.62,0.88527 0.45,0.83498 0.5,0.37223 2.1,0.86515 0.02,0.94565 1.22,3.06829 0,0 0.54,1.40841 1.02,0.29174 0.45,-0.0906 1.43,0.79474 0.2,0.72433 0,0 -0.67,1.16694 0.21,2.15285 1.28,2.515 1.99,1.9617 0.75,1.1569 -0.08,3.13872 -0.66,1.62972 -0.09,0.88528 0.76,2.76649 -0.3,0.58348 -0.69,0.55331 -2.55,1.00599 -1.13,-0.75451 -1.71,-0.0101 -0.32,0.3018 -0.59,1.58949 0.02,0.77462 0.95,1.6096 1.1,0.66396 0.52,1.49894 1.43,1.51905 0.15,0.39234 -0.13,1.42851 -0.34,0.39235 0.12,0.42251 0.59,0.52313 1.93,0.92551 0.48,0.71427 0.54,0.34204 1.55,0.64384 2.89,-0.88528 0,0 0.64,-0.0201 0.36,0.41246 -4.08,8.88297 -3.83,5.22114 -1.03,2.34398 -5.03,5.77444 -2.45,1.26756 -0.87,-0.0101 0.3,-1.43858 0.37,-0.1509 0.14,-1.10659 -0.45,-1.94159 -1.87,-0.2515 -0.43,-1.30781 -0.68,-0.7545 -0.37,0.6036 -0.46,2.34399 -0.5,0.87521 -0.55,0.38229 -0.56,-0.29173 -0.49,-1.75045 0.11,-0.32192 0.31,-0.13079 -0.03,-0.39233 -0.87,1.29773 0.93,1.70014 0.46,0.2314 0.37,-0.15091 1.15,0.26156 -0.46,1.82086 -1.21,1.15689 -0.25,1.83092 -1.25,0.97583 -0.35,0.67401 -0.2,0.84504 0.18,0.85511 -1.35,-0.39235 -0.21,0.39235 -0.36,2.53512 0.36,-0.72433 0.75,0.21126 0.24,0.54324 -0.23,0.41246 0.06,0.62371 0.3,0.30182 0.33,1.00598 -1.04,2.52508 0.57,3.46063 -0.55,0.49294 -0.57,-0.22133 -0.14,1.13679 0.59,0.46275 1.21,-1.73032 -0.47,-2.22325 0.82,-0.61366 0.25,0.54324 -0.06,1.77056 -0.96,2.62566 -0.74,5.46257 -0.51,1.82085 0.2,2.48483 0.78,2.86711 0.19,4.56722 0.87,6.44847 0.99,3.4405 -2.21,6.69996 -1.35,6.68991 -0.47,1.01606 -0.16,2.87715 -1.06,3.74232 -0.09,2.34398 0.39,4.44651 0.89,1.72027 -2.24,2.99788 -1.81,0.67402 -0.94,0.64384 -2.72,3.91333 -0.57,2.05224 0,0 -8.09,-5.17083 -0.31,-0.53318 z m 22.28,-78.46796 -0.23,-1.20721 0.74,-0.41245 1.06,-1.04624 0.16,-0.64383 -0.37,-0.73439 0.76,0.14084 0.82,1.0563 -0.05,0.53317 -2.89,2.31381 z m -2.53,6.89109 -0.63,-0.0302 0.01,-0.67402 0.26,-0.36216 -0.8,-0.22131 -0.42,-0.40241 0.13,-1.07641 1.87,-0.15091 0.16,0.20121 0.11,1.13678 -0.69,1.57941 z" />
  <path
     style="fill:#000000;fill-opacity:1"
     id="BR-CE"
     title="Ceará"
     d="m 573.79,157.79103 -4.89,1.59954 -2.61,2.02205 -3.3,6.73014 -0.84,1.12672 -0.87,0.57342 -0.65,1.68002 0.15,0.74444 -1.4,2.45464 -1.46,1.51907 -0.57,1.10659 -1.03,0.26156 -0.78,-0.51306 -0.51,0.0704 -0.84,0.88527 -1.41,2.26351 -0.34,1.98182 0.64,0.17102 0.66,-0.38228 0,0 -0.08,0.54325 -0.84,1.15688 -1.03,3.01801 0.52,1.31785 -0.66,1.31786 -1.09,0.63378 -0.17,0.38228 -0.12,0.93558 0.24,0.41246 0.58,0.29174 0.35,0.72432 -0.02,1.66995 1.24,0.89535 0.69,0.0805 0.34,1.19714 -1.61,3.51094 -1.19,1.12672 0.17,0.25149 0,0 -1.59,0.49295 -1.07,0.83498 -1.54,2.30373 -1.65,0.0503 -0.63,-1.64984 -0.78,-0.57342 -1.36,-0.48287 -1.01,-1.07642 -0.46,-0.99594 -1.83,-0.83498 -2.85,-1.9114 -3.08,-0.42251 -1.29,0.10059 -2.14,0.8048 -1.63,0.19114 -0.89,-0.24143 -4.93,-0.20121 0,0 0.06,-1.32792 -0.68,-0.68408 -0.08,-0.97583 1.14,-3.12865 1.5,-2.2635 0.01,-0.69413 -0.77,-1.16697 -2.56,-0.47281 -1.31,-0.65391 -1.01,-2.68601 -1.05,-5.23121 -0.76,-2.58541 0.24,-0.45271 -0.94,-8.20895 -0.11,-0.38228 -0.92,-0.69414 0.8,-0.58348 0.59,-1.58948 -0.6,-3.00794 -1,-2.02205 0.48,-1.6096 -0.79,-3.89322 0.74,-1.36815 0.02,-0.76457 -1.36,-1.59955 -0.44,-1.74037 -3.15,-6.45851 -1.8,-4.74833 -0.29,-1.29774 0.18,-1.46875 1.58,-1.98182 1.09,-1.8611 0.11,-0.8048 0,0 0.19,-0.14083 -0.04,-0.62374 -0.4,-0.66395 0.65,-0.81485 6.74,-0.22132 2.89,-0.43259 2.07,-0.66396 7.4,0.79475 2.12,1.12671 1.94,1.50901 4.12,2.19307 1.46,0.52313 4.82,3.018 1.21,0.20118 2.22,2.30374 2.99,2.12267 2.57,0.72432 2.44,2.92746 1.22,0.61365 2.96,3.83286 4.16,3.09848 1.46,2.012 1.04,0.99594 1.5,0.82492 1.15,0.0301 2.37,0.92552 0.79,0.67403 z" />
  <path
     style="fill:#000000;fill-opacity:1"
     id="BR-DF"
     title="Distrito Federal"
     d="m 416.71,335.87306 -14.69,-0.02 -0.52,-3.27956 0.92,-1.84099 0.38,-3.75237 11.95,0.0101 1.83,1.99188 0.06,2.22325 -0.59,1.19715 -0.21,2.45462 z" />
  <path
     style="fill:#000000;fill-opacity:1"
     id="BR-ES"
     title="Espírito Santo"
     d="m 501.63,413.83803 -0.29,-0.14084 0.44,-2.35404 0.57,-1.3078 -0.59,-3.13872 0.16,-0.42252 1.72,-2.07236 5.15,0.0302 0.55,-0.32192 0.97,-3.25945 1.11,-1.27761 0.88,-2.30374 0.24,-1.73031 0.26,-0.44265 1.24,-0.86515 1.71,-2.10254 0.54,-2.98783 -0.29,-2.44457 -1.27,-2.82686 -1.1,-1.27762 -0.52,-0.0906 -0.45,0.29174 -0.76,-0.28169 -0.49,-0.71424 0.43,-0.55331 1.48,-0.0906 0.8,0.35208 0.97,0.0302 0.95,-0.24144 0.32,-0.42253 -0.17,-1.73031 -1.31,-0.3521 -0.21,-0.41245 0.3,-1.54924 0.03,-1.93152 -0.52,-0.66396 -1.33,-0.67402 -0.3,-0.7042 1.17,-1.94158 2.17,-1.31786 0.31,-0.02 1.05,0.74443 1.13,0.11068 0.02,-0.81487 -1.67,-2.28362 1.34,0.13077 2.18,-0.29173 0.84,-0.61366 1.08,-0.32192 1.58,-0.0805 2.54,0.81484 0.91,0.55331 0,0 0,0 0,0 0.3,0.53318 8.1,5.17083 0,0 -0.93,3.3701 -0.31,2.87716 0.12,3.61154 0.72,6.1869 -0.31,2.48481 -1.49,3.19909 -2.75,1.39834 -0.55,0.6036 -1.67,3.34998 -0.98,3.82279 -0.77,1.47882 -0.83,-0.68407 -0.88,-0.13078 -0.29,1.28767 1.35,0.52311 -1.94,4.26545 -3.45,3.86303 -0.24,-0.27162 -1.86,0.66396 -0.8,1.23738 -0.06,1.39835 -0.42,1.25749 -1.59,2.03213 -0.29,1.13677 0,0 -1.62,-1.06636 -2.99,0.37222 -4.34,-1.01606 -2.5,-1.13678 -0.67,-4.73826 z" />
  <path
     style="fill:#000000;fill-opacity:1"
     id="BR-GO"
     title="Goiás"
     d="m 416.71,335.87306 -0.87,-1.01607 0.21,-2.45462 0.59,-1.19715 -0.06,-2.22325 -1.83,-1.99188 -11.95,-0.0101 -0.38,3.75237 -0.92,1.84099 0.52,3.27956 14.69,0.02 0,0 0,0 0,0 -0.53,1.52913 0.31,1.57941 -0.68,1.59953 -1.04,1.25751 -0.41,1.47882 0.85,1.21726 0.85,0.34204 1.42,1.03618 1.65,4.58735 0,0.60361 -2.32,2.72626 -3.24,3.02805 -0.43,2.15285 1.09,1.11664 0.9,-0.47281 1.58,0.57342 0.47,0.61366 0.18,1.006 -0.17,0.71426 -0.73,0.90539 -0.51,1.90134 1.19,3.48078 -3.09,2.07234 -1.16,0.2012 -0.86,0.9054 -0.48,1.12673 -4.89,2.75643 -0.7,-0.77461 -4.35,-1.87116 -0.55,0.48287 -0.58,0.0906 -1.75,0.0101 -1.48,-0.28167 -3.86,0.16095 -2.01,-0.89532 -4.13,2.65582 -2.91,2.93753 -0.33,0 -1.31,-1.42853 -1.52,-0.30179 -3.19,1.64983 -3.71,-0.62373 -2.48,0.96578 -2.23,0.54324 -1.41,2.11259 -1.21,2.47475 0.06,1.00601 -0.84,1.30781 -0.82,0.28166 -0.84,-0.16095 -0.45,0.14084 -0.94,0.74444 -1.64,2.1126 -0.57,1.9114 0.56,0.61365 -0.01,0.34205 -0.36,0.23138 -0.86,-0.46276 0,0 -0.24,-0.45271 -2.66,-2.25343 -3.15,-0.61366 -1.62,-1.5593 -1.9,-0.43258 -1.49,-0.0402 -3.35,-1.34804 -0.68,-0.8551 -3.07,-1.56936 -0.67,-0.61366 -1.44,-0.71426 -1.14,-0.17102 -2.7,-1.69007 -2.78,0.16097 -3.8,-0.70422 -0.13,-0.33197 0.26,-0.84505 0.57,-1.17702 1.31,-1.77056 -0.08,-0.42253 -2.25,-0.90539 -1.14,0.67403 -0.66,-0.19115 -0.28,-0.41246 -0.23,-1.11665 0.26,-2.59548 -0.19,-1.78062 0,0 -0.95,-2.2132 -0.18,-3.45058 -1.41,-2.20314 -0.16,-0.71425 0.4,-3.43048 2.55,-3.87309 0.38,-2.92745 0.7,-0.77462 2.02,-0.84504 1.92,-1.78062 1.25,-2.03211 0.33,-1.9617 0.5,-1.01607 1.28,-1.04624 0.82,-1.43857 0.08,-1.54924 1.75,-0.97583 1.4,-2.63572 2.65,-0.13077 2.72,-0.86517 0.32,-0.28168 1.98,-4.21514 0.71,-0.96575 0.64,-4.12461 0.38,-0.74443 1.92,-1.95164 1.65,-1.01605 1.07,-0.26158 1.23,0.68409 1.21,-0.73439 1.39,-1.43857 0.84,-2.94758 1.17,-2.88722 -0.01,-0.8048 -0.48,-1.14684 0.58,-2.75644 1.6,-3.10853 -0.12,-5.21109 1.21,-0.78467 1.03,-2.64578 2,-3.18901 0.39,-1.07642 -0.16,-2.73632 0.35,-0.90541 0.97,-0.86515 0.27,-1.13679 -0.08,-0.63377 0,0 0.34,-0.45269 0.2,-1.89128 0.66,-1.23739 1.81,-2.10254 0.56,-0.3018 -0.03,1.72026 -1.22,1.89128 -0.52,2.35404 2.4,0.4024 2.2,1.03617 3.93,0.4024 3.09,1.72027 4.07,1.43857 0.63,-0.23138 1.63,-5.97563 1.47,-2.40434 1.18,-0.97582 1.15,1.31785 1.04,1.89129 1.11,3.73225 0.61,3.11861 1.14,0.0503 0.75,-0.75449 0.3,-1.00599 0.56,-0.54325 2.76,0.34205 4.53,-0.53318 0.22,0.74443 -0.56,1.56937 3.13,1.47881 3.35,0.68408 0.69,-0.0805 0.51,-3.31982 0.55,0.0302 1.51,2.63571 0.46,0.24144 1.78,-0.9054 2.52,-2.09247 4.53,-1.00601 1.55,0 2.56,-1.10659 1.74,-1.34803 5.36,-1.42854 0,0 2.72,2.47477 0.02,0.38228 -1.43,1.06636 -0.48,2.53512 0.1,0.33197 1.63,0.84505 -0.06,0.94563 -0.23,0.38228 -1.59,1.03618 -1.19,3.85298 -0.05,1.5593 0.62,3.54112 1.7,3.48075 3.21,2.63574 0.05,0.4728 -0.72,1.42853 -0.1,0.67402 0.67,1.73032 0.23,1.28768 -0.25,0.77461 -1.48,1.98182 0,0 -1,1.01606 -3.23,-0.34204 -0.9,-1.77056 -2.42,-1.48887 -1.17,1.49893 0.58,3.79262 -0.57,0.54323 -0.4,0.13078 -2.78,-1.14683 -1.17,0.23138 -0.37,0.28168 -0.72,3.19907 0.72,0.10061 0.49,1.16696 -0.57,0.94563 -0.73,0.70421 0.04,1.9114 0.42,0.61366 0.53,0.19114 0.69,4.28555 -0.53,0.53319 -3.36,0.90539 -2.29,1.51907 z" />
  <path
     style="fill:#000000;fill-opacity:1"
     id="BR-MA"
     title="Maranhão"
     d="m 458.57,129.69347 -0.04,0.33197 -2.04,2.16289 -0.43,0.17103 -0.04,1.44864 1.97,-1.71019 0.68,-1.21728 2.12,-1.58947 0.89,-1.14684 1.03,-6.36798 1.15,-0.70419 1.11,-0.12073 1.67,-0.92552 0.65,-0.13077 0.46,0.12071 0.08,1.63978 -0.2,0.4527 -1.42,1.88122 -3.21,1.7605 -0.03,0.72433 0.73,0.12071 0.45,-0.81486 1.15,-0.31186 0.22,0.83498 -0.59,0.51306 0.25,0.30181 4.21,-4.99983 0.86,0.33198 2.58,-0.93557 4.04,0.43257 -0.46,-2.42445 0.61,-0.23139 2.42,0.0805 1.78,0.38228 2.63,1.0563 1.04,0.11067 2.15,1.38827 1.4,0.0301 1.26,1.30781 1.89,1.32792 2.5,0.58347 1.16,-0.19114 0.56,0.76457 0.34,0.0503 1.59,-0.0906 2.46,0.66397 0.26,-0.9054 -0.67,-0.47282 1.67,-0.38228 0.57,0.11066 -0.09,0.42252 0,0 -0.46,1.43859 0.23,0.7243 0.63,0.54326 -0.38,1.53916 -1.79,2.28362 -4.13,3.99383 -3.32,0.46276 -0.8,-0.16097 -2.92,3.42041 0.04,1.81079 -0.88,1.84099 -1.89,1.86109 -0.82,1.99188 -0.64,0.17102 -0.77,1.0563 0.36,1.93153 1.23,0.83497 0.38,1.28768 -0.28,1.46875 -1.14,2.88722 1.58,2.82687 0.55,2.99788 -0.11,2.44457 -0.21,0.55331 -4.1,4.4465 -0.17,2.4949 0.12,2.12265 0.51,2.31379 1.78,2.05225 1.61,0.91544 0.17,0.50301 0.13,0.84504 -0.39,2.2132 -0.29,0.44264 -0.12,1.21727 -0.5,1.46876 -1.21,1.31785 -2.29,0.29175 -0.65,-0.28169 -0.83,0.0402 -2.43,0.86517 -1.52,0.11065 -2.5,-1.83092 -1.01,-0.21126 -1.46,0.19115 -1.01,0.6036 -1.12,0.26154 -0.23,-0.30179 -0.84,0.24145 -0.5,0.22131 -1.9,1.92146 0.01,0.46276 -0.63,0.87522 -2.01,2.012 -2.34,0.91546 -2.87,2.57535 -1.33,0.53318 -1.05,0.0402 -1.7,1.53917 -1.08,0.36216 -2.61,0.32192 -2.72,0.76455 -2.13,1.96171 -0.98,2.98781 -0.39,2.98782 -0.63,2.33392 -1.45,2.75644 -0.3,0.22132 -0.34,0.82493 -0.13,1.5291 -1.2,2.49489 -1.7,1.40839 -0.73,2.01201 0.71,1.95163 0.47,3.19909 1.73,3.07835 -0.04,0.52312 -0.76,1.40841 -0.13,6.39815 -1.15,2.46469 -0.26,1.06636 -0.05,1.93154 0,0 -1.28,-0.66397 -0.61,-0.82492 -0.82,-0.4527 -0.99,-0.29174 -1.78,0.20119 -0.71,-0.18106 -1.35,-2.01201 -0.99,-2.87716 -2.13,-1.62973 -0.14,-1.65988 1.64,-1.82087 -0.08,-0.53318 -3.88,-1.96169 -0.62,-1.05631 -0.06,-1.66995 -0.75,-1.59954 -0.94,-0.69414 -2.08,-0.28168 -0.2,-0.42253 0.26,-0.71425 2.63,-2.55524 -0.37,-1.31786 0.73,-2.69609 0.69,-1.43857 0.57,-0.55329 1.34,-0.54325 3.39,-0.3521 -0.39,-1.3581 0.64,-3.2695 -0.08,-1.77055 -1.8,-1.21727 -4.27,0.94565 -2.15,1.34803 -2.27,-3.03812 -0.91,-0.85509 -3,-4.17491 -0.88,0.0704 -0.84,-1.44864 0.61,-1.19715 -0.11,-0.88527 -0.25,-0.34204 -1.37,-0.24145 -0.42,0.27162 -1.93,-1.33797 0.18,-0.71426 1.76,-0.66396 1.75,-2.05224 0.25,-1.59955 -0.28,-1.00598 0.31,-2.37417 1.77,-6.19696 0.01,-0.43257 -0.68,-1.14684 -0.23,-1.08649 0.21,-3.74232 -0.64,-1.50899 -0.47,-3.51093 -0.84,-1.03619 -3.4,-1.44864 -1.22,-0.02 -0.28,-0.32192 -0.08,-1.03618 -0.59,-0.69414 -1.74,-0.29174 -0.96,0.52313 -1.4,-0.0905 -2.78,-1.51905 -0.86,-0.0604 -1.96,0.53318 -2.62,1.8611 -0.53,0.64384 0,0 -0.49,-0.0805 14.71,-11.90099 2.35,0.23139 1.17,-0.92551 1.55,-2.18303 0.43,-1.1569 1.55,-1.17701 0.62,-2.89728 1.12,-0.46278 2.44,-2.33391 0.47,-1.21725 0.29,-1.91141 1.6,-4.71814 1.96,-1.54923 1.48,-1.77056 0.83,-1.4587 0.46,-1.28769 -0.18,-1.83091 0.79,-0.81486 -1.04,-1.58948 3.68,-3.10855 -0.13,-1.64981 0.5,-2.39429 1.74,-1.57942 0.36,-0.71427 0.9,-3.03811 0.08,-1.61967 -0.43,-0.53318 -0.99,0.16096 -0.27,-0.49293 0.05,-0.62373 1.14,-0.15089 0.57,-0.74444 0.71,-4.41633 -0.16,-1.38829 0.47,-1.03618 0.77,-0.4527 0,0 0.63,0 0.24,-0.24144 -0.06,-0.54324 0.34,-0.754497 0.58,-0.53318 1.34,0.985877 0.45,1.85104 1.19,0.12072 0.77,-1.36816 0.61,2.94758 0.99,0.0402 0.29,-0.49295 0.07,-0.94563 0.85,-0.0402 1.69,0.53317 0.5,0.69415 -1.43,1.71019 0.67,0.7042 0.02,0.5533 1.21,-2.05224 0.49,-1.54923 0.45,0 0.4,1.02611 0,0.58348 -0.87,0.92553 -0.27,0.99593 0.08,2.72626 0.26,0.33197 0.47,0.12074 0.58,-0.14086 0.96,-0.93558 -0.47,-1.00598 0.14,-0.60362 1.32,-1.43858 1.05,-0.25149 2.13,0.59353 1.5,-1.11665 0.05,0.92552 -0.36,0.21126 -1.13,1.53917 0.59,0.58349 0.1,-0.37223 1.25,-0.60358 0.58,0.79473 -0.14,1.21726 1.63,1.7605 0.86,-0.44265 1.58,0.67404 0.77,2.41439 -0.11,0.9557 -2.19,2.74637 -0.38,0.89535 0.1,0.66396 0.6,-1.03619 1.75,-1.69007 0.83,-0.0302 0.87,0.81486 0.52,1.90134 -0.27,1.23736 -0.97,0.19115 -1.03,0.91546 -1.16,1.49894 0.07,0.77462 -1.16,2.36409 -0.62,3.54113 0.21,0.34203 0.87,0.2314 z m 0.52,0.45269 -0.06,-0.79474 0.53,-1.53918 -0.41,-1.07643 0.13,-0.66395 0.91,-1.24744 0.55,-0.19114 0.05,2.3641 -0.22,1.34805 -0.8,0.60358 -0.68,1.19715 z m -6.3,-25.91454 -0.44,-0.46276 -0.08,-0.60361 0.8,-1.12671 0.84,-0.0301 0.68,0.42252 0.1,0.34204 -0.19,0.36216 -1.71,1.09655 z m 3.5,4.20507 -0.29,-0.30179 0.06,-0.53319 1.06,-0.89535 0.48,0.0704 0.5,0.8551 -0.14,0.61366 -0.4,-0.17102 -1.27,0.36216 z m -14.16,-4.83886 -0.21,-0.0504 0.95,-3.601476 0.3,0.09055 0.03,0.23139 -0.41,3.07835 -0.66,0.2515 z" />
  <path
     style="fill:#000000;fill-opacity:1"
     id="BR-MG"
     title="Minas Gerais"
     d="m 527.5,367.52181 -0.91,-0.55331 -2.54,-0.81484 -1.58,0.0805 -1.08,0.32192 -0.84,0.61366 -2.18,0.29173 -1.34,-0.13077 1.67,2.28362 -0.02,0.81487 -1.13,-0.11067 -1.05,-0.74444 -0.31,0.02 -2.17,1.31786 -1.17,1.94158 0.3,0.7042 1.33,0.67402 0.52,0.66396 -0.03,1.93152 -0.3,1.54924 0.21,0.41245 1.31,0.3521 0.17,1.73031 -0.32,0.42253 -0.95,0.24144 -0.97,-0.0301 -0.8,-0.35208 -1.48,0.0906 -0.43,0.55331 0.49,0.71424 0.76,0.28169 0.45,-0.29174 0.52,0.0906 1.1,1.27762 1.27,2.82686 0.29,2.44457 -0.54,2.98783 -1.71,2.10254 -1.24,0.86515 -0.26,0.44265 -0.24,1.73031 -0.88,2.30375 -1.11,1.2776 -0.97,3.25945 -0.55,0.32192 -5.15,-0.0302 -1.72,2.07236 -0.16,0.42252 0.59,3.13872 -0.57,1.3078 -0.44,2.35404 0.29,0.14084 0,0 -2.53,2.36409 -1.24,0.27163 -0.56,0.503 0.74,0.7042 -2.36,6.08629 -1.9,3.73226 -0.09,0.7545 1.44,0.13078 0.29,0.61366 -0.21,0.52312 -2.53,0.98588 -9.51,4.55717 -1.37,0.2012 0.02,-0.46275 -0.49,-0.17102 -2.53,-0.27162 -0.57,0.0605 -1.62,0.94565 -1.25,0.16096 -3.2,0.0805 -0.36,-0.32192 -0.51,0.0805 -4.1,1.79067 -1.05,0.77463 -1.71,0.77462 -0.5,-0.28169 -2.59,0.17102 -2.91,1.34804 -2.42,0.74444 -0.68,0.49295 0,0 -1.25,0.73438 -2.2,0.22131 -1.93,1.02613 -1.23,1.24743 -1.79,0.67402 -2.38,0.25151 -2.34,-0.0805 -0.01,-0.49295 0.35,-0.49294 -0.09,-0.3521 -1.19,0.33198 -0.18,2.31381 0.24,0.23136 -0.05,0.84505 -0.75,0.98589 -1.3,0.32192 -0.57,-0.43259 -3.61,1.00599 -0.19,-0.53318 -2.01,0.24145 -1.12,-0.25151 -2.03,-3.32985 1.22,-0.71425 -0.52,-1.72027 -1.8,-0.83498 -1.79,-1.23739 -0.71,-1.61965 0.53,-1.56936 0.19,-3.47069 -0.26,-2.95764 1.86,-2.73631 0.7,-2.19309 0.05,-1.27763 -0.23,-0.37221 -3.7,-1.32792 -1,0.0504 -0.28,0.36214 -0.78,0.31188 -1.61,0.0503 0.03,-0.8551 -0.83,-2.00195 -1.3,-1.80075 -0.37,-2.22325 -0.31,-0.62372 -0.79,-0.74443 0.19,-1.95165 1.52,-2.04217 0.06,-0.56337 -0.4,-1.55929 -1.88,-1.21726 -0.58,-0.61366 0.29,-2.38423 0.57,-1.01604 -0.2,-1.04625 -3.27,-3.37009 -1.3,0.29174 -0.85,0.64384 -1.65,-0.78469 -2.38,0.11066 -0.31,0.61366 0.2,0.46276 -0.44,0.99595 -2.78,0.68407 -1.11,-0.43259 -1.51,-1.45869 -1.01,1.25751 -8.18,0.68407 -0.46,0.48287 -0.48,1.19715 0.27,2.55524 -0.41,0.44263 -1.19,-0.52311 -0.01,-2.79668 -0.25,-0.96575 -0.36,-0.39235 -0.56,-0.0503 -0.26,0.19114 -0.41,1.13678 -0.67,0.94564 -0.54,0.32192 -0.62,-0.02 -1.21,-2.11259 -0.33,-1.42853 0.14,-0.91547 -1.68,-0.79473 -2.18,-1.42852 -1.99,0.59355 -1.62,-0.22132 -1.67,0.3521 -4.29,-0.96576 -2.55,-0.0805 -1.73,-1.55929 -0.75,-0.14085 -1.5,0.61366 -1.43,1.70014 -1.92,0.37222 -2.15,1.11666 -1.22,1.13678 0,0 0.31,-2.63572 -0.59,-3.22925 0.99,-4.20509 0.58,-0.25149 0,0 0.86,0.46276 0.36,-0.23138 0.01,-0.34205 -0.56,-0.61365 0.57,-1.9114 1.64,-2.1126 0.94,-0.74444 0.45,-0.14084 0.84,0.16095 0.82,-0.28166 0.84,-1.30781 -0.06,-1.00601 1.21,-2.47474 1.41,-2.1126 2.23,-0.54325 2.48,-0.96577 3.71,0.62373 3.19,-1.64983 1.52,0.30179 1.31,1.42853 0.33,0 2.91,-2.93753 4.13,-2.65582 2.01,0.89532 3.86,-0.16095 1.48,0.28167 1.75,-0.0101 0.58,-0.0906 0.55,-0.48287 4.35,1.87116 0.7,0.77461 4.89,-2.75642 0.48,-1.12674 0.86,-0.9054 1.16,-0.2012 3.09,-2.07234 -1.19,-3.48078 0.51,-1.90134 0.73,-0.90539 0.17,-0.71426 -0.18,-1.006 -0.47,-0.61366 -1.58,-0.57342 -0.9,0.47281 -1.09,-1.11664 0.43,-2.15285 3.24,-3.02805 2.32,-2.72626 0,-0.60361 -1.65,-4.58735 -1.42,-1.03618 -0.85,-0.34204 -0.85,-1.21726 0.41,-1.47882 1.04,-1.25751 0.68,-1.59952 -0.31,-1.57942 0.53,-1.52913 1.27,-0.12071 2.29,-1.51907 3.36,-0.90539 0.53,-0.53319 -0.69,-4.28555 -0.53,-0.19114 -0.42,-0.61366 -0.04,-1.9114 0.73,-0.70421 0.57,-0.94563 -0.49,-1.16696 -0.72,-0.10061 0.72,-3.19907 0.37,-0.28168 1.17,-0.23138 2.78,1.14683 0.4,-0.13078 0.57,-0.54323 -0.58,-3.79262 1.17,-1.49893 2.42,1.48887 0.9,1.77056 3.23,0.34204 1,-1.01606 0,0 0.51,2.42446 -1.43,3.46064 0.4,0.23138 1.34,-0.91546 0.7,-1.006 0.72,-0.13078 2.13,0.38228 1.04,-0.77463 1.85,-2.5854 0.99,0.15089 1.43,-0.53318 1.81,-1.5593 0.95,-1.17702 2.02,-0.41245 3.37,-1.87117 0.64,-1.11666 4.27,-3.04817 3.82,-1.58949 1.8,0.0906 1.2,0.50301 2.18,0.0301 2.28,0.53318 0.85,0.46276 -1.29,2.75643 -0.15,0.89534 0.26,1.49895 0.61,0.50299 5.33,1.46877 0.64,-0.17102 0.81,-1.12673 1.88,-0.89534 1.77,-0.26155 2.73,0.75449 1.1,0.54325 4.35,3.66183 0.98,-0.18108 2.17,1.62972 2.53,1.22732 0.93,0.22132 0.51,-0.21127 1.53,1.24744 4.39,-1.23737 0.38,0.18108 6.52,6.23719 0.44,3.98376 0.57,-0.21126 2.61,0.45271 1.47,-0.503 1.32,-0.99595 1.99,0.1509 2.73,0.56337 2.26,1.08648 2.19,0.61365 2.12,-0.0302 2.83,2.48483 0.73,0.38227 0.89,0.0704 0.78,1.02611 0.42,1.17702 -1.47,3.09849 -4.96,4.24531 -0.15,2.6659 0.56,1.02612 0,0.42252 -1.02,0.71425 -2.48,-0.24144 -0.82,0.8853 -0.82,3.31979 -0.53,4.42638 0.22,0.25152 0.35,-0.19115 0.2,-0.45269 0.64,-0.24146 0.58,1.2374 -0.22,1.51906 0.15,0.51306 4.14,3.07836 0.53,1.04623 0.01,0.53318 -0.68,1.3581 z" />
  <path
     style="fill:#000000;fill-opacity:1"
     id="BR-MS"
     title="Mato Grosso do Sul"
     d="m 358.95,402.20867 -0.4,2.47476 -0.28,0.4024 -1.5,0.78468 -1.32,0.0402 -0.47,0.22131 -1.22,1.03619 -1.99,2.69607 -0.73,0.65391 -1.01,0.30179 -0.62,1.69009 -0.16,2.94758 -2.59,3.66182 -0.96,0.52313 -0.23,0.38229 0.31,1.94157 -0.08,0.95571 -1.21,2.35404 -2,2.27355 0.35,0.8551 -0.28,1.21726 -1.44,1.03617 -0.4,1.21727 -1.73,1.70014 -1.26,2.45464 -1.95,1.88122 -7.56,4.55717 -1.26,1.14685 -0.74,1.54923 -0.84,1.08647 0,0 -5.41,2.28363 -1.11,0.82492 -0.93,2.34397 0.02,1.1569 -1.45,3.58136 -0.67,0.68408 -1.66,1.01607 -1.11,0.32192 -0.33,0.3521 -1.57,7.96751 -0.36,0.82492 -2.38,1.56936 0,0 -2.55,-2.34397 -3.41,-1.90134 -3.99,1.98181 -0.68,0.7545 -1.66,0.49293 -2.58,0.43259 -2.36,-0.46276 -1.01,-0.65389 -0.47,-4.29562 -0.32,-0.70421 -0.9,-0.9557 -0.23,-2.48482 0.51,-1.34804 -0.64,-0.79473 -0.09,-0.44263 0,-2.88723 -0.89,-1.98183 -0.6,-2.75644 -0.05,-0.72431 0.59,-1.36816 0.02,-1.61965 -1.57,-1.09655 -0.38,-0.80481 -0.16,-2.17294 -1.65,-1.83092 -2.17,-0.26156 -1.51,0.31186 -1.83,-0.29174 -2.46,-1.97177 -0.56,-1.49893 -1.54,0.33198 -2.17,2.75643 -1,-0.6036 -1.72,0.81486 -1.08,0.16096 -1.74,-0.69414 -2.56,-0.49293 -3.46,0.23138 -3.66,-0.71426 -0.48,-0.91546 -1.99,-0.13078 -0.89,0.52312 -2.5,-0.88529 0.91,-7.31361 -0.43,-2.39428 0.6,-1.42852 0.98,-1.46876 0.6,-6.06618 -0.66,-2.34397 -0.05,-1.74038 -0.76,-0.96576 -0.43,-0.0905 -0.49,0.65389 -0.64,-3.27954 -0.79,-1.88124 -1.21,-2.03211 -0.35,-1.84098 4.03,-2.3138 0.76,-0.88527 -4.2,-3.88316 5.38,-11.48852 1.12,-0.0604 -0.28,-2.14277 -0.74,-0.13079 3.23,-10.39197 0.66,-1.16697 -3.09,-5.88509 0.03,-1.92146 0,0 0.7,0.2012 1.02,1.10659 2.15,1.52914 5.62,-1.98184 2.05,-2.01199 2.02,-2.96771 0.09,-1.17701 1.4,-1.4587 2.59,0.0302 1.56,-0.22134 0.77,0.34205 1.66,-0.51306 1.35,-1.2575 2.02,-0.49293 1.27,0.20119 0.76,1.1569 2.79,1.2575 2.62,0.47283 0.65,0.35209 0.27,0.86516 0.78,1.02612 3.03,1.16696 1.26,1.11666 1.24,0.57342 4.52,-0.63378 1.26,-0.80479 0.49,-0.85512 1.43,-0.61365 2.44,0.0704 1.59,1.04623 0.3,1.37821 0.24,0.25152 0.99,0.0402 2.13,-0.88528 1.01,0.0604 5.62,-6.04604 1.34,-0.1308 -1.23,6.64967 -1.8,0.7042 -1.66,2.84699 -0.19,0.46275 0.15,0.53317 1.3,0.11067 1.74,1.27761 4.62,0.27162 0.57,-0.5734 2.66,-0.0805 0.87,0.0805 1.17,0.5734 1.55,-0.31185 0,0 0.19,1.78062 -0.26,2.59548 0.23,1.11665 0.28,0.41246 0.66,0.19115 1.14,-0.67403 2.25,0.90539 0.08,0.42253 -1.31,1.77056 -0.57,1.17702 -0.26,0.84505 0.13,0.33197 3.8,0.70422 2.78,-0.16097 2.7,1.69007 1.14,0.17102 1.44,0.71426 0.67,0.61366 3.07,1.56936 0.68,0.8551 3.35,1.34804 1.49,0.0402 1.9,0.43258 1.62,1.5593 3.15,0.61366 2.66,2.25343 0.24,0.45271 0,0 -0.58,0.25149 -0.99,4.20509 0.59,3.22925 z" />
  <path
     style="fill:#000000;fill-opacity:1"
     id="BR-MT"
     title="Mato Grosso"
     d="m 206.96,297.82617 1.47,-1.43859 4.11,-2.58541 0.52,-2.4647 1.43,-3.80268 0.93,-1.08649 1.64,-0.53318 0.43,-0.41245 0.58,-0.84505 0.52,-2.2635 1.66,-2.02205 0.56,-2.25344 0.07,-1.72027 -0.58,-1.49894 0.04,-2.0623 -1.53,-3.36004 -0.9,0.0302 -0.58,-0.51307 -0.43,-3.26949 0.14,-1.32793 1.36,-1.08647 1.4,-1.7605 0.17,-0.75449 -1.41,-3.61155 -1.07,-0.43257 -1.11,-0.11067 -3.5,0.0906 -1.22,-1.11666 0.24,-0.56335 -17.16,-0.0504 0.9,-9.054 -1.5,-2.7665 -0.27,-1.77055 0.03,-0.8048 1,-3.54113 -0.38,-1.94156 0.94,-1.68002 -0.83,-2.28363 -0.15,-1.39834 -0.26,-0.61365 -0.78,-0.47282 -0.06,-0.3521 1.29,-5.01994 0.76,-1.42853 -0.6,-1.24743 -1.4,-0.97582 0,0 47.85,-0.32192 1.21,-0.73437 1.18,-5.25133 1.38,-4.24532 -0.46,-1.95164 -0.66,-1.37822 -0.1,-0.8551 0.42,-0.85509 0.86,-0.64384 1.2,-1.83092 0.27,-1.01607 -0.34,-0.84503 0.06,-0.76457 0.2,-0.61365 1.18,-1.2072 0,0 1.17,1.08647 2.45,4.08435 0.4,1.77057 1.37,3.98376 1.32,1.94158 0.77,1.62971 -0.23,2.45465 0.48,2.4144 0.73,2.2132 1.53,1.11666 3,2.7665 3.38,1.71019 0.23,0.94565 -0.04,1.10659 0.23,0.49294 0.95,0.4024 0.82,-0.17102 1.63,0.4527 0.54,0.72432 0.2,1.08648 0.35,0.32193 1.37,-0.45271 3.69,1.49895 34.04,2.43452 62.97,3.50087 0,0 -0.65,1.02611 -0.56,1.90134 -1.1,1.2575 -0.44,3.15884 -0.43,0.85509 -0.37,0.27164 -1.94,5.32174 -0.54,2.98781 -0.04,2.9677 -1.88,6.02594 0.06,0.86515 1.39,1.34804 -0.16,0.87523 -0.82,0.89533 -0.05,0.503 1.1,2.26351 -0.47,3.32985 0.01,1.57942 0.52,0.58349 0.44,3.06829 -0.74,2.77656 0.98,3.36004 0.96,0.51306 0.8,0.02 0,0 0.08,0.63377 -0.27,1.13679 -0.97,0.86515 -0.35,0.90541 0.16,2.73632 -0.39,1.07642 -2,3.18901 -1.03,2.64578 -1.21,0.78467 0.12,5.21109 -1.6,3.10853 -0.58,2.75644 0.48,1.14684 0.01,0.8048 -1.17,2.88722 -0.84,2.94758 -1.39,1.43857 -1.21,0.73439 -1.23,-0.68409 -1.07,0.26158 -1.65,1.01605 -1.92,1.95164 -0.38,0.74443 -0.64,4.12461 -0.71,0.96575 -1.98,4.21514 -0.32,0.28168 -2.72,0.86517 -2.65,0.13077 -1.4,2.63572 -1.75,0.97583 -0.08,1.54924 -0.82,1.43857 -1.28,1.04624 -0.5,1.01607 -0.33,1.9617 -1.25,2.03211 -1.92,1.78062 -2.02,0.84504 -0.7,0.77462 -0.38,2.92745 -2.55,3.87309 -0.4,3.43048 0.16,0.71425 1.41,2.20314 0.18,3.45058 0.95,2.2132 0,0 -1.55,0.31185 -1.17,-0.5734 -0.87,-0.0805 -2.66,0.0805 -0.57,0.5734 -4.62,-0.27161 -1.74,-1.27762 -1.3,-0.11067 -0.15,-0.53317 0.19,-0.46275 1.66,-2.84699 1.8,-0.7042 1.23,-6.64967 -1.34,0.1308 -5.62,6.04605 -1.01,-0.0604 -2.13,0.88528 -0.99,-0.0402 -0.24,-0.25152 -0.3,-1.37821 -1.59,-1.04623 -2.44,-0.0704 -1.43,0.61365 -0.49,0.85512 -1.26,0.80479 -4.52,0.63378 -1.24,-0.57343 -1.26,-1.11665 -3.03,-1.16696 -0.78,-1.02612 -0.27,-0.86516 -0.65,-0.35209 -2.62,-0.47283 -2.79,-1.2575 -0.76,-1.1569 -1.27,-0.20119 -2.02,0.49293 -1.35,1.2575 -1.66,0.51306 -0.77,-0.34205 -1.56,0.22134 -2.59,-0.0301 -1.4,1.4587 -0.09,1.17701 -2.02,2.96771 -2.05,2.01199 -5.62,1.98184 -2.15,-1.52914 -1.02,-1.10659 -0.7,-0.2012 0,0 -0.66,-0.67402 -0.32,-0.8048 0.54,-0.71427 -2.44,-2.16288 -1.28,0.63377 -0.52,-0.0504 -1.17,-0.68407 -0.45,-0.70421 -2.02,-1.41846 -1.89,-0.76455 -0.3,-0.32192 -0.3,-1.12672 -0.23,-2.94759 -0.61,-1.78061 -0.19,-3.68196 0.88,-1.64984 1.14,-1.09655 0.34,-1.79067 -0.05,-1.90134 -0.96,0.0604 -0.4,0.60359 -0.38,0.16095 -26.86,-1.08646 -1.05,-12.7259 -5.37,-6.16679 4.88,-0.0604 -0.35,-7.59531 -2.64,-5.35191 -0.49,-1.98182 0.26,-1.06636 0.61,-0.5533 0.65,-1.28768 -1.44,-2.94757 -3.11,-1.04625 z" />
  <path
     style="fill:#000000;fill-opacity:1"
     id="BR-PA"
     title="Pará"
     d="m 371.03,236.65133 -62.97,-3.50087 -34.04,-2.43452 -3.69,-1.49895 -1.37,0.45271 -0.35,-0.31187 -0.2,-1.09654 -0.55,-0.72432 -1.63,-0.4527 -0.82,0.17102 -0.95,-0.39233 -0.23,-0.50301 0.04,-1.1066 -0.23,-0.94564 -3.38,-1.71019 -3,-2.77656 -1.54,-1.11666 -0.72,-2.2132 -0.48,-2.40434 0.23,-2.45465 -0.77,-1.63977 -1.33,-1.94158 -1.37,-3.9737 -0.39,-1.77057 -2.45,-4.08435 -1.18,-1.08647 0,0 -0.57,-0.56336 -0.15,-1.97176 -0.64,-1.26755 -1.59,-1.56937 -1.07,-0.58349 -0.37,-0.5734 -0.83,-2.35405 0.03,-1.13678 0.58,-0.97581 1.45,-1.13679 0.78,-1.31785 29.9,-64.62542 -1.81,-1.68001 0.13,-0.78468 -0.19,-0.48288 -1.39,0.35208 -0.85,0.61367 -1.87,-0.78467 -1.1,-2.18303 -2.69,-1.45869 -1.27,-1.34804 -0.08,-0.6036 -1.32,-0.82492 -1.37,-0.1509 -2.25,-0.65389 -2.38,-1.31787 -1.88,-0.67402 -1.35,-1.09655 -0.63,-0.90539 -4.58,-2.55524 -4.64,-3.792616 -0.3,-0.44264 -0.04,-0.935581 -0.55,-1.840978 -1.84,-1.237379 -0.7,0.19114 -0.36,-0.201201 -1.83,-1.991877 0.05,-2.12266 0.35,-0.69414 -0.18,-0.412459 -1.69,-0.8551 -0.24,-0.68408 -0.18,-2.283619 0.43,-1.458699 -0.4,-4.889158 0,0 -1.59,-17.071812 0,0 0.75,0.321921 0.43,0.583479 -0.02,0.482878 0.45,0.402401 0.92,0.281681 1.37,-0.714261 0.47,-0.81486 2.71,0.231381 0.81,-1.0563 -0.54,-1.820859 1.79,-0.362159 1.41,-1.639781 2.64,1.01606 1.88,0.03018 0.54,-1.529119 3.33,-1.629719 1.97,0.39234 1.16,-0.11066 0.49,-0.251499 1.2,-1.48888 0.4,-1.4084 1.46,-1.106599 0.86,-0.11066 0.65,0.46276 2.11,-1.136779 0.41,0.110659 0.37,0.99594 0.73,0.452699 2.03,0.482881 1.61,0.2515 0.56,-0.6036 1.67,-0.39234 0.78,0.28168 0.82,-0.01006 0.86,-0.34204 2.24,0.3018 4.67,1.388279 0.96,-0.14084 1,-0.87522 -0.03,-2.293679 -2.07,-2.514998 -1.24,-0.63378 0.49,-1.690079 1.31,-1.4587 0.28,-1.116659 0.31,-0.17102 0.71,0.19114 0.83,0.76456 2.35,1.116659 11.62,-2.343978 1.57,1.700138 1.02,0.06037 0.44,-0.29174 0,0 0.62,0.573419 0.37,2.313799 -0.62,1.307799 -0.25,4.567239 0.24,1.448639 0.31,0.543239 1.17,0.02012 1.08,-0.29174 3.39,0.37222 1.29,0.49294 1.93,1.056299 0.67,0.804801 0.49,1.287678 1.19,0.120721 1.14,0.84504 0.8,0.985878 0.84,0.271621 1.33,-0.14084 0.38,-0.422521 0.94,-0.14084 2.84,2.67596 0.68,-0.03018 0.49,1.187079 -0.68,0.23138 -0.19,0.724319 0.76,2.84698 2.02,2.273558 2.57,0.73438 0.17,0.331979 -0.43,3.15884 0.19,2.122658 0.67,1.519059 0.62,0.563361 0.59,1.820859 -0.13,1.589478 1.5,3.500878 0.82,0.191142 0.78,-0.362161 2.93,3.299679 -0.08,2.444578 0.41,0.94564 0.95,0.191141 0.33,0.472818 0.31,1.58948 -0.21,0.694139 0.11,1.3078 1.87,1.398339 0.43,1.509001 1.45,1.036166 2.79,0.68408 1.3,-0.12072 0.77,-0.34203 0.94,0.0604 0,0 -0.53,0.74443 0.29,1.59955 -0.17,0.53319 -1.29,1.11664 -1.39,0.17102 -0.5,-0.18107 -0.84,-0.79474 -0.66,-0.1509 -3.38,1.58947 -0.37,0.54325 -1.6,0.72432 -0.63,-0.02 -1.55,0.59354 0.04,0.58348 6.46,-1.06636 0.88,0.66397 0.13,0.46275 0,0.66396 -0.62,0.50301 0.3,0.36215 0.63,-0.20119 0.86,-1.00601 1.02,-0.0101 0.53,-0.27162 0.6,0.12073 1.07,-0.42252 1.14,-0.57343 3.28,-2.35403 1.5,-0.35211 1.84,-0.81486 3.16,-1.85103 0.54,-1.00601 0.67,-0.523108 2.09,-1.016059 0.66,-0.72432 -0.25,-0.67402 0.21,-0.41246 1.13,-0.281678 1.09,0.06036 0.41,0.21126 0.38,3.822805 -0.52,2.59547 0.33,1.62972 0.81,1.6096 1.31,1.3581 0.3,1.64983 -0.12,0.47283 -1.84,1.85103 -0.47,0.13078 -0.87,-0.52311 -1.82,-0.52313 -1.26,-0.31186 -0.93,0.14085 -2.13,-1.04623 -0.26,-1.12674 -0.88,-0.53318 -2.28,3.84293 -0.61,2.38421 0.68,2.98782 0.48,0.64384 0.92,0.62372 -1.01,-1.14683 -0.43,-2.70615 0.12,-0.52312 2.57,-4.24532 2.31,1.18708 0.11,0.4527 2.53,2.46471 -0.25,2.03211 -0.74,0.55331 0.4,2.34397 0.52,1.13678 1.12,0.7545 0.74,0.15089 0.52,0.49295 -0.34,-0.64384 -0.77,-0.24143 -1.2,-1.04625 -0.22,-0.68408 0.34,-4.22519 0.82,-1.19715 1.43,0.73439 0.83,1.20719 -0.09,0.79474 1.2,0.86517 0.25,-0.29174 -1,-1.26757 -0.92,-2.1126 0,-0.44263 2.26,-2.33392 1.62,0.0906 1.93,0.64384 0.34,0.56336 -0.61,0.59353 0.32,0.28169 0.48,0.0302 1.03,-0.171 1.33,-0.90541 4.09,-0.96576 0.77,0.2012 1.74,1.06635 3.17,-0.42251 1.07,-0.41246 1.02,-1.01606 0.98,-0.59353 1.74,-0.51307 0.77,0.0704 0.06,0.75451 -2.04,4.04411 -0.24,1.50901 -0.46,1.07641 -0.83,1.03619 -0.01,0.88527 0.58,1.42852 -0.32,2.48482 0.88,-1.19714 0.01,-1.40839 1.54,-3.018 1.13,-3.20915 1.12,-1.56936 0.27,-0.27162 0.76,-0.0503 0.58,-0.35209 1.82,-0.23138 0.88,-1.3581 1.51,-1.70014 1.36,-2.27356 0.52,-0.46276 0.79,0.49294 0.62,-0.46276 1.62,2.35404 1.19,0.59354 -0.05,-0.74444 -0.35,-0.75451 0.62,-1.01605 3.51,-0.51306 -1.03,-0.32192 -3.51,0.46275 -0.31,-0.21126 0.29,-2.44456 0.51,-0.29176 0.67,0.38229 1.02,0.11065 1.07,-3.118586 -0.68,-1.398339 0.03,-0.68408 1.17,-1.82086 2.84,-2.494879 0.36,-0.08048 1.11,1.146839 2.93,-2.10254 0.46,-0.07043 0.4,0.452698 0.1,0.573421 -0.32,0.674018 1.07,-0.160959 0.81,-0.583479 0.36,-0.784681 0.63,-0.191139 0.28,0.1509 0.74,1.398339 1.33,1.2072 0.2,-0.56336 -0.11,-0.38228 -0.96,-0.492939 -0.14,-0.29174 -0.13,-1.2072 0.17,-0.42252 0.44,-0.191139 2.28,0.261559 1.18,0.653899 0.62,1.02612 1.63,0.71426 1.65,-0.784678 0.53,2.152838 -0.5,0.311859 -0.03,0.593539 0.92,-0.523119 1.16,-2.364099 0.38,0.23138 -0.23,1.33798 0.41,0.442639 2.51,-0.26156 0.45,0.653901 0.46,1.690079 -0.6,0.955699 0.85,-0.503 0.26,0.372219 1.89,0.140841 3.53,-1.24744 -0.31,1.58948 -0.75,1.840979 1.47,-0.49295 0.59,-0.623709 0.63,1.629719 0,0 -0.77,0.4527 -0.47,1.03618 0.16,1.38829 -0.71,4.41633 -0.57,0.74444 -1.14,0.15089 -0.05,0.62374 0.27,0.49292 0.99,-0.16096 0.43,0.53318 -0.08,1.61967 -0.9,3.03812 -0.36,0.71427 -1.74,1.57941 -0.5,2.39429 0.13,1.64981 -3.68,3.10855 1.04,1.58948 -0.79,0.81486 0.18,1.83091 -0.46,1.28769 -0.83,1.4587 -1.48,1.77056 -1.96,1.54923 -1.6,4.71814 -0.29,1.91141 -0.47,1.21725 -2.44,2.33392 -1.12,0.46277 -0.62,2.89728 -1.55,1.17701 -0.43,1.1569 -1.55,2.18303 -1.17,0.92551 -2.35,-0.23138 -14.71,11.90098 0.49,0.0805 0,0 2.29,0.81484 1.87,-0.24143 1.29,0.12072 1.02,1.66995 0.39,0.31187 0.87,0.14084 1.26,1.17702 -0.04,0.63378 -0.37,0.67402 -0.72,0.37222 -0.97,0.0704 -0.29,0.28168 0.09,1.41846 1.01,1.34803 -0.92,2.76651 -0.64,0.48287 -1.46,0.46277 -0.25,0.46275 0.29,1.20721 -0.19,1.34803 -1.3,0.1509 -1.51,1.34805 -0.85,1.27761 0.15,1.51906 -0.24,0.50301 -2.5,1.2072 -3.41,1.14683 -2.47,1.79068 -0.19,0.3521 0.43,2.20314 0.06,2.68602 -1.28,2.1126 -1.41,1.69008 -0.15,0.57342 0.17,0.88527 0.59,0.96576 1.67,1.75044 0.75,0.32192 0.15,0.30181 -0.66,4.06424 -1.76,5.18089 -1.08,0.81486 -1.7,3.25944 -0.18,0.99594 -0.94,1.54924 -0.74,0.8551 -1.05,0.16096 -1.37,0.92551 -1.03,1.93152 -1.21,1.69009 -1.18,1.09654 -1.15,1.58947 -1.13,4.48676 -1.6,3.68196 z m 21.16,-131.09179 -4.52,1.97174 -3.39,0.52313 -2.02,-0.31186 -0.65,1.13678 -1.84,1.19713 -0.72,-0.61365 -0.61,-1.53918 -0.23,0.28168 0.42,1.23737 -0.34,0.81486 -0.71,0.41247 -3.77,-1.64984 -0.8,0.72431 -4.19,1.26757 -3.2,-0.57342 -0.81,-0.61366 -0.24,-1.8611 -0.23,-0.41247 -1.11,-1.02611 -1.06,-1.6096 -0.21,-1.79068 0.52,-2.76651 0.62,-0.382267 1.76,0.362147 0.93,-0.754486 0.08,-0.56336 -1.3,0.43258 -1.22,-0.13078 -0.94,-0.71426 -0.18,-1.056299 0.34,-5.110478 0.73,-0.76456 0.35,0.7545 1.76,0.603599 0.55,-0.06037 -0.46,-0.42252 -1.27,-0.221321 -0.9,-2.172958 0.36,-1.690079 0.89,-1.981819 1.33,-1.337979 0.96,-0.573421 1.34,-0.49294 1.32,-0.13078 3.46,0.523121 7.21,1.780619 3.7,-0.462761 0.11,-0.301799 1.14,-0.62372 2.16,-0.372219 2.89,0.291739 2.8,0.82492 6.48,0.8551 0.63,0.47282 -0.05,1.237378 -0.7,0.744441 -0.68,1.508998 -0.36,2.665899 -0.86,3.319799 -1.29,0.684079 -0.35,0.694141 0.23,1.19714 -1.98,2.595476 -1.39,3.52101 -0.49,0.45269 z m -47.21,-0.17102 -0.75,-0.51307 1.1,-2.2635 -0.09,-1.80074 0.25,-0.21125 2.33,-0.48289 0.9,-0.865157 0.15,-0.502999 -0.2,-2.354039 0.86,-2.595479 1.26,-1.498939 2.29,-1.478819 2.87,-0.2012 0.72,2.374159 -1.1,2.203138 -0.85,3.05824 -1.1,0.674018 -1.34,2.042177 -0.78,0.72432 -4.94,3.32986 -1.58,0.36217 z m 28.48,-23.037398 -1.03,-0.251501 -2.45,0.08048 -0.79,-0.16096 -0.29,-0.261559 -0.38,-1.09654 0.01,-1.247439 1.51,-0.422519 1.89,0.04024 2.19,-1.29774 4.81,-0.603599 0.77,0.261561 0.68,0.684078 -0.18,1.02612 -2.56,1.39834 -1.78,2.494878 -1.1,0.503001 -1.3,-1.14684 z m 4.79,0 1.86,-1.2072 1.98,0.03018 1.65,0.623719 0.53,0.99594 0.05,0.62372 -0.88,0.77462 -2.85,0.28168 -1.17,0.321919 -2.26,-0.895338 -0.2,-0.533181 1.29,-1.01606 z m -16.98,4.416338 -0.5,-0.26156 -0.61,0.04023 -1.54,-0.69414 0.21,-1.166959 0.64,-0.925519 1.92,-0.4024 2.36,-0.905399 1.32,0.08048 0.8,0.68408 0.09,0.13078 -1.93,1.619659 -1.07,0.342039 -1.69,1.458701 z m 9.42,-9.748137 -0.82,-0.301799 -0.17,-1.66996 0.15,-0.603599 1.17,-1.317859 2.45,-0.92552 0.25,0.12072 0.53,0.684079 0.04,0.89534 -1.95,2.00194 -1.65,1.116658 z m -13.83,20.341311 -0.14,-0.41246 0.19,-0.935579 1.04,-2.826858 2.59,-1.70014 0.72,-0.281679 0.69,0.140839 -0.16,1.800739 -1.56,0.44264 -1.62,2.20314 -1.75,1.569358 z m 10.91,-17.675412 -1.19,-0.311859 -0.3,-0.48288 0.88,-0.965759 0.71,-3.973698 0.89,-1.23738 0.29,0.13078 0.07,0.32192 -0.02,2.494878 0.6,1.881219 -0.32,0.885281 -1.03,0.402399 -0.58,0.855099 z m -14.81,10.251136 -0.27,-0.19114 0.12,-0.61366 0.55,-0.36216 1.19,-1.720259 0.76,-1.549238 0.73,-0.663961 1.45,-0.54324 -0.2,1.498939 -0.4,1.006 -1.72,1.66996 -2.21,1.468759 z m 13.87,-7.072177 -0.6,-0.150899 -0.84,-0.714259 -0.96,-1.64984 -0.05,-0.382279 0.23,-0.291741 0.81,-0.583481 1.85,0.845041 0.29,0.432579 0.24,2.102539 -0.97,0.39234 z m -5.38,30.743339 -0.65,-0.11066 -0.88,-0.52311 -0.69,0.46275 -0.75,-0.28167 -1.68,-1.75044 0,-0.61366 1.28,-0.0101 3.06,1.32792 0.31,1.49893 z m -21.15,-5.57323 0.04,-1.03618 -0.2,-0.3018 0.6,-0.99593 2.36,-0.88529 0.78,0.38228 0.87,0.86516 -0.29,0.3521 -1.03,0.47282 -2.54,0.41247 -0.59,0.73437 z m 12.7,-6.73014 -0.18,-0.0302 0.01,-0.35209 0.54,-0.945637 1.79,-1.629719 0.42,-1.247439 0.05,-1.3078 0.24,-0.301799 0.32,0.442639 0,1.519059 -0.89,2.746376 -0.62,0.65389 -1.68,0.45271 z m 6.3,-9.959393 1.65,-2.977759 0.88,-0.21126 0.71,0.19114 0.27,0.875221 -0.58,0.714259 -2.93,1.408399 z m 31.42,19.083813 -0.84,-0.35211 -0.34,-1.06635 1.04,-1.73031 1.07,-0.33199 0.19,0.10059 -0.02,0.74446 -0.74,2.25343 -0.36,0.38228 z m -33.48,-19.586814 -0.54,-0.201199 0.32,-2.052239 1.33,-1.820858 0.23,0.04023 1.29,0.88528 -0.01,0.2515 -1.55,0.643839 -1.07,2.253438 z m 2.23,5.060179 0.72,0.03018 -0.4,0.4527 -0.94,0.31186 -0.11,1.12672 -0.79,0.714259 -1.69,0.845039 -0.16,-0.18108 0.27,-0.834979 0.47,-0.63378 1.73,-1.680019 0.9,-0.1509 z m -22.56,10.271255 -0.55,-0.19115 -0.07,-0.35209 0.43,-0.4024 3.56,-1.60959 0.54,0.70418 -0.01,0.20121 -1.4,0.73438 -2.5,0.91546 z m 63.53,-4.80868 -1.03,-0.19114 -0.82,-0.79474 0.87,-1.257497 1.34,-0.01006 0.19,1.197147 -0.1,0.59353 -0.45,0.46277 z m -37.25,-19.013388 -2.36,0.704199 -0.59,0.01006 -0.18,-0.21126 1.03,-1.04624 1.04,-0.513059 1.04,0.17102 0.44,0.342039 0.15,0.231381 -0.15,0.211261 -0.42,0.100599 z m -5.27,8.641536 -0.08,-0.76456 0.25,-0.503 2.48,-1.468759 -0.9,2.011999 -0.81,0.63378 -0.94,0.09053 z m 2.14,4.557178 -0.45,-0.120721 -0.07,-0.23138 0.78,-1.508999 1.19,0.02012 -0.12,1.358099 -1.33,0.48288 z m 28.04,15.924984 -0.28,-0.23139 0.9,-1.6096 0.68,-0.4024 0.23,0.7545 0.51,0.37222 -0.26,0.52312 -0.43,0.34203 -0.63,-0.18107 -0.72,0.43259 z m -26.66,-23.459921 -0.89,-0.07043 0.02,-0.19114 2.36,-1.85104 0.04,0.96576 -0.23,0.63378 -0.25,0.342039 -1.05,0.171021 z m 67.46,10.281315 -0.38,-0.53318 0.19,-0.764559 1.02,-0.915461 0.25,0.150901 0.23,1.760499 -1.31,0.3018 z" />
  <path
     style="fill:#000000;fill-opacity:1"
     id="BR-PB"
     title="Paraíba"
     d="m 610.43,200.34481 -2.5,-2.07236 -0.82,-0.26157 -2.65,-0.21125 -2.31,1.07642 -1.48,1.28767 -0.45,1.81081 -1.9,1.03617 -2.01,0.4527 -1.14,-0.02 0,0.60361 -0.8,0.53318 -2.18,0.29173 -3.88,-0.26156 -1.61,0.88529 -0.55,0.64383 -1.82,0.10061 -0.89,0.69415 -0.54,0.76455 0.39,0.73438 0.01,0.54323 -0.4,0.48289 -1.78,1.53917 -1.34,0.16097 -1.65,0.84503 -1.6,-0.79474 -0.95,-0.94564 -0.35,-2.25343 0.24,-0.49295 -0.18,-0.3018 -1.14,-0.32192 -0.44,0.29174 -1.51,0.25149 0.04,-0.45269 2.53,-2.65583 0.17,-0.43258 -0.72,-1.88122 -0.04,-0.47283 0.37,-0.78467 3,-1.07643 0.11,-0.30179 -0.5,-1.39834 -3.5,-1.93152 -1.48,0.41246 -2.22,1.26756 -0.93,1.51906 -1.48,0.87522 -1.05,0.31186 -2.7,1.89127 -1.52,1.64984 -1.63,0.2314 -2.63,0.9758 -0.77,-0.33197 0.05,-0.68409 -0.63,-1.24744 -0.38,-0.0805 -0.93,0.73439 -1.51,0.32192 -0.99,-0.33198 -1.4,-1.92146 -0.4,-0.0906 0,0 -0.17,-0.25149 1.19,-1.12672 1.61,-3.51094 -0.34,-1.19714 -0.69,-0.0805 -1.24,-0.89535 0.02,-1.66995 -0.35,-0.72432 -0.58,-0.29174 -0.24,-0.41246 0.12,-0.93558 0.17,-0.38228 1.09,-0.63378 0.66,-1.31786 -0.52,-1.31785 1.03,-3.01801 0.84,-1.15688 0.08,-0.54325 0,0 0.57,-0.46276 1.93,1.64984 0.9,0.42251 2.88,0.61366 1.16,-1.13678 3.23,-1.66996 0.82,-0.71425 0.1,-1.04624 0.41,-0.9557 3.18,-1.21727 1.43,-0.12071 3.26,-1.04624 0.64,0.0805 0.53,0.44263 0.01,1.19715 -2.99,3.22927 -0.44,0.96575 -0.38,1.75043 -0.41,0.38228 -0.85,0.2515 -0.21,0.31186 -0.08,1.73032 3.53,0.52313 0.32,0.23137 0.31,1.38828 0.29,0.23138 3.15,-1.26755 1.77,-0.0805 1.95,0.30181 0.89,1.17701 -0.52,1.54924 0.83,0.74445 2.35,-0.93558 0.5,-0.74445 0.55,-1.21725 -0.47,-0.94565 -0.16,-1.42852 0.48,-0.59354 1.01,0.32192 -0.53,-1.53918 -0.72,-0.78467 0.31,-1.48889 1.82,-1.35809 1.38,-0.0503 0.42,0.39235 -0.1,1.00599 0.62,0.49294 3.42,0.40241 0.53,0.35209 5.83,-0.39233 2.17,0.30179 2.46,1.1066 1.04,-0.4024 3.5,0.21126 0.93,-0.24144 0,0 0.09,2.4144 1.45,4.41634 0.06,0.64384 -0.18,0.94563 -0.37,0.45271 -0.03,0.88528 0.58,-0.74444 0.51,-1.509 0.01,1.99188 0.59,1.01605 -0.27,5.21109 -0.36,0.6036 z" />
  <path
     style="fill:#000000;fill-opacity:1"
     id="BR-PE"
     title="Pernambuco"
     d="m 558.28,228.55303 -1.22,-3.05823 -0.01,-0.94565 -2.11,-0.86516 -0.5,-0.37221 -0.45,-0.83498 0.61,-0.89535 -0.02,-0.62372 -0.45,-0.32191 -1,0.0101 -0.43,0.44265 -0.29,1.75043 -0.43,0.15091 -0.39,-0.26157 -0.54,-1.6599 -1.58,-1.1569 -2.99,-0.40239 -2.36,-0.77462 -1.35,-0.81487 -0.83,-1.44863 -1.49,-0.56337 -0.59,0.11067 -2.53,1.46876 -1.65,0.44265 -0.77,2.06229 -2.23,0.4527 -0.29,0.25149 0.25,1.36816 -0.17,0.59355 -1.1,1.24743 -2.39,1.03618 -0.64,-0.0604 -0.77,-0.53318 -0.76,0.17101 -0.5,0.87523 -0.77,3.59141 -2.87,0.88527 -0.82,0.92553 -0.96,0.23139 -1.84,-0.62372 0.92,-1.69009 -0.26,-2.012 -2.21,-0.91544 -0.72,-1.95165 0.06,-2.74638 -0.44,-0.51306 -2.81,-1.38827 -2.2,-0.29175 -1.16,0.26156 -0.9,-0.4024 0,0 2.62,-1.27762 1.97,-1.72027 0.54,-0.87521 2.29,-1.33798 0.97,-0.28168 3.89,-3.89322 0.74,-1.77056 0.06,-2.28361 -0.29,-0.54324 -1.62,-1.58949 0.07,-2.20313 -0.6,-1.13678 -0.06,-0.9557 0.11,-0.45269 0.52,-0.332 1.79,-0.16095 0,0 4.93,0.20121 0.89,0.24143 1.63,-0.19114 2.14,-0.8048 1.29,-0.10059 3.08,0.42251 2.85,1.9114 1.83,0.83498 0.46,0.99594 1.01,1.07642 1.36,0.48287 0.78,0.57342 0.63,1.64984 1.65,-0.0504 1.54,-2.30373 1.07,-0.83498 1.59,-0.49295 0,0 0.4,0.0906 1.4,1.92146 0.99,0.33198 1.51,-0.32192 0.93,-0.73439 0.38,0.0805 0.63,1.24744 -0.05,0.68409 0.77,0.33197 2.63,-0.9758 1.63,-0.2314 1.52,-1.64984 2.7,-1.89127 1.05,-0.31186 1.48,-0.87522 0.93,-1.51906 2.22,-1.26756 1.48,-0.41245 3.5,1.93151 0.5,1.39834 -0.11,0.30179 -3,1.07643 -0.37,0.78467 0.04,0.47283 0.72,1.88122 -0.17,0.43258 -2.53,2.65583 -0.04,0.45269 1.51,-0.25149 0.44,-0.29174 1.14,0.32192 0.18,0.3018 -0.24,0.49295 0.35,2.25343 0.95,0.94564 1.6,0.79474 1.65,-0.84503 1.34,-0.16097 1.78,-1.53917 0.4,-0.48289 -0.01,-0.54323 -0.39,-0.73438 0.54,-0.76455 0.89,-0.69415 1.82,-0.10061 0.55,-0.64383 1.61,-0.88529 3.88,0.26156 2.18,-0.29173 0.8,-0.53318 0,-0.60361 1.14,0.02 2.01,-0.4527 1.9,-1.03617 0.45,-1.81081 1.48,-1.28767 2.31,-1.07642 2.65,0.21125 0.82,0.26157 2.5,2.07236 0,0 0.88,0.23138 0.55,1.22733 -1.27,1.7303 -0.11,0.5533 0.01,0.48288 0.7,0.37223 0.27,0.50299 0.19,1.06637 -1.96,6.41827 -3.25,9.0037 0,0 -0.27,-0.21126 -2.9,-0.27163 -1.92,-0.81485 -1.47,0.19114 -2.56,1.29774 -2.24,-0.8551 -2,0.24144 -1.55,1.24744 -0.12,0.4527 -2.18,2.30373 -1.81,1.11666 -1.16,-0.0503 -1.86,1.06636 -1.17,0.11065 -3.14,-0.29173 -2.5,0.65391 -1.91,-0.48289 -1.78,-1.0563 -1.9,-2.13271 -2.55,-2.03212 -1.08,0.12072 -1.67,-0.3018 -1,-1.22733 -0.82,0.60361 -0.09,0.69413 -2.38,3.30975 -2.17,0.76456 -0.64,1.09654 z" />
  <path
     style="fill:#000000;fill-opacity:1"
     id="BR-PI"
     title="Piauí"
     d="m 505.7,127.67139 1.31,0.12073 0.69,-0.23139 2.24,0.51307 0.99,0.85509 0.32,0.60361 0,0 -0.11,0.8048 -1.09,1.8611 -1.58,1.98182 -0.18,1.46875 0.29,1.29774 1.8,4.74833 3.15,6.45851 0.44,1.74037 1.36,1.59955 -0.02,0.76457 -0.74,1.36815 0.79,3.89322 -0.48,1.6096 1,2.02205 0.6,3.00794 -0.59,1.58948 -0.8,0.58348 0.92,0.69414 0.11,0.38228 0.94,8.20895 -0.24,0.45271 0.76,2.58541 1.05,5.23121 1.01,2.68601 1.31,0.65391 2.56,0.47281 0.77,1.16697 -0.01,0.69413 -1.5,2.26349 -1.14,3.12866 0.08,0.97583 0.68,0.68408 -0.06,1.32792 0,0 -1.79,0.16095 -0.52,0.332 -0.11,0.45269 0.06,0.9557 0.6,1.13678 -0.07,2.20313 1.62,1.58949 0.29,0.54324 -0.06,2.28361 -0.74,1.77056 -3.89,3.89322 -0.97,0.28168 -2.29,1.33798 -0.54,0.87521 -1.97,1.72027 -2.62,1.27762 0,0 -0.45,1.16696 -1.5,2.3138 -1.05,0.67402 -0.79,-0.18109 -2,0.38228 0.11,2.4144 -1.86,1.8108 -0.32,-0.0504 -0.62,-0.62373 -2.16,-0.0101 -0.82,0.98587 -0.77,0.36217 -2.73,0.34204 -1.51,1.34804 -0.82,1.2273 -1.7,0.10061 -1.48,0.64384 -3,0.11066 -0.82,-0.28168 -0.19,-0.28168 0.13,-0.66395 -1.71,-0.98588 -1.33,-0.39235 -1.39,0.55331 -2.13,0.43257 -0.32,-0.18109 -0.41,-0.93557 -1.5,-0.46276 -1.95,0.02 -3.24,1.65991 -0.06,0.93558 2.24,4.46664 0.12,1.1569 -0.29,2.5854 -0.25,0.91547 -0.72,0.86515 -2.95,5.08031 -2.97,2.43451 -1.35,0.42253 -1.48,-0.53319 -1.34,-0.17102 -2.2,0.75451 -1.17,0.89533 -0.67,0.87522 -1.14,0.38228 -0.75,1.4587 -0.33,0.21126 -2.11,-0.18108 -1.8,0.52312 -4.18,-1.86109 -1.77,-2.50494 -0.53,-2.22328 -0.66,-1.04623 -1.44,-1.34803 -2.33,0.02 0,0 -2.94,-0.21124 0,0 0.05,-1.93154 0.26,-1.06636 1.15,-2.46469 0.13,-6.39815 0.76,-1.40841 0.03,-0.51306 -1.73,-3.07836 -0.47,-3.20914 -0.7,-1.95163 0.73,-2.01201 1.7,-1.40839 1.2,-2.49489 0.13,-1.51905 0.34,-0.83498 0.3,-0.21126 1.44,-2.75644 0.63,-2.33392 0.39,-2.98781 0.98,-2.99788 2.13,-1.96171 2.72,-0.76455 2.61,-0.31186 1.07,-0.37222 1.7,-1.53917 1.05,-0.0402 1.34,-0.52311 2.86,-2.58542 2.34,-0.91546 2.01,-2.012 0.63,-0.87522 0,-0.46276 1.9,-1.93152 0.5,-0.22131 0.84,-0.24145 0.23,0.3018 1.12,-0.26155 1,-0.6036 1.46,-0.19114 1.01,0.21124 2.51,1.83094 1.51,-0.1006 2.44,-0.86517 0.83,-0.0402 0.65,0.28169 2.28,-0.29175 1.21,-1.31785 0.5,-1.46876 0.12,-1.21727 0.29,-0.44264 0.39,-2.2132 -0.13,-0.8551 -0.17,-0.50299 -1.61,-0.91546 -1.78,-2.04218 -0.51,-2.31381 -0.11,-2.12264 0.17,-2.4949 4.1,-4.45657 0.21,-0.5533 0.1,-2.44457 -0.55,-2.99789 -1.58,-2.8168 1.14,-2.88722 0.28,-1.4788 -0.38,-1.27763 -1.23,-0.84505 -0.35,-1.93151 0.77,-1.05629 0.64,-0.17103 0.82,-1.99188 1.89,-1.86109 0.88,-1.84099 -0.04,-1.80073 2.92,-3.43046 0.81,0.16096 3.31,-0.46277 4.13,-3.99381 1.79,-2.28362 0.39,-1.53918 -0.64,-0.53319 -0.22,-0.7243 0.46,-1.44864 0,0 0.73,0.12071 1.47,0.87522 0.51,0.51305 -0.13,0.31187 z" />
  <path
     style="fill:#000000;fill-opacity:1"
     id="BR-PR"
     title="Paraná"
     d="m 396.75,502.39617 -5.24,-0.0301 -0.33,0.44264 -1.74,0.24143 -0.76,-0.0704 -0.11,-0.39235 -1.57,0.5734 -1.35,1.43859 -3.35,2.14278 -1.44,-0.16096 -1.23,-0.62371 -3.13,-2.61561 -1.03,-0.39234 -0.76,-0.0101 -2.84,0.73438 -2.33,0.17103 -0.81,-0.0302 -1.42,-0.76457 -1.11,0.14084 -1.53,0.65391 -0.59,1.47881 -0.73,0.87522 -1.87,0.98589 -3.57,-0.41247 -2,1.15691 -0.72,0.77462 -0.69,1.59952 0.85,3.00795 -0.87,0.86516 -0.92,0.02 -0.75,0.38227 -0.17,0.49295 -1.33,-1.90133 -4.25,0.13077 -3.76,-0.43258 -1.58,-1.18708 -0.16,-0.41245 -1.03,-0.63378 -4.26,-0.36217 -5.29,-1.69007 -2.34,0.57342 -2.69,-0.0302 -2.02,-1.41845 -0.32,-0.51306 -1.06,-0.24144 -0.53,-0.0101 -0.71,0.37222 -3.63,-0.0201 0,0 -0.22,-1.21727 -2.53,-4.20508 0.02,-2.60553 -0.99,-2.89729 -3.42,-2.38421 -1.09,1.13679 -2.12,-0.11067 -1.1,0.43259 -1.07,0.90539 -1.46,-1.08648 -0.82,0.0603 -0.28,-2.21321 0.66,-1.57942 1.07,-1.27761 1.22,-2.19308 0.06,-0.34204 -0.49,-0.75449 0.02,-1.24744 0.9,-3.66185 1.26,-3.03812 -0.25,-2.31379 1.28,-2.39428 -0.21,-1.02613 -0.84,-0.88527 -0.31,-1.6096 0.66,-1.06636 0.79,-0.54323 0,0 2.38,-1.56937 0.36,-0.82492 1.57,-7.96751 0.33,-0.3521 1.11,-0.32192 1.66,-1.01607 0.67,-0.68408 1.45,-3.58136 -0.02,-1.1569 0.93,-2.34397 1.11,-0.82492 5.41,-2.28363 0,0 3.26,-2.30373 3.83,0.65391 4.01,-0.11068 3.27,0.29175 1.21,-0.62371 0.35,-0.60361 0.73,-0.37222 1.17,0.29174 1.48,0.78468 2.52,0.46277 2.64,1.09653 1.31,0.13078 1.07,-0.54323 2.58,-0.0101 0.78,1.006 1.75,0.84504 3.51,0.80479 0.63,0.51307 0.71,1.32792 1.73,0.0704 0.42,-0.34205 1.65,0.15091 0.66,0.54324 5.31,0.13077 2.97,-0.85509 1.13,1.5593 3.59,2.84698 0.89,1.77056 0.01,2.75643 -0.39,0.58349 -0.16,0.81485 0.38,1.85104 1.3,1.51906 -0.08,1.77057 -0.36,0.56335 1.49,3.018 1.21,1.1569 0.67,0.28168 0.5,0.68408 -0.05,0.89533 0.92,1.98184 0.6,0.29172 0.25,0.44265 -0.25,1.05631 -1.27,2.14276 0.32,2.05225 0.6,0.38227 1.01,0.21127 2.38,-0.12072 3.42,-0.53319 0.5,0.39235 1.58,-0.19114 1.59,0.13078 1.61,1.26755 -0.14,0.41245 -0.89,0.65392 -0.69,3.31979 0.35,0.78468 1.07,0.53318 0.65,-0.85509 1.1,-2.77657 0.76,-0.17101 2.14,0.58347 -0.4,1.9617 0.73,3.3198 1.42,0.58348 0.16,1.32792 0,0 -1.35,1.02612 -0.61,1.48888 -0.55,-0.12073 0.27,-1.95163 1.44,-0.95569 -1.41,0.28167 -0.89,0.49294 -0.87,-0.02 -0.34,-0.39235 -0.57,-0.17101 -0.54,0.37222 -0.28,0.93558 0.52,0.8048 -0.73,0.96576 -0.3,0.10061 -2.48,-0.53319 -0.79,-0.54325 -0.45,0.12073 -0.18,0.90541 0.34,0.37221 1.61,0.56336 1.4,-0.2515 2.13,0.6036 0.27,0.48287 -0.97,0.6841 -1.54,2.79667 -1.24,0.77461 -2.42,0.57344 -0.2,0.45269 2.95,-0.2012 0.15,1.19714 z" />
  <path
     style="fill:#000000;fill-opacity:1"
     id="BR-RJ"
     title="Rio de Janeiro"
     d="m 468.35,452.98146 -0.07,-0.78468 0.38,-0.27162 3.19,0.22133 2.59,-0.59355 -2.53,-1.55929 -1.4,-0.50301 -2.81,0.6841 -1.36,1.60959 -1.03,0.32192 -0.7,-0.0503 -1.35,-2.1629 -0.48,0 -0.9,0.42252 -0.96,1.06635 -3.15,0.80481 -0.34,0.91546 -0.19,1.9114 2.19,0.13078 1.07,1.01606 -1.15,1.08647 -0.94,-0.17101 -1.42,0.17101 0,0 -0.48,-0.26155 -1.63,-1.74039 -0.05,-0.41245 1.09,-3.521 1.09,-1.15691 2.35,-1.01605 0.5,0.1509 2.77,-0.36216 1.5,-0.71427 1.65,-2.16288 -0.75,-1.64984 -1.7,-0.0101 -3.15,0.53318 -1.77,-0.39234 -1.23,-1.59953 -0.56,-1.17703 -1.27,-0.54323 0,0 0.68,-0.49295 2.42,-0.74444 2.91,-1.34804 2.58,-0.17101 0.5,0.27162 1.72,-0.77463 1.05,-0.77461 4.09,-1.80076 0.52,-0.0704 0.36,0.31185 3.2,-0.0704 1.25,-0.17103 1.63,-0.94563 0.57,-0.0604 2.53,0.27161 0.49,0.17102 -0.02,0.47283 1.38,-0.2012 9.51,-4.55718 2.53,-0.99594 0.21,-0.52312 -0.28,-0.61366 -1.44,-0.13078 0.09,-0.7545 1.89,-3.73225 2.36,-6.07625 -0.73,-0.71425 0.56,-0.49295 1.24,-0.27162 2.53,-2.37416 0,0 1.93,0.76456 0.67,4.73827 2.5,1.13678 4.33,1.01605 2.99,-0.37221 1.62,1.06636 0,0 -0.08,1.27761 -0.94,1.61966 -0.22,2.14278 1.14,6.82068 -0.5,0.68407 -3.08,1.7605 -5.97,1.95165 -2.83,1.7303 -3.5,3.71215 -0.11,1.66997 0.31,1.19712 -0.19,1.62973 -0.73,1.48888 -1.82,0.51307 -6.55,-0.17103 -5.79,0.7042 -2.39,-0.46276 -0.49,-0.38229 -0.06,-0.68407 1.03,-1.48888 0.67,-1.4587 -0.09,-0.62372 -0.78,-0.18108 -2.79,1.15691 -0.26,0.69414 0.31,0.79473 1.38,1.17701 0.25,0.97582 -0.59,0.52313 -1.63,0.51306 -1.57,-0.0301 -8.04,1.07642 -1.46,0.45269 z m -5.11,2.00196 -0.67,-0.97584 2.11,-1.55929 1.86,0.94563 0.43,0.70421 -2.46,0.50299 -0.41,-0.35209 -0.47,0 -0.39,0.73439 z" />
  <path
     style="fill:#000000;fill-opacity:1"
     id="BR-RN"
     title="Rio Grande do Norte"
     d="m 609.29,184.00737 -0.93,0.24144 -3.5,-0.21126 -1.04,0.4024 -2.46,-1.1066 -2.17,-0.30179 -5.83,0.39233 -0.53,-0.35209 -3.42,-0.40241 -0.62,-0.49294 0.1,-1.00599 -0.42,-0.39235 -1.38,0.0504 -1.82,1.35809 -0.31,1.48889 0.72,0.78467 0.53,1.53918 -1.01,-0.32192 -0.48,0.59354 0.16,1.42852 0.47,0.94565 -0.55,1.21725 -0.5,0.74445 -2.35,0.93558 -0.83,-0.74445 0.52,-1.54924 -0.89,-1.17701 -1.95,-0.30181 -1.77,0.0805 -3.15,1.26755 -0.29,-0.23138 -0.31,-1.38828 -0.32,-0.23137 -3.53,-0.52312 0.08,-1.73033 0.21,-0.31186 0.85,-0.2515 0.41,-0.38228 0.38,-1.75043 0.44,-0.96575 2.99,-3.22927 -0.01,-1.19715 -0.53,-0.44263 -0.64,-0.0805 -3.26,1.04624 -1.43,0.12071 -3.18,1.21727 -0.41,0.9557 -0.1,1.04624 -0.82,0.71426 -3.23,1.66995 -1.16,1.13678 -2.88,-0.61365 -0.9,-0.42252 -1.93,-1.64984 -0.57,0.46276 0,0 -0.66,0.38228 -0.64,-0.17102 0.34,-1.98182 1.41,-2.26351 0.84,-0.88527 0.51,-0.0704 0.78,0.51306 1.03,-0.26156 0.57,-1.10659 1.46,-1.51907 1.4,-2.45464 -0.15,-0.74444 0.65,-1.68002 0.87,-0.57342 0.84,-1.12672 3.3,-6.73014 2.61,-2.02205 4.89,-1.59954 0,0 0.47,0.76455 0.86,0.7545 3.13,-0.0101 1.22,0.41247 1.69,1.76049 1.32,0.50301 3.33,-0.32192 2.88,0.52313 2.54,-0.24146 2.33,-0.73438 4.5,0.92553 1.27,0.0402 1.95,0.86517 1.02,0.82492 0.64,0.94564 2.31,4.76842 0.5,1.80075 -0.04,0.75449 1.48,5.41228 0.21,1.69008 0.72,0.54324 0.96,2.70615 z" />
  <path
     style="fill:#000000;fill-opacity:1"
     id="BR-RO"
     title="Rondônia"
     d="m 187.32,292.69557 -1.29,-1.45871 -0.44,-1.89128 -1.56,-0.52312 -0.86,0.32192 -1.81,0.0805 -4.07,-1.82087 -0.01,-0.40238 -0.66,-0.61367 -1.27,0.59353 -1.98,-1.69008 -1.52,-0.97582 -0.86,-1.46875 -0.28,-1.39834 -1.04,-0.39234 -1.77,1.12673 -1.22,-0.0301 -1.41,-0.80479 -0.87,-1.33799 -3.13,-1.58947 -1.96,-0.17103 -1.14,0.54325 -0.9,0.8551 -1.43,-0.17102 -0.31,-0.3018 -2.14,-0.51306 -3.06,-0.28168 -0.76,-0.43259 -1.18,-1.19713 -0.3,-1.98182 -1.58,-0.49294 -1.89,-0.97582 -0.82,-1.73032 -0.29,-0.20121 -2.72,-0.28166 -0.38,-0.35212 -0.84,-3.73224 -0.88,-0.89535 -0.48,1.16696 -0.66,-0.32192 -0.27,-0.64384 0.62,-1.53918 -0.84,-1.52912 -1.36,-0.39234 -1.26,-3.49081 -0.17,-1.66996 1.55,-2.92746 -0.21,-1.66995 -1.16,-1.98184 -0.75,-2.17295 -0.06,-2.30374 0.62,-0.503 0.38,-1.37822 1.04,-1.0563 0.36,-1.47881 -0.24,-1.49894 -0.42,-0.89535 -0.09,-1.53917 0.54,-1.6599 -1.17,-2.19307 -1.02,-0.3823 -1.09,0.98589 -0.06,0.51306 -0.84,0.96577 -0.57,0 -2.18,-1.02613 -5.18,0.0805 -5.61,1.79068 -1.69,-0.0101 -1.48,0.48287 0,0 -2.97,-1.26756 0,0 3.26,-2.57535 1.92,-0.58348 1.55,-1.82086 0.15,-0.56336 -0.16,-1.29773 3.96,0.26155 2.87,-0.33199 0.72,0.37223 2.31,2.34398 0.37,-0.0201 1.22,-0.79474 0.13,-0.72432 0.41,-0.53319 1.08,-0.50299 0.77,0.13077 1.37,-0.39234 1.3,-1.21725 1.84,-1.02612 0.38,0.0906 0.64,2.27354 0.68,0.53319 0.68,-0.0805 2.54,-3.17898 -0.26,-1.76049 0.53,-0.84503 1.75,-1.26757 0.46,0.02 0.84,0.5533 1.79,0.10059 1.2,-1.07641 2.13,-0.38228 3.87,0.46275 -0.24,-1.46876 0.11,-1.82086 2.06,-1.21725 0.81,-1.15691 0.36,-1.02611 -0.17,-0.45271 -0.9,-0.70419 0.05,-0.67402 1.19,-1.59953 2.48,-0.53319 0.26,-0.22131 -0.09,-1.17703 1.72,-0.50299 1.38,-2.57537 10.79,-0.0603 2.15,1.13679 0.45,0.49294 0.8,1.92145 1.33,1.27762 2.54,0.98588 1.25,3.28962 0.46,0.21125 0.98,-0.13077 0.62,0.2012 0.68,2.89728 3.24,1.48888 0.68,-0.19114 0.54,-1.75044 1.92,-1.08648 1.39,0.28168 0.36,0.38227 -0.04,0.70421 0,0 1.4,0.97582 0.6,1.24743 -0.76,1.42853 -1.29,5.01994 0.06,0.3521 0.78,0.47282 0.26,0.61365 0.15,1.39834 0.83,2.28363 -0.94,1.68002 0.38,1.94156 -1,3.54113 -0.03,0.8048 0.27,1.77055 1.5,2.7665 -0.9,9.054 17.16,0.0504 -0.24,0.56335 1.22,1.11666 3.5,-0.0906 1.11,0.11067 1.07,0.43257 1.41,3.61155 -0.17,0.75449 -1.4,1.7605 -1.36,1.08647 -0.14,1.32793 0.43,3.26949 0.58,0.51307 0.9,-0.0301 1.53,3.36004 -0.04,2.0623 0.58,1.49894 -0.07,1.72027 -0.56,2.25344 -1.66,2.02205 -0.52,2.2635 -0.58,0.84505 -0.43,0.41245 -1.64,0.53318 -0.93,1.08649 -1.43,3.80268 -0.52,2.4647 -4.11,2.58541 -1.47,1.43859 0,0 -0.74,-0.0402 -2.59,-1.55929 -1.27,-1.43859 -7.08,0.96576 -1.32,-0.43257 -0.25,-0.30181 -3.38,0.66395 -0.48,-0.16096 -0.52,-1.35808 z" />
  <path
     style="fill:#000000;fill-opacity:1"
     id="BR-RR"
     title="Roraima"
     d="m 234.61,61.768371 1.6,17.071812 0,0 -18.49,-0.07043 0.03,0.684081 -2.33,3.279558 -1.66,3.048177 -0.07,1.13678 -1.15,2.655839 -0.11,0.66396 0.23,0.734379 1.14,1.418459 -0.02,0.53318 -0.42,0.392341 -2.03,0.553299 -1.41,1.418459 -1.25,0.46276 -1.82,-0.231379 -0.92,-2.525059 -1.87,-2.05224 -2.83,-0.935578 -1.6,0.06036 -0.55,0.89534 -2.09,0.714259 -1.28,0.69414 -1.02,1.267558 -0.82,2.98782 0.37,1.810799 -0.25,1.740375 -0.75,2.30374 0.44,2.12267 -2.36,-1.04625 -1.34,0.42252 -0.53,-0.0704 -1.04,-2.05224 -1.48,-1.65991 -1.96,-1.317855 -0.52,-0.04023 -5.01,-4.446519 0.14,-1.146839 1.84,0.33198 1.14,-1.327919 0.06,-0.58348 -1.13,-4.355978 -0.58,-0.9054 -1.22,-0.845039 -0.88,-2.183019 -0.29,-5.009878 0.57,-0.965759 0.77,-3.058239 -0.66,-1.589479 -0.36,-1.599539 1.62,-1.468759 -0.05,-0.452701 -0.87,-1.126718 -0.19,-2.273559 -1.66,-4.788559 -2.73,-3.762438 0.71,-1.508999 0.91,-3.339919 -0.49,-0.663959 -1.95,-0.9557 -1.36,-0.11066 -0.88,0.21126 -0.97,-0.37222 -1.21,-1.17702 -0.06,-0.96576 -0.63,-0.110659 -1.13,0.42252 -0.61,-0.01006 -0.75,-0.34204 -0.72,-0.784679 0,0 0.3,-0.46276 0.23,-2.293679 -0.3,-0.221321 -3.37,-0.231379 -3.75,0.14084 -3.31,-0.704199 -0.2,-0.6036 0.8,-1.770559 0.12,-1.48888 -0.73,-1.780619 -1.94,-3.561238 -0.73,-2.072359 -0.47,-3.742319 0.79,-1.488879 -0.08,-0.96576 -1.84,-2.011998 -2.16,-1.06636 -2.81,-2.796678 -1.06,-1.820859 -0.29,-0.96576 -1.14,-0.6539 -0.25,-0.39234 0.03,-0.84504 0.29,-0.331978 0.9,0.07043 1.12,0.663959 0.94,1.74038 0.61,0.09054 3.39,-0.503 1.35,0.100601 1.91,0.593539 0.61,1.207199 0.55,1.941579 0.54,0.352101 0.96,-0.08048 0.74,-0.6539 0.95,-0.4024 3.18,0.160959 0.47,0.0503 1.31,1.217258 0.6,0.150901 0.52,-0.14084 0.61,-1.569359 1.31,0.140839 1.45,0.93558 3.93,4.597417 1.05,0.573421 0.71,0.110659 1.51,-0.68408 0.74,-1.136779 0.1,-0.84504 -0.83,-2.776558 0.36,-1.75044 0.46,-0.281679 1.93,-0.05031 1.01,-1.106599 1.55,-1.096539 0.75,0.05031 3.9,1.348039 0.59,-0.17102 0.8,-0.72432 1.03,-0.301799 1.13,0.352099 1.03,-0.211259 1.34,-1.287679 1,-0.2515 1.15,0.231379 1.11,-0.07043 0.68,-0.8551 0.05,-1.3581 3.03,-1.820859 2.33,0.191141 2.76,-0.392341 0.89,-1.136778 0.09,-0.7142609 0.59,-1.1267192 0.75,-0.13078 1.85,-0.9053996 1.1,-1.0462394 1.11,-1.7202593 -1.2,-3.5813583 -1.17,-0.3621598 0.64,-0.18107992 1.43,0.0704199 0.8,0.32191982 3.57,-0.1005999 1.06,-0.95569958 L 215.42,0 l 1.37,0.42251981 0.53,1.31785929 1.04,0.8047998 0.48,1.3782193 -0.67,4.9293977 -0.72,1.3882791 -1.25,0.704199 0.06,0.83498 1.61,0.41246 1.62,-0.22132 2.35,0.81486 1.82,1.106599 -0.88,1.43858 -0.01,1.156899 2.34,3.440519 0.2,1.559299 -1.51,2.937519 -1.88,1.418459 -0.72,1.508999 0.27,0.39234 0.06,2.183019 -1.47,2.424459 -0.9,2.786619 -0.31,2.585419 -0.09,2.686018 0.98,1.88122 0.51,1.770559 -0.01,1.408399 1.57,1.03618 0.9,0.201199 0.13,0.684079 -0.46,5.180899 0.12,0.74444 1.81,0.291739 -0.66,1.17702 0.46,0.502999 2.15,0.74444 1.46,1.931519 2.66,2.756439 z" />
  <path
     style="fill:#000000;fill-opacity:1"
     id="BR-RS"
     title="Rio Grande do Sul"
     d="m 321.99,642.35081 -0.41983,-0.31899 -0.54467,-1.03867 -1.06624,-0.10792 -0.46926,-0.10374 0.52,-4.29563 -0.46,-4.2755 0.15,-1.07642 0.63,-1.24743 2.84,-2.39428 0.83,-1.56936 2.3,-2.57536 -1.46,-1.6599 -1.07,-0.62373 -2.25,-0.60358 -0.59504,-0.73341 -0.32909,-1.03073 -1.0967,-0.11044 -0.75525,-0.70057 -0.75392,-1.31809 -0.1,-1.59953 -0.48763,-0.40059 0.0576,-0.78649 -0.6149,-0.22564 -0.21798,-1.03106 -0.30737,-1.26416 -1.35116,-0.40565 -0.26129,-1.07197 -0.56722,0.18154 -0.24311,-0.69924 -0.73713,-0.18063 -0.22827,-0.49152 -1.01947,-0.63994 -0.82237,0.67391 0.0203,-0.95204 -1.00124,0.15142 -1.78033,-1.72849 -1.78926,-1.4902 -1.27991,-0.87442 -0.40926,-1.50078 -1.9,-2.17296 -3.32,-0.46276 -0.92,-0.47282 -1.73,-1.66996 -1.76,0.13078 -2.17,-1.38829 -1.91,-3.73225 -1.11,-1.49894 -2.53,-2.13271 -0.7,0.0805 -0.67,1.80073 -2.59,2.25345 -2.67,0.12071 0.1,-2.87715 0.4,-1.28769 -0.39,-1.006 -3.65,-4.31574 -2.37,-1.78061 -2.18,-2.07237 -1.75,-2.12264 -2.69,-2.22326 -1.9,-0.14085 -2.15,0.21125 -1.14,1.36817 -0.06,0.96577 -1.03,0.9758 -1.11,0.02 -0.58,-0.48289 -3.16,0.14085 -0.65,-0.48289 -0.16,-0.91546 -0.49,-0.22131 0.85,-0.22133 1.04,-0.72432 2.52,-2.78661 0.11,-1.85104 0.6,-1.2575 0.82,-0.45269 1.29,-0.0704 0.64,-0.26156 0.92,-1.00599 5.45,-6.51888 0.63,-1.42852 0.17,-1.11666 0.82,-1.07642 1.2,-0.8551 1.37,-0.41246 1.96,-4.24532 0.1,-0.61365 0.31,-0.37222 1.64,-0.86517 1.63,-1.81079 0.85,-1.1569 0.51,-1.29774 1.34,-2.1126 0.93,-0.29174 1.57,0.18108 0.55,0.79474 0.47,-1.28769 -0.21,-0.58348 -1.35,-0.82491 -0.05,-0.36217 0.35,-0.33197 1.08,-0.38228 0.82,-0.96577 2.79,-0.9557 1.05,-1.07641 0.1,-0.92552 0.82,-0.91546 2.21,-1.1569 2.47,-0.4024 1.77,-1.82086 0.15,-1.06636 1.32,-2.37417 0.33,-0.0402 0.05,0.36215 0.29,0.20121 1.33,-0.17102 2.44,-1.13678 2.68,-0.59353 1.21,-0.57343 2.1,-2.3641 0.5,0.0101 0.67,-0.39232 1.01,-1.35811 2.31,-0.73438 0.3,0.38227 0,0 3.52,0.39234 3.26,-1.15689 0.56,-0.81486 1.35,0.58348 -0.15,0.92552 3.08,-0.0301 1.63,0.99594 2.56,-0.37223 1.92,1.1569 2.58,-0.41246 1.54,0.18108 2.8,-0.16095 2.26,0.9255 2.48,1.40842 1,2.45463 1.59,0.19114 0.09,-0.48288 1.81,-0.3521 5.56,3.56124 1.37,1.5593 0.71,-0.0301 1.56,0.98588 3.03,3.51094 1.64,2.22325 0.48,1.48889 2.17,2.67596 1.17,0.5533 6.69,1.06636 2.11,-0.4024 3.35,0.34203 0.88,2.35404 -2.08,1.58948 -1.27,0.41246 -0.73,1.87116 0.22,2.20315 -0.38,1.56935 -0.52,1.30779 -1.18,0.20121 -1.29,1.70013 -0.03,1.41846 1.8,1.17702 0.27,-0.20119 -0.28,-0.97583 0.01,-0.96575 1.49,-0.82493 1.58,0.64385 0.73,0.91547 1.17,0.85509 0.45,-0.0302 0,0 -1.4,1.74038 -3.9,7.08224 -4.21,11.66958 -6.3,10.54288 -5.44,6.69996 -6.51,5.99576 -6.09,3.70207 -2.77091,3.46828 -0.44926,-0.19327 0.59017,-0.96121 0.34,-2.19308 -1.18,-1.72025 0.1,-0.42252 0.93,-0.17104 1.01,0.40241 0.56,0.58348 1.02,0.0402 0.85429,-0.66995 -0.21892,-0.86818 2.76463,-0.56442 2.01231,-2.86466 1.0791,-1.71131 0.95859,0.34073 1.02,-0.19114 1.05,-0.84505 0.93,-1.27762 0.37,-1.48888 0.18,-0.93558 -0.23,-2.1126 0.2,-1.37822 1.57,-0.0704 0.74,0.30181 0.27,0.83497 0.35,-0.26156 -0.29,-1.4084 0.51,-2.08242 0.48,-0.57341 2.74,-1.59954 0.73,-1.08649 0.47,-2.76649 -0.21,-2.29368 0.56,-0.68408 0.5,0.80479 0.37,0.0302 0.43,-0.42253 0.47,-3.09847 -0.1,-0.44263 -0.95,-1.22732 -0.67,-0.0302 -0.26,0.69412 0.17,0.39236 -0.14,0.57341 -0.35,0.20119 -1.51,-0.02 -2.01,0.4024 -0.34,1.61966 -0.53,0.0503 -0.81,-0.44263 0.1,-1.72027 -0.82,-0.89533 -1.04,0.33197 -0.6,-0.48288 -0.73,-1.26755 -0.4,-1.45871 0.12,-0.57341 -0.64,-0.69414 -0.61,2.72626 0.44,2.2635 1.25,2.12266 -0.57,0.81486 -0.74,2.55524 0.38,3.04818 -0.18,0.77462 -0.48,-0.37223 0.26,-0.24143 -0.03,-0.71427 -0.47,-1.28767 -0.45,-0.39234 -0.53,0.66395 -0.03,1.37823 -1.41,3.28961 -0.05,1.90134 0.22,0.52312 -0.72,0.70421 -1.61,0.64384 -0.61,1.58947 -4.09,1.57942 -0.72,0.53317 -0.53,1.59955 -0.1,2.28361 -0.97,2.28363 -2.36,1.30781 -0.11,1.77055 -0.24111,0.0752 -0.17641,0.64008 1.73786,0.63066 0.0379,0.66473 -1.57826,0.41377 -0.25,1.51905 0.69926,0.24459 1.51768,-0.88876 0.44464,0.41031 -0.70034,1.24065 -0.41843,0.94538 -1.11281,1.71973 -2.32,4.54713 -1.93,6.92127 -2.01,4.51694 -1.94926,2.41544 -7.84983,7.54526 z" />
  <path
     style="fill:#000000;fill-opacity:1"
     id="BR-SC"
     title="Santa Catarina"
     d="m 379.3,561.3578 -0.45,0.0302 -1.17,-0.85509 -0.73,-0.92554 -1.59,-0.63378 -1.48,0.82493 -0.01,0.96575 0.28,0.97583 -0.27,0.20119 -1.8,-1.17702 0.04,-1.41846 1.28,-1.70013 1.18,-0.20121 0.53,-1.31785 0.37,-1.55929 -0.22,-2.20315 0.73,-1.87116 1.27,-0.42251 2.08,-1.58948 -0.88,-2.35405 -3.35,-0.34204 -2.11,0.4024 -6.69,-1.06636 -1.16,-0.54323 -2.17,-2.67596 -0.49,-1.48889 -1.63,-2.22325 -3.03,-3.51094 -1.57,-0.99593 -0.71,0.0302 -1.37,-1.5593 -5.56,-3.56124 -1.81,0.34204 -0.09,0.48288 -1.6,-0.19114 -1,-2.45463 -2.47,-1.39834 -2.27,-0.93559 -2.79,0.16096 -1.54,-0.18108 -2.59,0.41247 -1.91,-1.15691 -2.57,0.36216 -1.63,-0.98588 -3.08,0.0302 0.15,-0.93558 -1.35,-0.58348 -0.56,0.81487 -3.26,1.16695 -3.52,-0.39234 0,0 1.45,-2.94757 0.73,-2.10254 -0.58,-3.2695 0.41,-3.22925 -0.04,-2.56531 0.96,-1.76049 0,0 3.63,0.0201 0.71,-0.38228 0.53,0.0101 1.06,0.24143 0.31,0.51306 2.03,1.41847 2.68,0.0301 2.34,-0.58346 5.29,1.69007 4.26,0.36216 1.02,0.63378 0.17,0.41245 1.57,1.1871 3.77,0.42251 4.25,-0.13078 1.33,1.9114 0.18,-0.50301 0.74,-0.38227 0.92,-0.0201 0.87,-0.86516 -0.85,-3.00794 0.69,-1.58948 0.72,-0.78468 2,-1.14684 3.57,0.40241 1.87,-0.97583 0.73,-0.87521 0.59,-1.48888 1.53,-0.65391 1.11,-0.14084 1.42,0.76457 0.81,0.0302 2.33,-0.17101 2.84,-0.73439 0.75,0.0101 1.04,0.40241 3.12,2.61559 1.23,0.62373 1.44,0.16095 3.35,-2.14277 1.35,-1.43858 1.56,-0.57344 0.12,0.39235 0.76,0.0704 1.74,-0.23138 0.33,-0.44265 5.24,0.0302 0,0 -0.39,1.32792 0.51,1.6599 -0.07,0.39234 -1.5,1.14684 -0.98,-0.48288 -0.82,-2.54517 -0.02,1.12672 0.59,2.73631 1.71,1.66995 0.56,0.9557 -1.01,2.30375 -0.16,2.33392 0.1,0.43258 0.76,0.73437 0.26,5.89517 0.31,0.55329 0.43,0.20121 0.77,-0.51306 0.35,0.72432 0.1,0.87522 -0.47,0.0603 -0.43,-0.28169 -1.19,0.63378 -0.34,3.86304 0.57,2.60555 -0.57,0.75449 0.31,1.94159 0.91,1.89127 -0.86,2.35403 -0.52,4.03407 -1.71,4.70807 -0.34,-0.1006 -0.36,-0.76456 0.21,-0.97581 -0.92,-1.18708 -0.26,0.33198 0.18,2.44457 1.16,0.83498 -0.92,1.66997 -1.64,0.65389 -4.13,3.05823 -2.8,2.57537 -3.75,4.46664 -1.04,1.89128 z m 17.88,-26.70929 -0.15,-0.47283 0.25,-1.7605 0.76,-2.41439 -0.4,-1.18707 0.16,-1.02614 1.4,-0.76454 0.22,0.0604 0.66,0.94564 -0.54,2.57536 -0.82,0.86514 -0.59,1.22733 0.2,1.17701 -1.15,0.77463 z m -0.45,-24.51621 -1.87,-2.03212 2.55,-2.45464 0.25,0.0402 0.65,1.05629 -0.86,1.32792 -0.72,2.0623 z" />
  <path
     style="fill:#000000;fill-opacity:1"
     id="BR-SE"
     title="Sergipe"
     d="m 569.94,263.26002 -2.9,0.89534 -1.55,-0.64385 -0.54,-0.34203 -0.48,-0.72433 -1.92,-0.92552 -0.6,-0.52312 -0.12,-0.41245 0.34,-0.39235 0.13,-1.42851 -0.15,-0.39234 -1.43,-1.51906 -0.52,-1.49893 -1.09,-0.67403 -0.96,-1.60959 -0.02,-0.77463 0.59,-1.58948 0.32,-0.3018 1.7,0.0101 1.13,0.75449 2.55,-0.99595 0.69,-0.55329 0.3,-0.58349 -0.76,-2.76649 0.08,-0.88528 0.66,-1.62973 0.08,-3.12866 -0.75,-1.15689 -1.99,-1.96171 -1.27,-2.51499 -0.22,-2.15284 0.67,-1.15689 0,0 6.46,2.99787 3.68,0.9557 5.42,3.08842 1.3,2.46469 1.76,1.4587 1.66,0.79475 0.46,0.0301 3.59,2.24339 0.6,1.31785 0,0 -2.38,0.76457 -4.57,2.95763 -0.97,0.89534 -1.55,2.22327 -0.32,-0.02 0.11,-1.10659 -1.05,-1.83094 -0.99,0.16097 0.34,1.16696 1.24,0 0.23,0.24144 -0.52,1.98182 -1.27,2.10254 -0.53,-0.3521 -0.37,-0.67403 -0.99,-0.16096 0.2,0.68408 1.13,0.62372 -0.26,1.78063 -0.86,1.15689 -0.93,2.04218 -0.78,0.1509 -0.3,-0.46275 0.48,-1.4084 0.41,-0.13078 0.31,-0.43259 0.37,-1.04623 -0.81,-0.37222 0.1,0.68408 -0.45,1.13678 -0.48,0.503 -0.26,1.09654 0.28,0.72431 -0.26,0.52313 z" />
  <path
     style="fill:#000000;fill-opacity:1"
     id="BR-SP"
     title="São Paulo"
     d="m 404.58,490.84729 -0.16,-1.33798 -1.42,-0.57342 -0.73,-3.3198 0.4,-1.9617 -2.14,-0.58347 -0.76,0.17101 -1.1,2.78663 -0.66,0.85509 -1.06,-0.53317 -0.35,-0.78469 0.69,-3.3198 0.89,-0.66397 0.14,-0.40238 -1.61,-1.27762 -1.59,-0.13078 -1.58,0.19114 -0.5,-0.38229 -3.41,0.53318 -2.38,0.12073 -1.01,-0.21127 -0.6,-0.39233 -0.33,-2.05225 1.28,-2.13271 0.25,-1.05631 -0.25,-0.44263 -0.6,-0.30179 -0.92,-1.98184 0.06,-0.89533 -0.5,-0.68408 -0.67,-0.29174 -1.21,-1.14684 -1.49,-3.02806 0.36,-0.55329 0.08,-1.77057 -1.3,-1.52912 -0.38,-1.85103 0.17,-0.81486 0.39,-0.58348 -0.02,-2.75644 -0.89,-1.77057 -3.59,-2.84697 -1.13,-1.55929 -2.97,0.86514 -5.31,-0.13077 -0.66,-0.54324 -1.65,-0.14084 -0.42,0.34204 -1.72,-0.0704 -0.72,-1.32793 -0.63,-0.51305 -3.51,-0.80481 -1.75,-0.84504 -0.78,-1.006 -2.58,0.0101 -1.07,0.54323 -1.32,-0.13077 -2.64,-1.09654 -2.53,-0.46276 -1.48,-0.79474 -1.17,-0.29174 -0.73,0.37222 -0.34,0.60361 -1.21,0.62371 -3.28,-0.29175 -4.01,0.11068 -3.83,-0.65391 -3.25,2.30373 0,0 0.84,-1.08647 0.73,-1.54923 1.26,-1.14685 7.56,-4.56723 1.95,-1.88123 1.26,-2.44457 1.73,-1.70015 0.4,-1.21726 1.44,-1.03617 0.28,-1.22732 -0.35,-0.84504 2,-2.27355 1.21,-2.35404 0.07,-0.94565 -0.31,-1.94158 0.23,-0.39234 0.96,-0.52313 2.6,-3.66182 0.16,-2.94758 0.62,-1.69009 1.01,-0.30179 0.73,-0.64384 1.99,-2.69608 1.22,-1.02611 0.47,-0.23139 1.31,-0.0402 1.5,-0.78467 0.28,-0.40241 0.4,-2.47476 0,0 1.22,-1.13678 2.15,-1.11665 1.92,-0.37223 1.43,-1.70013 1.5,-0.61366 0.75,0.14083 1.73,1.5593 2.55,0.0805 4.29,0.96576 1.67,-0.36215 1.62,0.22132 2,-0.59355 2.18,1.42852 1.67,0.79473 -0.13,0.92554 0.33,1.42852 1.21,2.10253 0.63,0.0302 0.54,-0.32192 0.67,-0.94565 0.41,-1.13677 0.26,-0.19115 0.55,0.0503 0.36,0.39234 0.25,0.96576 0.01,2.79668 1.2,0.53318 0.41,-0.4527 -0.27,-2.55523 0.49,-1.19715 0.45,-0.48288 8.18,-0.67403 1.01,-1.2575 1.5,1.46876 1.12,0.4326 2.78,-0.69414 0.44,-0.99596 -0.2,-0.46275 0.31,-0.61366 2.38,-0.11066 1.66,0.78468 0.85,-0.64385 1.31,-0.29173 3.26,3.3701 0.2,1.04624 -0.57,1.01606 -0.29,2.38422 0.58,0.61367 1.89,1.21725 0.4,1.55929 -0.06,0.56337 -1.52,2.04218 -0.18,1.95164 0.79,0.74444 0.31,0.61366 0.37,2.22325 1.3,1.8108 0.83,2.00194 -0.03,0.8551 1.61,-0.0503 0.78,-0.31185 0.28,-0.36216 1,-0.0504 3.7,1.32793 0.23,0.37222 -0.05,1.27762 -0.7,2.19309 -1.86,2.7363 0.26,2.95765 -0.19,3.47069 -0.53,1.56936 0.72,1.6096 1.78,1.24744 1.81,0.83497 0.51,1.73034 -1.21,0.70419 2.02,3.32985 1.13,0.25151 2.01,-0.24144 0.18,0.53318 3.62,-1.00601 0.56,0.42253 1.31,-0.32192 0.75,-0.98588 0.05,-0.84503 -0.24,-0.24144 0.17,-2.31381 1.19,-0.33198 0.09,0.3521 -0.35,0.49294 0.01,0.48288 2.34,0.0805 2.39,-0.25149 1.79,-0.67401 1.23,-1.24744 1.93,-1.02613 2.21,-0.22131 1.24,-0.73439 0,0 1.27,0.54324 0.56,1.17701 1.23,1.59954 1.77,0.39235 3.15,-0.53318 1.7,0.0101 0.75,1.64985 -1.65,2.1629 -1.5,0.71426 -2.77,0.36216 -0.5,-0.1509 -2.35,1.01606 -1.09,1.1569 -1.09,3.52099 0.05,0.41247 1.63,1.74038 0.48,0.26156 0,0 -0.06,0.2012 -1.69,0.42252 -1.06,-0.82493 -1.48,1.11667 -0.43,0.65389 0.27,0.22133 -0.76,0.64384 -3.22,1.55929 -2.25,0.70421 -0.28,0.44264 0.04,0.96575 0.5,1.5593 -0.32,0.42252 -1.4,0.26156 -0.7,-0.64384 -1.34,-0.29173 -3.12,-0.503 -0.86,0.1509 -1.32,0.34204 -1.73,0.8249 -0.5,0.51307 -1.21,2.16291 -1.31,0.57341 -0.5,-0.12072 0.58,-0.47281 -0.48,-1.22732 -1.17,-0.8551 -0.83,1.23737 0.26,0.75449 -0.3,0.61368 -7.62,4.26543 -0.95,0.82492 -0.31,1.16695 -3.27,3.01801 -3.25,1.9617 -1.92,0.53318 -4.5,3.22926 -2.33,1.97175 -0.67,0.0805 -0.44,0.62372 0.9,0.43258 0.66,0.0604 0.93,-0.36217 0,0.76456 -0.62,1.31785 -1.32,0.85512 -1.06,1.48888 z m 44.31,-23.14805 -1.54,-0.6539 -1.16,0.18107 -0.49,-0.38226 0.1,-0.78468 0.95,-0.65391 1.09,-1.8611 0.72,0.25151 0.66,0.6539 0.13,2.92745 -0.46,0.32192 z" />
  <path
     style="fill:#000000;fill-opacity:1"
     id="BR-TO"
     title="Tocantins"
     d="m 433.35,283.51078 -5.36,1.42854 -1.74,1.34803 -2.56,1.10659 -1.55,0 -4.53,1.00601 -2.52,2.09247 -1.78,0.9054 -0.46,-0.24144 -1.51,-2.63571 -0.55,-0.0301 -0.51,3.31982 -0.69,0.0805 -3.35,-0.68408 -3.13,-1.47881 0.56,-1.56937 -0.22,-0.74443 -4.53,0.53318 -2.76,-0.34205 -0.56,0.54325 -0.3,1.00599 -0.75,0.75449 -1.14,-0.0503 -0.61,-3.11861 -1.11,-3.73225 -1.04,-1.89129 -1.15,-1.31785 -1.18,0.97582 -1.47,2.40434 -1.63,5.97563 -0.63,0.23138 -4.07,-1.43857 -3.09,-1.72027 -3.93,-0.4024 -2.2,-1.03617 -2.4,-0.4024 0.52,-2.35404 1.22,-1.89128 0.03,-1.72026 -0.56,0.3018 -1.81,2.10254 -0.66,1.23739 -0.2,1.89128 -0.34,0.45269 0,0 -0.8,-0.02 -0.96,-0.51306 -0.98,-3.36004 0.74,-2.77656 -0.44,-3.06829 -0.52,-0.58349 -0.01,-1.57942 0.47,-3.32985 -1.1,-2.26351 0.05,-0.503 0.82,-0.89533 0.16,-0.87523 -1.39,-1.34804 -0.06,-0.86515 1.88,-6.02594 0.04,-2.9677 0.54,-2.98781 1.94,-5.32174 0.37,-0.27164 0.43,-0.85509 0.44,-3.15884 1.1,-1.2575 0.56,-1.90134 0.65,-1.02611 0,0 1.62,-3.71214 1.13,-4.47669 1.15,-1.58948 1.19,-1.1066 1.21,-1.69009 1.03,-1.93152 1.37,-0.92551 1.05,-0.16097 0.73,-0.85509 0.94,-1.54925 0.18,-0.99593 1.7,-3.25943 1.09,-0.80481 1.76,-5.1809 0.66,-4.06423 -0.15,-0.3018 -0.74,-0.32192 -1.67,-1.75044 -0.6,-0.9557 -0.16,-0.88528 0.14,-0.57342 1.41,-1.70015 1.29,-2.11259 -0.06,-2.68602 -0.43,-2.19308 0.19,-0.3521 2.47,-1.79068 3.41,-1.14683 2.5,-1.21727 0.24,-0.503 -0.15,-1.51905 0.86,-1.27762 1.51,-1.34805 1.29,-0.15089 0.19,-1.34804 -0.29,-1.20721 0.25,-0.46275 1.46,-0.46276 0.64,-0.48288 0.93,-2.76651 -1.02,-1.34803 -0.09,-1.4084 0.29,-0.28169 0.97,-0.0805 0.72,-0.37222 0.37,-0.66396 0.03,-0.64383 -1.26,-1.17702 -0.87,-0.14085 -0.39,-0.31185 -1.02,-1.66997 -1.29,-0.12071 -1.87,0.25149 -2.29,-0.81486 0,0 0.53,-0.64384 2.62,-1.86109 1.96,-0.53318 0.87,0.0504 2.78,1.52911 1.4,0.0805 0.95,-0.52312 1.74,0.29173 0.59,0.69415 0.08,1.03619 0.28,0.32192 1.22,0.0301 3.4,1.43858 0.84,1.03619 0.47,3.52099 0.64,1.509 -0.21,3.74231 0.23,1.08649 0.67,1.13678 -0.01,0.44264 -1.77,6.1869 -0.31,2.38422 0.28,1.00599 -0.25,1.59954 -1.75,2.05224 -1.76,0.67402 -0.18,0.71426 1.94,1.32792 0.42,-0.27162 1.37,0.24145 0.25,0.35209 0.11,0.88527 -0.62,1.19716 0.85,1.44863 0.88,-0.0704 3,4.18497 0.91,0.85509 2.28,3.03811 2.14,-1.34803 4.27,-0.94563 1.8,1.22732 0.08,1.76049 -0.64,3.26951 0.39,1.35809 -3.39,0.3521 -1.34,0.54323 -0.57,0.55332 -0.68,1.43856 -0.73,2.69608 0.37,1.30781 -2.63,2.56529 -0.26,0.70421 0.2,0.42252 2.08,0.29174 0.94,0.69413 0.74,1.59955 0.06,1.66994 0.62,1.04625 3.88,1.9617 0.09,0.53318 -1.64,1.82087 0.13,1.65988 2.14,1.62973 0.99,2.88722 1.34,2.01199 0.71,0.18109 1.78,-0.21126 1,0.30179 0.82,0.44265 0.61,0.82492 1.28,0.66396 0,0 2.94,0.21125 0,0 -0.69,0.6539 -0.22,0.98588 -0.56,0.47282 -3.82,2.03211 -3.21,2.63574 -0.19,0.37222 1.29,1.81079 -0.36,0.39234 -1.01,0.27162 -0.9,0.61366 -1.52,3.51094 -1.01,0.72432 -0.5,1.16696 0.23,0.92552 1.86,1.96169 3.59,0.67403 1.87,0.99594 0.05,0.76455 -0.56,0.4527 -2.04,0.81486 -0.43,0.96576 0.09,0.50301 0.35,0.33197 1.03,-0.18108 0.92,0.29174 0.58,0.51306 0.29,0.64385 -0.96,0.71425 -1.15,0.42252 -1.95,1.68002 -0.19,0.8551 -0.05,2.93752 0.35,1.2575 0.94,0.66397 1.05,0.24143 0.41,0.2515 0.17,0.42252 0.05,1.06636 -1.36,2.39427 z" />
</svg>
