<?xml version="1.0" encoding="UTF-8" standalone="no"?>
<svg
   xmlns:dc="http://purl.org/dc/elements/1.1/"
   xmlns:cc="http://creativecommons.org/ns#"
   xmlns:rdf="http://www.w3.org/1999/02/22-rdf-syntax-ns#"
   xmlns:svg="http://www.w3.org/2000/svg"
   xmlns="http://www.w3.org/2000/svg"
   height="1166.4692"
   width="799.82831"
   xmlns:mapsvg="http://mapsvg.com"
   mapsvg:geoViewBox="-3.260786 11.175031 1.1994743 4.7388737"
   id="svg2"
   version="1.1">

  <path
     id="GH-TV"
     title="Volta"
     d="m 636.15226,438.59819 -1.11,-0.17 -0.95,-0.33 -4.18,-2.41 -0.89,-0.32 -1.01,-0.18 -0.97,0.04 -1.84,0.42 -4.4,1.83 -0.64,0.48 -0.62,0.68 -0.33,1.2 -0.12,0.99 0.7,0.77 0.54,0.77 0.31,0.9 -0.03,1.04 -0.82,1.44 -1.17,3.14 -1.47,2.87 -3.6,4.66 -0.72,1.5 -0.31,1.36 0.2,1.01 0.3,0.96 0.39,0.79 1.01,1.5 1.97,1.77 0.62,0.65 0.41,0.82 0.23,0.97 -0.23,1.08 -0.64,0.89 -1.56,0.59 -1.17,0 -1,-0.31 -1.61,-0.9 -0.89,-0.25 -1.04,0.34 -1.01,0.8 -1.92,2.97 -1.33,2.78 -1.95,5.66 -0.25,0.99 -0.11,1.04 0,0.99 0.25,0.94 0.5,0.72 0.69,0.54 3.4,1.63 0.67,0.62 0.44,0.79 0.12,0.96 -0.48,0.91 -0.86,0.75 -1.84,0.62 -1.28,0.31 -1.11,0.57 -0.73,0.77 -0.39,1.48 0.11,1.08 0.67,1.86 0.37,1.99 0,1.1 -0.37,2 0.11,0.91 0.42,0.61 0.7,0.53 0.83,0.36 1.95,0.56 2.04,0.25 0.9,-0.03 4.2,-0.6 3.93,-1 5.41,-0.66 1.14,0.08 0.97,0.27 0.89,0.38 0.78,0.49 0.62,0.65 1.92,2.97 0.37,0.92 0.25,2.09 -0.08,1.09 -0.17,0.99 -0.71,0.72 -1.14,0.5 -5.57,0.24 -1.14,0.21 -0.92,0.57 -0.53,1.18 -0.09,1.09 1.18,7.39 0.42,0.76 0.14,0.8 0.02,0.97 -0.25,1.04 -1.68,1.03 -2.92,0.79 -7.22,0.83 -3.15,0.03 -2,-0.2 -2.17,-1.6 -3.91,-3.82 -1.64,-2.03 -2.57,-2.49 -6.3,-4.06 -2.87,-1.25 -3.82,-1.24 -4.39,-0.8 -3.7,0.08 -7.99,2.8 -1.41,0.82 -1.84,1.3 -2.67,2.45 -0.85,1.34 -0.31,1.26 0.17,1 0.01,1.06 -0.17,1 -1.93,3.2 -0.38,0.98 -0.54,0.79 -1.42,0.45 -1.03,0.57 -0.77,1.32 -1.13,1.18 -1.43,0.94 -3.04,0.61 -1.74,0.04 -1.37,-0.2 -0.93,-0.29 -4.29,-2 -0.95,-0.31 -1.17,-0.03 -6.26,2.1 -1.65,0.19 -1.36,0 -1.99,-0.42 -1.06,0.54 -1.19,1.18 -3.58,7.86 -3.8,3.83 10.24,2.72 3.54,1.72 25.02,20.17 2.13,2.56 2.1,3.34 7.73,18.19 0.49,1.94 0.77,6.52 0.58,1.83 0.44,0.96 4.4,7.03 1.44,1.52 1.65,1.28 1.78,0.75 1.92,0.46 4.03,0.61 1.33,0.47 2.12,1.34 1,1.36 0.67,1.85 0.25,2.3 4.3,11.91 11.84,20.4 2.12,5.24 0.25,1.01 0.56,10.77 0.33,1.51 0.78,2.17 0.72,1.15 0.79,0.82 6.63,3.34 4.91,1.38 1.22,0.62 1.42,0.88 2.26,1.93 1.03,1.23 0.67,1.13 0.81,5.39 -0.03,2.39 -0.73,5.51 -3.03,9.59 -0.22,2.12 0,1.05 0.83,5.68 0.78,9.69 -0.44,3.21 -0.48,0.76 -1.36,3.11 -1.14,3.6 -0.34,2.04 0,1.53 0.31,0.91 0.75,4.19 0.42,5.13 -0.17,2.86 -0.33,1.89 -0.45,0.94 -1.53,2.16 -2.52,2.46 -0.69,0.53 -3.18,2.99 -0.86,1.46 -0.97,2.12 -1.67,4.72 -0.51,2.34 -0.11,1.78 0.59,1.94 0.81,1.61 0.55,0.68 0.67,0.57 0.78,0.46 2.73,0.96 1.73,0.82 1.4,1.09 1.17,1.29 0.97,1.55 0.72,1.69 1.03,7.76 -0.11,2.05 -0.3,1.44 -0.56,0.71 -0.61,0.57 -7.08,4.13 -0.73,0.56 -2.42,2.5 -0.53,0.68 -0.61,0.63 -0.53,0.72 -0.59,0.64 -0.52,0.7 -0.85,2.08 -2.84,10.64 -0.56,3.38 -0.08,2.27 0.53,0.66 0.92,0.26 5.3,-0.38 0.92,0.17 0.89,0.3 0.81,0.47 0.61,0.62 0.44,0.8 0.5,1.91 0.73,4.19 0.28,0.97 0.3,0.84 0.95,1.54 1.26,1.24 2.28,1.44 0.81,0.86 0.78,1.2 0.73,2.54 0.08,1.64 -0.14,1.49 -5.19,15.8 -0.42,0.83 -0.97,1.51 -0.56,0.67 -0.58,0.61 -2.87,2.13 -3.03,1.78 -8.06,3.1 -0.8,1.02 0.97,1.91 1.22,3.46 0.38,3.18 -0.88,2.28 -1.3,2.38 -0.62,3.22 0.19,3.04 1.12,1.87 8.47,6.44 3.2,0.98 12.32,-0.31 3.13,0.43 2.29,1.35 3.81,3.17 6.24,3.68 0.73,1.28 0.27,1.46 -0.47,16.54 1.39,-2.73 0.56,-0.78 1.25,-1.35 3.37,-2.49 3.16,-1.73 1.75,-0.57 1.81,-0.36 1.23,-0.07 0.14,-0.03 14.6,0.68 14.02,3.16 2.48,1.22 1.48,1.13 1.81,1.92 6.32,17.3 2.02,2.51 2,1.51 2.51,1.58 3.87,1.5 2.57,1.28 1.47,1.02 0.7,0.56 0.61,0.67 0.53,0.88 0.31,1.25 -0.5,1.03 -0.56,0.67 -3.59,1.07 -3.8,2.6 -0.01,0.01 8.96,0.65 34.29,-3.91 7.27,-2.52 5.7,-5.36 1.56,-3.36 1.86,-8.43 0.26,-3.73 0.83,-3.53 4.43,-8.83 2.09,-3.16 9.12,-9.82 6.16,-4.8 8.14,-4.4 1.15,-0.43 0.1,-0.03 0.01,0 0.46,-6.35 -2.12,-2.86 -14.87,-1.7 -2.47,-1.27 -1.93,-2.24 -2.35,-3.66 -1.38,-1.59 -1.35,-0.73 -1.34,-0.56 -1.43,-1.05 -2.78,-3.99 -4.7,-14.48 -13.7,-0.06 -3.67,-0.99 -2.32,-1.76 -5.85,-7.06 -4.51,-2.87 -8.87,-4.39 -3.79,-3.89 -2.84,-4.37 -2.15,-4.29 -1.12,-4.44 0.25,-3.72 0.07,-1.09 1.13,-2.31 1.26,-1.69 0.11,-1.69 -2.3,-2.25 -1.63,-0.34 -5.01,0.16 -1.69,-0.17 -1.58,-2.87 -2.53,-1.87 -2.35,-2.16 -1.01,-3.78 1.56,-9.13 -0.18,-2.93 -1.52,-2.92 -2.62,-2.49 -3.14,-1.74 -3.08,-0.65 -1.19,-1.59 -5.19,-9.71 -2.2,-1.69 -1.72,-1.03 -0.58,-1.73 1.21,-3.81 3.79,-6.34 0.42,-3.05 -2.11,-3.83 -5.11,-3.96 -2.06,-2.77 2.62,-0.81 2.64,-0.2 7.57,-1.98 2.32,-1.29 3.43,-6.23 0.13,-7.87 -0.8,-8.15 0.62,-7.09 4.32,-10.85 1.67,-8.4 2.4,-6.65 0.22,-3.92 -2.88,-11.87 -1.18,-1.58 -6.61,2.45 -3.57,0.64 -3.26,-0.44 -5.67,-5.03 -2.89,-7.97 -0.89,-8.93 0.68,-10.52 0.65,-2.23 1.12,-1.94 1.82,-1.77 2.35,-1.06 2.88,-0.79 2.43,-1.25 1.02,-2.44 -0.05,-4.92 0.56,-5.62 2.3,-3.69 5.19,0.88 -0.5,-3.54 0.39,-9.48 -1.63,-10.36 0.15,-10.86 -0.13,-0.88 -1.76,-12 0.14,-6.75 -0.09,-3.48 -1.65,-6.77 -0.67,-8.53 -0.95,-4.45 0.89,-1.29 1.42,-1.09 0.98,-2.35 -0.32,-2.51 -1.24,-1.55 -1.39,-1.35 -0.74,-1.91 0.2,-2.34 0.93,-0.71 1.37,-0.17 1.5,-0.72 5.98,-5.4 3.01,-1.98 7.93,-3.53 2.87,-1.8 1.36,-2.76 -0.71,-4.46 -0.67,-0.62 -2.15,-0.35 -0.7,-0.62 -0.12,-0.86 0.15,-1.82 -0.44,-2.66 0.05,-2.08 -0.39,-1.88 -6.88,-5.74 -2.32,-6.87 -3.14,-6.68 -11.77,-5.55 -4.68,-3.39 -4.34,-4.03 -3.06,-3.56 -7.19,-4.92 -7.14,-10.03 -5.27,-11.39 -1.14,-6.67 -0.06,0 -0.07,0 -7,-0.97 -1.11,0.07 -5.72,1.16 -1.08,0.1 -1.12,0 z"
 />
  <path
     id="GH-AA"
     title="Greater Accra"
     d="m 707.18226,981.90819 0.01,-0.01 3.8,-2.6 3.59,-1.07 0.56,-0.67 0.5,-1.03 -0.31,-1.25 -0.53,-0.88 -0.61,-0.67 -0.7,-0.56 -1.47,-1.02 -2.57,-1.28 -3.87,-1.5 -2.51,-1.58 -2,-1.51 -2.02,-2.51 -6.32,-17.3 -1.81,-1.92 -1.48,-1.13 -2.48,-1.22 -14.02,-3.16 -14.6,-0.68 -0.14,0.03 -1.23,0.07 -1.81,0.36 -1.75,0.57 -3.16,1.73 -3.37,2.49 -1.25,1.35 -0.56,0.78 -1.39,2.73 -7.78,8.86 -2.75,2.59 -2.37,1.47 -1.01,0.34 -1.42,0.1 -1.12,-0.17 -0.97,-0.38 -0.72,-0.52 -1.87,-1.78 -1.14,-1.3 -2.37,-3.67 -0.56,-0.74 -0.78,-0.76 -4.93,-2.12 -0.78,-0.46 -1.45,-1.05 -1.28,-1.19 -1.04,-1.41 -2.39,-5.01 -0.67,-0.77 -1.14,-0.73 -2.32,-0.22 -2.49,0 -2.11,0.42 -1.31,0.39 -6.48,4.39 -2.13,1.04 -1.39,0.44 -0.62,0.07 -0.61,-0.25 -1.22,-1.44 -0.89,-0.69 -1.15,-0.62 -1.95,-0.7 -1.05,0.21 -0.68,0.66 -2.94,10.54 -0.71,1.07 -1.36,1.11 -7.56,3.08 -0.96,0.62 -0.69,0.84 -1.99,4.18 -1.93,6.97 -1.72,3.52 -0.46,0.74 -0.54,0.7 -0.92,0.91 -1.29,1.02 -2.52,1.51 -1.65,0.45 -1.38,0.1 -1.89,-0.64 -1.53,-0.93 -0.68,-0.57 -0.62,-0.63 -0.94,-0.67 -1.18,-0.53 -2.07,-0.3 -1.16,0.28 -0.96,0.49 -3.41,4.11 -1.06,0.81 -1.52,0.94 -3.07,1.49 -1.75,0.59 -1.46,0.34 -4.49,-0.17 -1.81,-0.27 -3.26,-1.26 -0.85,-0.4 -2.77,-1.01 -1.65,-0.92 -0.62,-0.64 -0.35,-0.81 0,-3.11 -1.13,-0.7 -2.01,-0.24 -7.75,0.59 -1.81,0.33 -1.54,0.51 -0.44,0.24 -0.47,0.35 -0.28,0.57 -0.2,0.56 -0.77,3.96 -0.02,1.55 0.08,0.99 0.14,0.79 0.41,1.37 6.67,13.18001 2.66,4.02 1.55,1.23 1.78,0.83 0.97,0.3 2.81,1.46 2.48,1.76 1.14,1.18 0.81,1.04 2.84,6.39 2.73,9.62 0.01,0 1.11,-0.55 8.13,-1.02 38.54,-12.5 2.85,-0.26 1.58,-0.56 1.05,-0.84 2.34,-2.35 0.84,-0.5 14.28,-4.82 2.9,-2.96 1.99,-3.26001 2.51,-2.66 6.99,-2.01 4.94,-4.62 2.75,-1.86 12.02,-3.26 3.41,-2.44 1.51,-0.53 4.34,-0.19 0.9,-0.52 0.91,-1.05 2.18,-0.87 4.28,-1 7.72,-0.41 55.43,4.05 z"
 />
  <path
     id="GH-WP"
     title="Western"
     d="m 210.74226,1166.2182 4.8,-0.19 2.42,-0.98 12.38,-1.58 2.54,-1.03 2.7,-2.58 4.34,-6.19 2.87,-2.54 13.77,-6.18 12.33,-3.52 1.68,-0.14 1.58,-0.31 0.09,-0.85 -0.32,-1.2 0.4,-1.32 5.18,-5.73 2.19,-1.67 12.3,-6.09 0.74,-0.67 1.13,-1.29 0.41,-1.43 -1.25,-2.71 0.28,-1.46 2.22,-1.77 3.06,-0.76 3.16,0.23 2.58,1.19 0.13,-0.08 -0.01,-0.04 -1.54,-11.7 0.07,-1.92 0.71,-4.4 0.59,-2.02 0.78,-1.84 3.52,-6.55 1.12,-1.35 0.68,-0.55 0.74,-0.52 0.78,-0.42 0.8,-0.32 1.79,-0.52 0.92,-0.14 2.48,0.04 0.99,-0.1 0.95,-0.21 0.79,-0.3 0.75,-0.44 0.73,-0.5 0.64,-0.61 2.21,-2.74 5.37,-4.18 0.57,-0.62 0.08,-0.99 -0.55,-1.37 -1.85,-2.13 -1.18,-1.12 -7.26,-4.64 -5.87,-5.32 -2.3,-2.68 -0.62,-1.04 -0.57,-1.35 -1.25,-3.99 -0.64,-1.33 -0.78,-1.03 -1.51,-1.46 -1.11,-0.75 -1.12,-0.58 -1.81,-0.71 -1.47,-1.09 -0.64,-0.64 -2.88,-3.48 -1.16,-3.16 -0.54,-2.12 -0.08,-1.05 0.08,-1.08 0.37,-2.09 0.56,-1.92 0.42,-0.82 0.57,-0.65 0.79,-0.41 0.83,-0.25 0.77,-0.45 0.53,-0.66 0.9,-1.46 0.22,-0.74 -0.09,-0.81 -0.2,-0.86 -1.71,-2.62 -2.28,-2.45 -2.4,-2.09 -3.23,-1.83 -1.71,-0.75 -1.92,-0.62 -2.2,-0.37 -4.32,-0.08 -1.05,-0.2 -0.93,-0.33 -0.85,-0.44 -2.07,-1.68 -0.82,-0.45 -0.93,-0.38 -1.11,-0.16 -1.09,-0.05 -2.07,0.23 -1.84,0.5 -5.98,2.38 -0.96,0.13 -1,-0.07 -0.87,-0.94 -0.73,-1.58 -0.62,-3.63 -0.06,-1.90001 0.17,-1.63 1.14,-2.9 0.98,-3.87 0.23,-1.98 -0.14,-3.61 0.12,-1.07 0.31,-0.95 0.45,-0.77 0.56,-0.7 1.24,-1.26 0.5,-0.67 0.07,-0.94 -0.39,-1.08 -1.32,-1.03 -2.3,-1.04 -0.71,-0.75 -0.43,-1.12 -0.16,-1.94 0.23,-2.76 0.73,-3.25 0.11,-1.07 -0.4,-1.61 -0.92,-1.87 -2.44,-3.38 -1.35,-1.52 -1.14,-0.99 -0.91,-0.36 -4.2,-1.02 -0.92,-0.41 -0.82,-0.46 -3.23,-2.51 -0.6,-0.59 -0.5,-0.57 -8.14,-11.79 -3.39,-3.53 -0.73,-0.49 -0.69,-0.56 -2.73,-1.43 -5.65,-2.37 -0.77,-0.42 -0.63,-0.49 -0.66,-0.82 -1.94,-4.84 -0.59,-1.1 -1.8,-1.93 -1.5,-0.99 -3.68,-1.25 -0.97,-0.21 -1.44,-0.49 -2.93,-1.38 -5.28,-3.54 -0.69,-0.72 -1.36,-2.26 -0.5,-1.43 -0.28,-1.16 -0.23,-2.33 0.11,-2.27 0.33,-2.16 0.27,-0.95 0.86,-1.07 1.4,-1.13 3.05,-1.65 4.89,-1.97 2.21,-1.57 2.93,-2.71 1.28,-1.79 0.91,-2.69 -4.17,0.18 -1.38,-0.2 -1.11,-0.49 -1.11,-1.26 -0.55,-1.06 -0.4,-1.03 -0.79,-2.9 -0.36,-0.88 -1.42,-2.24 -0.64,-0.61 -0.74,-0.52 -0.87,-0.39 -13.17,-3.06 -1.62,-0.8 -0.46,-0.81 -0.22,-0.93 -0.05,-1.1 0.25,-2.23 3.43,-10.2 0,-0.98 -0.09,-0.94 -0.13,-0.6 -0.23,-0.72 -0.51,-0.64 -0.86,-0.55 -1.42,-0.23 -1.42,0.22 -3.85,1.32 -1.37,0 -1.12,-0.26 -5.53,-3.41 -1.74,-0.78 -0.91,-0.27 -1.06,-0.05 -0.99,0.47 -0.96,0.87 -0.97,2.08 -0.46,1.44 -1.82,12.62 -0.5,1.98 -0.67,1.88 -0.86,1.81 -0.57,0.88 -2.32,2.25 -0.68,0.47 -1.62,0.79 -0.95,0.28 -1.13,0.11 -1.28,-0.01 -1.6,-0.19 -0.98,-0.64 -0.43,-0.45 0.55,-4.32 -1.4,-0.05 -1.62,-0.82 -2.35,-1.71 -2,-1.12 -0.91,-0.29 -1.06,-0.2 -4.94,-0.25 -1,-0.19 -1.01,-0.42 -0.84,-0.78 -7.97,-16.98 -0.75,-0.84 -1.09,-0.79 -2.09,-0.93 -3.59,-1.05 -0.88,-0.36 -0.87,-0.55 -0.85,-0.83 -0.95,-1.29 -0.74,-1.91 -0.77,-3.63 -0.7,-0.99 -1.14,-0.94 -2.36,-1.15 -1.67,-0.42 -1.51,-0.19 -6.789998,0.56 -2.32,-0.02 -1.98,-0.51 -0.82,-0.42 -7.02,-5.39 -1.68,-0.81 -4.86,-1.31 -0.88,-0.46 -0.72,-0.56 -0.56,-0.91 0.09,-1.27 -0.18,-1.51 -0.44,-1.75 -1.21,-2.89 -0.45,-1.83 -0.19,-1.54 0.13,-1.1 0.26,-0.98 1.46,-3.45 0.19,-0.95 -0.04,-1.01 -0.56,-1.9 -0.36,-0.85 -0.27,-0.95 -0.17,-0.99 -0.08,-3.21 -0.3,-1.16 -2.78,-6.18 -0.89,-3.82 -4.27,-7.92 -2.01,-2.29 -2.65,-2.34 -5.45,-3.02 -2.7,-1.11 -1.97,-0.45 -1.94,0.4 -6.8,2.79 -0.93,0.23 -1.01,0.04 -2.24,-0.22 -1.13,-0.44 -1.07,-0.61 -1.37,-1.08 -0.81,-0.84 -0.63,-0.8 -1.89,-3.4 -1.22,-3.68 -1.86,-9.48 -0.17,-0.61 -2.21,1.38 -20.7199998,35.64 -3.01,6.97 -0.25,6.54 0.78,1.83 2.25,2.9 2.42,4.69 0.42,1.2 -3.53,9.93 -0.97,1.18 -3.31,1.83 -1.30000002,1.9 -0.25,3.04 14.17999982,63.84 2.13,2.59 0.52,0.64 5.29,4.84 3.82,10.08 5.45,30.12 2.61,6.46 6.91,12.68 2.19,6.54 0.46,6.52 -1.75,20.6 11.66,-1 -1.81,11.28001 0.97,4.67 4.24,2.37 3.52,-0.44 5.84,-3.54 2.92,-1.17 12.8,3.31 2.3,1.87 1.41,2.36 0.68,2.92 0.42,9.45 3.19,12.91 4.9,11.51 0.77,3.24 -0.46,3.15 -1.78,2.27 -2.38,0.44 -6.06,-1.11 -1.17,11.16 0.51,2.5 2.5,3.61 0.8,2.08 -0.09,1.54 -0.76,3.77 0.14,1.65 0.57,0.62 2.37,2.03 0.98,1.16 -1.72,3.39 -2.57,1.83 -4.12,0.6 -7.15,-0.28 -0.01,0 -3.88,1.77 -6.45,1.03 -4.99,2.09 0.48,4.95 -1.96,0.59 -3.68,1.55 -2.37,0.33 -0.96,-0.68 -2.2,-3.18 -1.07,-1.06 -3.88,-1.14 -12.85,-0.09 -2.04,0.31 -1.67,0.66 -1.25,0.32 -0.78,2.97 2.85,0.65 24.92,7.65 25.88,4.55 23.429998,1.78 29.57,10.06 30.39,6.27 18.65,7.3 0.99,1.1 0.79,1.38 0.31,1.32 0.73,1.6 1.73,1.04 3.79,1.61 7.65,6.12 1.68,1.77 -0.19,0.83 2.02,0.2 2.72,0.83 1.45,0.21 2.33,0.65 0.42,1.63 -0.19,2.02 0.51,1.85 1.3,1.19 1.09,0.24 z"
 />
  <path
     id="GH-EP"
     title="Eastern"
     d="m 604.58226,728.87819 -1.5,-0.28 -2.12,-0.85 -3.94,-2.04 -1.81,-0.7 -2,-0.5 -45.4,-1.77 -10.32,1.85 -3.23,1.15 -1.38,1.08 -1.25,1.23 -3.55,4.49 -1.14,1.15 -2.21,1.83 -2.15,1.3 -8.93,3 -2.01,0.88 -1.35,0.8 -1.23,1.26 -0.57,0.9 -1.97,2.19 -1.7,0.51 -24,0.45 -2.73,0.57 -2.02,1.75 -32.28,45.24 -1.48,1.27 -1.15,0.72 -0.92,0.31 -12.96,1.82 -3.93,1.46 -4.36,2.08 -1.83,1.3 -1.16,1.14 -0.7,1.78 -0.49,1.96 -0.1,1.07 0.06,1.06 0.2,0.98 0.34,0.87 0.91,1.54 1.1,1.4 1.26,1.24 4.2,3.25 0.63,0.59 0.58,0.68 0.97,1.48 0.8,1.65 0.47,1.92 0.05,0.95 -0.06,0.62 -0.64,1.17 -1.15,1.45 -5.04,5.02 -1.01,1.45 -0.43,0.81 -0.86,1.19 -23.29,24.15 -7.7,12.13 -2.73,7.23 -2.09,7.89 -0.41,2.46 -0.47,1.39 -0.99,2.02 -0.79,1.09 -0.74,0.84 -1.39,1.08 -4.02,2.3 -0.36,0.73 0.28,0.57 0.55,0.66 0.47,0.74 0.32,0.91 0.11,1.03 0,1.11 -0.34,2.22 -0.43,1.42 -2.03,3.45 -0.44,0.99 0.13,0.8 0.28,0.73 -0.12,1.75 0.42,0.58 0.78,0.23 0.76,0.52 0.46,0.73 -0.06,1.12 -0.67,0.62 -2.22,0.63 -0.61,0.71 -0.3,1.01 -0.19,1.07 -1.25,3.98 -0.51,1.15 -1.53,2.55 -1.36,3.75 -0.17,1.25 0,0.15 -0.23,0.98 -1.1,2.37 -0.24,0.84 0.06,0.76 0.36,0.55 0.65,0.02 0.76,-0.14 0.88,0.05 0.64,0.42 0.56,0.65 0.07,2.44 -3.26,6.42 5.89,3.13 5.27,1.97 0.85,0.75 0.49,0.82 5.6,12.17 2.62,4.51 0.95,1.04 0.44,0.33 1.14,0.3 1.63,0.15 15.5,-0.22 1.29,0.14 1.66,0.35 2.68,0.89 1.39,0.76 1.76,1.29 1.17,0.39 1.62,0.14 4.45,-0.54 2.2,-0.49 2.03,-0.26 3.51,0.35 17.46,3.81 0.92,0.38 2.07,0.52 3.84,0.03 30.33,-2.44 4.81,0.77 8.07,3.15 -0.41,-1.37 -0.14,-0.79 -0.08,-0.99 0.02,-1.55 0.77,-3.96 0.2,-0.56 0.28,-0.57 0.47,-0.35 0.44,-0.24 1.54,-0.51 1.81,-0.33 7.75,-0.59 2.01,0.24 1.13,0.7 0,3.11 0.35,0.81 0.62,0.64 1.65,0.92 2.77,1.01 0.85,0.4 3.26,1.26 1.81,0.27 4.49,0.17 1.46,-0.34 1.75,-0.59 3.07,-1.49 1.52,-0.94 1.06,-0.81 3.41,-4.11 0.96,-0.49 1.16,-0.28 2.07,0.3 1.18,0.53 0.94,0.67 0.62,0.63 0.68,0.57 1.53,0.93 1.89,0.64 1.38,-0.1 1.65,-0.45 2.52,-1.51 1.29,-1.02 0.92,-0.91 0.54,-0.7 0.46,-0.74 1.72,-3.52 1.93,-6.97 1.99,-4.18 0.69,-0.84 0.96,-0.62 7.56,-3.08 1.36,-1.11 0.71,-1.07 2.94,-10.54 0.68,-0.66 1.05,-0.21 1.95,0.7 1.15,0.62 0.89,0.69 1.22,1.44 0.61,0.25 0.62,-0.07 1.39,-0.44 2.13,-1.04 6.48,-4.39 1.31,-0.39 2.11,-0.42 2.49,0 2.32,0.22 1.14,0.73 0.67,0.77 2.39,5.01 1.04,1.41 1.28,1.19 1.45,1.05 0.78,0.46 4.93,2.12 0.78,0.76 0.56,0.74 2.37,3.67 1.14,1.3 1.87,1.78 0.72,0.52 0.97,0.38 1.12,0.17 1.42,-0.1 1.01,-0.34 2.37,-1.47 2.75,-2.59 7.78,-8.86 0.47,-16.54 -0.27,-1.46 -0.73,-1.28 -6.24,-3.68 -3.81,-3.17 -2.29,-1.35 -3.13,-0.43 -12.32,0.31 -3.2,-0.98 -8.47,-6.44 -1.12,-1.87 -0.19,-3.04 0.62,-3.22 1.3,-2.38 0.88,-2.28 -0.38,-3.18 -1.22,-3.46 -0.97,-1.91 0.8,-1.02 8.06,-3.1 3.03,-1.78 2.87,-2.13 0.58,-0.61 0.56,-0.67 0.97,-1.51 0.42,-0.83 5.19,-15.8 0.14,-1.49 -0.08,-1.64 -0.73,-2.54 -0.78,-1.2 -0.81,-0.86 -2.28,-1.44 -1.26,-1.24 -0.95,-1.54 -0.3,-0.84 -0.28,-0.97 -0.73,-4.19 -0.5,-1.91 -0.44,-0.8 -0.61,-0.62 -0.81,-0.47 -0.89,-0.3 -0.92,-0.17 -5.3,0.38 -0.92,-0.26 -0.53,-0.66 0.08,-2.27 0.56,-3.38 2.84,-10.64 0.85,-2.08 0.52,-0.7 0.59,-0.64 0.53,-0.72 0.61,-0.63 0.53,-0.68 2.42,-2.5 0.73,-0.56 7.08,-4.13 0.61,-0.57 0.56,-0.71 0.3,-1.44 0.11,-2.05 -1.03,-7.76 -0.72,-1.69 -0.97,-1.55 -1.17,-1.29 -1.4,-1.09 -1.73,-0.82 -2.73,-0.96 -0.78,-0.46 -0.67,-0.57 -0.55,-0.68 -0.81,-1.61 -0.59,-1.94 0.11,-1.78 0.51,-2.34 1.67,-4.72 0.97,-2.12 0.86,-1.46 3.18,-2.99 0.69,-0.53 2.52,-2.46 1.53,-2.16 0.45,-0.94 0.33,-1.89 0.17,-2.86 -0.42,-5.13 -0.75,-4.19 -0.31,-0.91 0,-1.53 0.34,-2.04 1.14,-3.6 1.36,-3.11 0.48,-0.76 0.44,-3.21 -0.78,-9.69 -8.44,-2.99 -1.2,-0.07 -1.28,0.11 -2.76,1.18 -3.24,1.95 -2.62,1.08 -1,0.23 -1.25,0.03 z"
 />
  <path
     id="GH-CP"
     title="Central"
     d="m 226.44226,918.49819 -0.93,-1.09 -0.82,-2.16 -2.65,-14.01 0.38,-1.15 0.53,-0.92 0.61,-0.63 0.36,-0.81 0.17,-1.04 -0.28,-2.62 0.07,-1.16 0.29,-0.98 0.81,-1.7 0.26,-0.88 0.1,-0.94 -0.13,-0.83 -0.37,-1.27 -2.15,-1.28 -8.3,-0.39 -0.91,2.69 -1.28,1.79 -2.93,2.71 -2.21,1.57 -4.89,1.97 -3.05,1.65 -1.4,1.13 -0.86,1.07 -0.27,0.95 -0.33,2.16 -0.11,2.27 0.23,2.33 0.28,1.16 0.5,1.43 1.36,2.26 0.69,0.72 5.28,3.54 2.93,1.38 1.44,0.49 0.97,0.21 3.68,1.25 1.5,0.99 1.8,1.93 0.59,1.1 1.94,4.84 0.66,0.82 0.63,0.49 0.77,0.42 5.65,2.37 2.73,1.43 0.69,0.56 0.73,0.49 3.39,3.53 8.14,11.79 0.5,0.57 0.6,0.59 3.23,2.51 0.82,0.46 0.92,0.41 4.2,1.02 0.91,0.36 1.14,0.99 1.35,1.52 2.44,3.38 0.92,1.87 0.4,1.61 -0.11,1.07 -0.73,3.25 -0.23,2.76 0.16,1.94 0.43,1.12 0.71,0.75 2.3,1.04 1.32,1.03 0.39,1.08 -0.07,0.94 -0.5,0.67 -1.24,1.26 -0.56,0.7 -0.45,0.77 -0.31,0.95 -0.12,1.07 0.14,3.61 -0.23,1.98 -0.98,3.87 -1.14,2.9 -0.17,1.63 0.06,1.90001 0.62,3.63 0.73,1.58 0.87,0.94 1,0.07 0.96,-0.13 5.98,-2.38 1.84,-0.5 2.07,-0.23 1.09,0.05 1.11,0.16 0.93,0.38 0.82,0.45 2.07,1.68 0.85,0.44 0.93,0.33 1.05,0.2 4.32,0.08 2.2,0.37 1.92,0.62 1.71,0.75 3.23,1.83 2.4,2.09 2.28,2.45 1.71,2.62 0.2,0.86 0.09,0.81 -0.22,0.74 -0.9,1.46 -0.53,0.66 -0.77,0.45 -0.83,0.25 -0.79,0.41 -0.57,0.65 -0.42,0.82 -0.56,1.92 -0.37,2.09 -0.08,1.08 0.08,1.05 0.54,2.12 1.16,3.16 2.88,3.48 0.64,0.64 1.47,1.09 1.81,0.71 1.12,0.58 1.11,0.75 1.51,1.46 0.78,1.03 0.64,1.33 1.25,3.99 0.57,1.35 0.62,1.04 2.3,2.68 5.87,5.32 7.26,4.64 1.18,1.12 1.85,2.13 0.55,1.37 -0.08,0.99 -0.57,0.62 -5.37,4.18 -2.21,2.74 -0.64,0.61 -0.73,0.5 -0.75,0.44 -0.79,0.3 -0.95,0.21 -0.99,0.1 -2.48,-0.04 -0.92,0.14 -1.79,0.52 -0.8,0.32 -0.78,0.42 -0.74,0.52 -0.68,0.55 -1.12,1.35 -3.52,6.55 -0.78,1.84 -0.59,2.02 -0.71,4.4 -0.07,1.92 1.54,11.7 0.01,0.04 0,-0.01 3.04,-2.18 4.05,-1.53 12.5,-1.78 6.51,-3.19 3.33,-1.08 1.82,-0.09 3.71,0.23 1.82,-0.14 1.95,-0.79 4.16,-2.48 1.93,-0.54 11.69,-0.35 3.68,-0.76 7.11,-3.22 3.67,-2.16 1.6,-1.56 1.9,-2.65 18.74,-8.08 2.87,-0.77 2.96,-0.26 2.21,-1.83 1.43,-0.4 0.65,1.63 0.91,1.61 2.13,0.09 4.32,-1.1 4.44,-0.31 1.7,-0.59 1.22,-1.55 2.63,2.34 4.12,0.18 13.36,-1.95 2.7,-1.7 4.27,-5.04 10.49,-8.62 2.3,-0.86 9.29,-6.52 1.49,2.56 2.98,-0.96 2.91,-2.21 1.32,-1.3 2.15,-0.02 12.56,-3.11 6.44,-3.96 2.42,-2.51 0.94,-2.78 1.4,-2.03 13.2,-11.07 2.2,-1.07 -2.73,-9.62 -2.84,-6.39 -0.81,-1.04 -1.14,-1.18 -2.48,-1.76 -2.81,-1.46 -0.97,-0.3 -1.78,-0.83 -1.55,-1.23 -2.66,-4.02 -6.67,-13.18001 -8.07,-3.15 -4.81,-0.77 -30.33,2.44 -3.84,-0.03 -2.07,-0.52 -0.92,-0.38 -17.46,-3.81 -3.51,-0.35 -2.03,0.26 -2.2,0.49 -4.45,0.54 -1.62,-0.14 -1.17,-0.39 -1.76,-1.29 -1.39,-0.76 -2.68,-0.89 -1.66,-0.35 -1.29,-0.14 -15.5,0.22 -1.63,-0.15 -1.14,-0.3 -0.44,-0.33 -0.95,-1.04 -2.62,-4.51 -5.6,-12.17 -0.49,-0.82 -0.85,-0.75 -5.27,-1.97 -5.89,-3.13 -0.21,0.92 -0.23,0.33 -0.39,0.4 -1.23,0.84 -0.29,0.86 -0.17,0.88 -0.23,0.63 -0.47,-0.08 -0.55,-0.59 -0.55,-0.3 -0.94,0.21 -1.47,1.05 -0.84,0.38 -0.93,0.3 -0.96,0.01 -0.77,-0.14 -0.5,-0.92 -0.37,-0.91 -0.28,-1.02 -0.39,-0.82 -0.72,-0.44 -1.21,0.16 -1,0.25 -1.02,-0.04 -0.96,-0.38 -1.2,-0.91 -4.1,-1.08 -1.45,0.02 -1.04,0.28 -0.6,0.6 -0.81,0.35 -0.91,0.18 -1.03,0.04 -3.41,0.63 -0.62,0.68 -0.5,0.71 -0.55,0.53 -1.58,0.26 -0.73,0.3 -0.82,0.26 -2,-0.05 -1.74,0.38 -0.35,0.59 0.11,0.73 0.28,0.74 0.08,0.86 -1.02,2.42 -0.48,0.69 -0.76,0.33 -0.87,-0.08 -1.61,-0.56 -1.64,-0.76 -2.87,-1.69 -0.69,-1.17 -0.06,-0.89 0.72,-0.44 0.84,-0.11 0.72,-0.21 0.35,-0.57 -0.01,-0.83 -0.42,-0.95 -0.74,-1 -1.41,-1.38 -1.06,-0.65 -2.9,-0.53 -1.71,-0.57 -0.98,0.12 -0.9,0.21 -0.97,0.09 -1.93,-0.06 -1.67,0.5 -1.03,0.02 -1.44,-0.53 -2.23,-0.12 -1.91,0.35 -4.05,0.28 -1.99,0.4 -1.23,-0.03 -0.91,0.33 -1.16,0.07 -1.63,-0.37 -2.71,-1.42 -1.52,-0.6 -1.2,-0.7 -0.86,-1.42 -0.88,-0.87 -4.9,-1.98 -1.97,-0.09 -2.52,-0.53 -0.63,-0.56 -0.53,-1.07 -0.62,-0.67 -3.88,-1.96 -0.84,-0.72 -0.3,-1.3 -0.02,-0.91 0.05,-0.63 0.22,-1.04 0.26,-0.81 0.03,-0.87 -0.36,-0.81 -2.44,-1.11 -1.88,-0.18 -0.85,0.11 -0.66,0.34 -1.08,1.08 -0.67,0.42 -0.84,0.31 -1.2,0.01 -1.46,-0.24 -2.28,-1.11 -1.17,0.05 -0.78,0.43 -0.44,0.75 -0.54,0.6 -0.85,0.04 -1.13,-0.33 -1.63,-1.48 -2.92,-3.71 -0.66,-0.66 -0.71,-0.24 -0.78,0.03 -1.11,-0.95 -1.12,-1.91 -2.55,-7.11 -0.87,-1.55 -1.15,-0.45 -0.92,0.07 -1.41,0.51 -0.57,0.05 z"
 />
  <path
     id="GH-BA"
     title="Brong Ahafo"
     d="m 133.24226,444.64819 -7.23,-7.89 -3.8,-2.04 -1.39,-0.28 -0.54,-0.29 -0.52,-0.78 -1.08,0.57 0.85,2.85 8.27,50.88 8.26,50.85 -1.23,2.77 -8.07,4.77 -2.45,0.83 -2.07,-0.22 -2.28,-1.08 -1.48,-0.09 -1.15,1.08 -1.26,2.42 -0.76,2.86 0.44,2.29 2.37,5.23 1.16,4.34 -0.16,3.16 -1.78,2.35 -3.7,1.89 -10.72,3.6 -3.299998,2.36 -8.2,9.49 -2.93,2.48 -0.25,-0.59 -0.91,-1.03 -1.2,-0.79 -1.13,0.13 -0.52,1.33 -0.78,13.54 -0.59,2 -1.43,1.55 -4,2.42 -1.54,1.47 -0.15,0.91 0.52,2.35 -0.04,0.98 -0.7,1.19 -1.8,2.2 -0.7,1.19 -12.97,27.89 -2.4,7.34 -8.79,55.52 0.17,2.12 1.13,2.53 1.2,1.49 0.8,1.47 -0.13,2.47 -1.59,3.52 -8.24,10.34 -0.91,1.82 -1.48,9.05 -0.91,1.28 -8.9,2.91 -0.2,0.13 -0.12,0.08 0.17,0.61 1.86,9.48 1.22,3.68 1.89,3.4 0.63,0.8 0.81,0.84 1.37,1.08 1.07,0.61 1.13,0.44 2.24,0.22 1.01,-0.04 0.93,-0.23 6.8,-2.79 1.94,-0.4 1.97,0.45 2.7,1.11 5.45,3.02 2.65,2.34 2.01,2.29 4.27,7.92 0.89,3.82 2.78,6.18 0.3,1.16 0.08,3.21 0.17,0.99 0.27,0.95 0.36,0.85 0.56,1.9 0.04,1.01 -0.19,0.95 -1.46,3.45 -0.26,0.98 -0.13,1.1 0.19,1.54 0.45,1.83 1.21,2.89 0.44,1.75 0.18,1.51 -0.09,1.27 0.56,0.91 0.72,0.56 0.88,0.46 4.86,1.31 1.68,0.81 7.02,5.39 0.82,0.42 1.98,0.51 2.32,0.02 6.789998,-0.56 1.51,0.19 1.67,0.42 2.36,1.15 1.14,0.94 0.7,0.99 0.77,3.63 0.74,1.91 0.95,1.29 0.85,0.83 0.87,0.55 0.88,0.36 3.59,1.05 2.09,0.93 1.09,0.79 0.75,0.84 7.97,16.98 0.84,0.78 1.01,0.42 1,0.19 4.94,0.25 1.06,0.2 0.91,0.29 2,1.12 2.35,1.71 1.62,0.82 1.4,0.05 0.31,-1.75 0,-0.84 -0.27,-0.93 -0.6,-0.6 -1.87,-0.65 -0.71,-0.5 -0.39,-0.7 0.03,-0.91 0.37,-0.79 0.99,-1.24 0.02,-0.76 -0.68,-1.31 0.06,-0.73 1.39,-2.15 0.57,-1.9 0.44,-0.92 0.64,-0.79 0.98,-0.83 0.89,-1.96 0.5,-0.86 0.71,-0.73 1,-0.78 1.17,-1.61 0.64,-0.61 0.71,-0.53 0.54,-0.69 0.69,-1.78 0.57,-0.78 -0.06,-0.82 -0.26,-0.83 -0.87,-1.54 -0.16,-0.87 0.19,-0.87 0.41,-0.77 0.98,-1.42 0.14,-0.8 -0.31,-0.74 -0.54,-0.64 -2.32,-1.42 -0.61,-0.61 -0.31,-0.88 -0.25,-3.2 -0.37,-0.84 -0.67,-0.55 -1.67,-0.66 -0.53,-0.64 -0.17,-0.98 0.09,-1.05 0.62,-3.05 0.1,-1.02 0.19,-0.83 0.51,-0.52 1.4,0.13 4.46,1.04 2.37,0.22 1.69,-0.25 2.01,-0.51 3.69,-1.44 1.76,-0.9 1.19,-0.77 0.61,-0.65 0.53,-0.66 0.89,-1.77 0.72,-2 0.24,-1.03 1.31,-10.51 0.57,-1.91 0.4,-0.82 0.55,-0.76 0.6,-0.63 0.87,-0.63 1.05,-0.61 1.62,-0.68 1.02,-0.57 0.67,-0.63 0.18,-0.8 -0.26,-0.78 -0.49,-0.76 -0.67,-0.66 -0.73,-0.5 -0.9,-0.43 -2.07,-0.57 -3.52,-0.41 -9.09,-0.23 -6.42,1.83 -1.07,0.1 -0.97,-0.07 -0.95,-0.41 0.03,-0.61 0.2,-0.82 0.34,-0.94 0.57,-0.67 0.74,-0.47 1.68,-0.77 0.78,-0.45 2.06,-1.68 0.61,-0.64 1.03,-1.45 1.33,-1.14 0.57,-0.66 0.38,-0.86 0.45,-0.8 0.54,-0.66 0.47,-0.71 0.21,-0.83 -0.11,-2.87 0.23,-0.87 0.77,-1.57 0.2,-0.84 0.43,-0.74 0.04,-2.04 0.27,-0.87 0.43,-0.77 11.34,-12.48 2.2,-1.48 1.16,-0.36 1.44,-0.09 2.58,0.42 1.24,0.64 0.82,0.78 0.34,0.88 0.5,1.85 0.36,0.88 0.53,0.69 1.78,0.24 21.89,-1.24 3.47,-1.23 4.92,-2.81 4.88,-3.57 2.44,-2.67 4.21,-5.68 1.94,-1.94 1.24,-0.56 1.8,-0.47 3.8,-0.43 1.92,-0.41 1.42,-0.43 0.69,-0.55 0.5,-0.73 1.28,-3.64 0.16,-0.93 -0.45,-2.88 0.14,-0.99 0.34,-0.89 1.39,-2.4 0.18,-0.86 -0.01,-0.63 -0.51,-0.36 -8.83,-2.22 -1.8,-0.66 -1.49,-1.04 -4.74,-5.15 -6.79,-5.63 -0.71,-0.36 -0.82,-0.06 -0.65,0.06 -6.69,1.34 -1.03,0.03 -0.94,-0.25 -0.78,-0.41 -0.7,-0.6 -4,-4.68 -0.72,-0.52 -0.91,-0.36 -1.01,-0.2 -2.18,0 -2.15,0.21 -2.14,-0.28 -0.92,-0.3 -0.75,-0.35 -0.46,-0.35 -0.13,-0.59 0.06,-0.89 0.2,-0.99 0.71,-1.74 0.26,-0.9 0,-3.15 0.17,-1.04 0.25,-0.89 1.12,-1.28 0.44,-0.78 0.55,-1.96 0.35,-0.89 0.44,-0.82 0.29,-0.96 0.19,-1.08 0.27,-0.94 1.38,-0.55 2.35,0.02 8.47,1.33 2.65,-0.31 1.07,-0.53 1.5,-1.18 1.23,-0.27 4.42,0.09 1.48,-0.24 1.36,-0.09 1.04,0.19 2,1.19 1.24,0.39 1.7,0.17 6.71,-0.24 1.02,-0.21 1.83,-0.67 3.95,-0.98 1.2,-0.06 1.21,0.2 1.48,0.85 0.68,0.97 0.35,1.12 0.44,7.95 0.43,2.05 0.35,0.84 0.5,0.73 1.61,0.84 2.88,0.92 3.96,2.23 2.12,1.72 1.68,2 0.63,0.61 0.9,0.49 1.13,0.18 1.75,-0.32 1.19,-0.34 3.72,-1.43 0.96,-0.24 1.1,-0.07 1.25,0.14 2.76,1.29 1.44,0.4 1.66,0.12 2.96,-0.36 1.43,-0.56 1.04,-0.66 1.23,-1.3 2.79,-4.62 1.88,-1.87 1.54,-0.93 0.92,-0.32 1.3,-0.15 4.17,-0.07 1.76,-0.33 1.97,-0.69 0.58,-1.02 0.23,-1.1 -0.13,-1.09 -1.02,-3.93 -1.38,-3.52 -0.25,-0.93 -0.01,-0.94 0.25,-0.7 0.24,-0.43 0.49,-0.56 5.3,-3.86 7.25,-4.33 1.38,-1.11 2.19,-2.8 5.87,-9.4 1.24,-1.32 0.67,-0.57 1.55,-0.88 0.91,-0.37 0.91,-0.27 0.99,-0.15 1.29,0.2 1.62,0.56 2.57,1.58 1.23,1.06 0.86,0.96 0.83,1.61 1.3,3.6 0.32,1.91 0.38,8.79 0.42,1.75 0.67,1.69 0.42,0.8 1.03,1.46 0.96,1.13 0.97,0.82 1.4,0.49 2.02,0.52 4.2,0.55 3.88,0.11 3.98,-0.61 3.47,0.02 1.02,-0.21 1,-0.34 0.83,-0.36 0.92,-0.29 1.95,-0.28 0.98,-0.29 1.14,-0.22 1.66,-0.08 2.7,-0.58 2.03,-0.14 3.34,-0.85 0.72,-0.52 0.5,-0.73 0.67,-1.87 0.43,-0.83 0.54,-0.68 1.28,-1.21 2.25,-1.51 0.56,-0.65 0.99,-1.5 0.54,-0.64 1.14,-0.36 1.59,0.01 5.14,0.73 0.9,0.37 1.59,1.65 0.89,0.47 1.4,-0.01 2.19,-0.45 0.92,-0.04 0.89,0.29 1.38,1.77 0.8,0.7 0.92,0.4 1.7,-0.02 2.38,-0.26 2.05,0.12 0.88,-0.12 1.25,-1.06 0.88,-0.43 1.22,-0.16 1.58,0.04 1.18,-0.12 1.15,0.17 1.89,1.12 1.6,0.69 2.47,0.63 1.33,0.15 0.94,0.37 0.27,0.69 0.53,0.65 0.75,0.28 1.07,-0.34 0.73,-0.6 0.61,-0.75 0.85,-1.69 0.47,-0.51 0.7,-0.15 1.12,0.93 1.31,0.21 1.01,-0.15 2.66,-2.39 1.59,-0.88 3.67,-1.26 0.82,-0.42 0.69,-0.51 1.44,0.26 2.09,1.2 4.35,3.67 3.13,3.25 4.12,6.72 3.21,7.81 1.84,3.08 1.16,1.29 1.13,0.78 1.56,0.8 5.49,1.72 18.74,3.32 25.33,9.33 0.97,0.45 1,0.62 3.5,4.49 7.99,14.22 45.4,1.77 2,0.5 1.81,0.7 3.94,2.04 2.12,0.85 1.5,0.28 1.25,-0.03 1,-0.23 2.62,-1.08 3.24,-1.95 2.76,-1.18 1.28,-0.11 1.2,0.07 8.44,2.99 -0.83,-5.68 0,-1.05 0.22,-2.12 3.03,-9.59 0.73,-5.51 0.03,-2.39 -0.81,-5.39 -0.67,-1.13 -1.03,-1.23 -2.26,-1.93 -1.42,-0.88 -1.22,-0.62 -4.91,-1.38 -6.63,-3.34 -0.79,-0.82 -0.72,-1.15 -0.78,-2.17 -0.33,-1.51 -0.56,-10.77 -0.25,-1.01 -2.12,-5.24 -11.84,-20.4 -4.3,-11.91 -0.25,-2.3 -0.67,-1.85 -1,-1.36 -2.12,-1.34 -1.33,-0.47 -4.03,-0.61 -1.92,-0.46 -1.78,-0.75 -1.65,-1.28 -1.44,-1.52 -4.4,-7.03 -0.44,-0.96 -0.58,-1.83 -0.77,-6.52 -0.49,-1.94 -7.73,-18.19 -2.1,-3.34 -2.13,-2.56 -25.02,-20.17 -3.54,-1.72 -10.24,-2.72 -1.91,0.64 -3.23,0.19 -7.34,-1.13 -3.32,-1.16 -9.98,-5.84 -18.6,-15.11 -0.53,-0.71 -0.6,-0.66 -0.55,-0.71 -0.61,-0.63 -2.07,-2.83 -2.95,-3.13 -1.38,-1.09 -0.84,-0.4 -0.99,-0.31 -1.16,-0.2 -4.05,0.27 -4.01,0.77 -1.81,0.11 -2.28,-0.14 -3.46,-0.57 -2.24,-0.13 -1.02,0.1 -0.8,0.14 -0.57,0.21 -0.54,0.31 -0.6,0.45 -1.17,1.28 -2.25,2.99 -1.19,1.28 -1.3,1.17 -0.77,0.45 -0.83,0.39 -2.61,0.83 -1.72,0.79 -1.63,0.95 -1.51,1.22 -0.53,0.58 -0.51,0.7 -0.45,0.76 -2.85,7.57 -0.87,1.61 -1.15,1.37 -2.65,2.45 -1.44,1.01 -0.85,0.37 -5.74,1.39 -1.64,0.66 -0.8,0.48 -0.67,0.59 -0.54,0.81 -0.42,0.8 -0.34,0.94 -0.21,1.03 -0.14,1.14 0,1.17 0.35,1.99 0.75,1.61 1.91,3.07 0.69,1.61 0.25,0.92 0.19,0.97 0.06,4.38 -0.16,1.15 -0.28,1.06 -0.55,0.87 -0.78,0.65 -0.87,0.42 -0.73,0.47 -0.56,0.43 -0.33,0.4 -1.54,3.03 -1.08,1.44 -0.91,1.55 -0.59,0.46 -0.88,-0.18 -1.35,-0.97 -1.21,-0.68 -1.85,-0.51 -1.29,-0.74 -1.01,-1.65 -19.13,-53.73 -1.89,-3.25 -2.45,-3.21 -4.92,-3.24 -1.84,-1.72 -0.94,-1.29 0.24,-0.93 0.4,-0.85 0.48,-0.76 1.13,-1.45 1.25,-1.24 0.71,-0.53 1.29,-1.2 0.54,-0.62 0.56,-0.75 0.41,-0.81 0.31,-0.98 0.16,-1.08 0.12,-5.96 0.19,-1.06 0.28,-0.95 0.86,-1.68 1.06,-1.41 9.2,-8.33 1.06,-1.28 1.87,-3.51 0.65,-1.84 0.16,-1.02 0,-0.99 -0.09,-0.87 -0.71,-2.91 -2.63,-6.07 -0.87,-4.01 -0.97,-2.76 -0.95,-0.69 -1.52,-0.44 -3.81,0 -2.74,-0.24 -3.84,-0.78 -3.1,-1 -1.52,-0.8 -8.95,-6.04 -2.64,-2.21 -1.63,-1.78 -0.69,-0.56 -1.25,-1.24 -0.71,-0.55 -1.66,-0.8 -2.05,-0.54 -2.22,-0.13 -9.65,0.37 -4.39,0.62 -2.92,1.9 -0.65,0.61 -0.58,0.69 -0.47,0.79 -0.39,0.88 -0.27,0.94 -1.03,5.33 -0.41,0.87 -0.58,0.66 -0.72,0.55 -1.56,0.89 -3.44,1.5 -2.05,0.46 -4.4,0.45 -1.82,-0.08 -10.65,-2.1 -1.41,0.01 -2.23,0.64 -1.25,0.58 -0.94,0.7 -0.5,0.72 -0.42,0.84 -0.59,1.87 -0.45,0.87 -0.55,0.68 -1.27,1.08 -2.3,0.59 -5.27,2.36 -13.38,-4.29 -7.32,3.18 -2.34,3.08 -1.52,3.54 -0.8,3.8 -0.24,3.89 0.5,10.91 -0.5,3.41 -0.77,2.11 -0.97,1.77 -2.5,2.99 -0.9,1.72 0.34,1.6 0.79,1.48 0.44,1.4 0.35,3.33 0.99,3.1 1.51,2.53 1.94,1.63 6.82,1.15 6.88,-0.57 5.59,1.31 3,6.78 0.12,3.27 -0.62,3.21 -1.8,2.46 -3.38,0.98 -3.87,-0.86 -7.16,-3.54 -4.35,-0.45 -3.73,1.81 -2.95,3.38 -2.22,3.26 -1.53,1.46 -2.95,4.96 -1.15,1.16 -0.75,0.5 -17.12,3.52 -7.81,0.14 -6.5,-1.6 -3.11,-2.98 -4.64,-7.82 -5.5,-2.88 -5.06,-6.33 -2.54,-2.4 -2.74,-1.54 -2.38,-1.75 -1.7,-2.42 -1.42,-11.39 -1.68,-6.45 -2.17,-3.99 -0.28,-1.65 -0.77,-1.52 -3.37,-1.1 -0.77,-1.16 -1.12,-2.7 -2.18,-2.7 -1.45,-2.96 1.07,-3.41 -3.24,-6.33 -0.43,-1.85 -0.98,-1.54 -4.29,-2.63 -0.98,-1.97 -1.53,-4.14 -6.74,-5.23 -5.22,-9.91 -2.45,-2.48 -0.74,-0.29 -0.94,-0.06 -0.74,0.12 -0.15,0.23 z"
 />
  <path
     id="GH-AH"
     title="Ashanti"
     d="m 366.16226,674.33819 -3.88,-0.11 -4.2,-0.55 -2.02,-0.52 -1.4,-0.49 -0.97,-0.82 -0.96,-1.13 -1.03,-1.46 -0.42,-0.8 -0.67,-1.69 -0.42,-1.75 -0.38,-8.79 -0.32,-1.91 -1.3,-3.6 -0.83,-1.61 -0.86,-0.96 -1.23,-1.06 -2.57,-1.58 -1.62,-0.56 -1.29,-0.2 -0.99,0.15 -0.91,0.27 -0.91,0.37 -1.55,0.88 -0.67,0.57 -1.24,1.32 -5.87,9.4 -2.19,2.8 -1.38,1.11 -7.25,4.33 -5.3,3.86 -0.49,0.56 -0.24,0.43 -0.25,0.7 0.01,0.94 0.25,0.93 1.38,3.52 1.02,3.93 0.13,1.09 -0.23,1.1 -0.58,1.02 -1.97,0.69 -1.76,0.33 -4.17,0.07 -1.3,0.15 -0.92,0.32 -1.54,0.93 -1.88,1.87 -2.79,4.62 -1.23,1.3 -1.04,0.66 -1.43,0.56 -2.96,0.36 -1.66,-0.12 -1.44,-0.4 -2.76,-1.29 -1.25,-0.14 -1.1,0.07 -0.96,0.24 -3.72,1.43 -1.19,0.34 -1.75,0.32 -1.13,-0.18 -0.9,-0.49 -0.63,-0.61 -1.68,-2 -2.12,-1.72 -3.96,-2.23 -2.88,-0.92 -1.61,-0.84 -0.5,-0.73 -0.35,-0.84 -0.43,-2.05 -0.44,-7.95 -0.35,-1.12 -0.68,-0.97 -1.48,-0.85 -1.21,-0.2 -1.2,0.06 -3.95,0.98 -1.83,0.67 -1.02,0.21 -6.71,0.24 -1.7,-0.17 -1.24,-0.39 -2,-1.19 -1.04,-0.19 -1.36,0.09 -1.48,0.24 -4.42,-0.09 -1.23,0.27 -1.5,1.18 -1.07,0.53 -2.65,0.31 -8.47,-1.33 -2.35,-0.02 -1.38,0.55 -0.27,0.94 -0.19,1.08 -0.29,0.96 -0.44,0.82 -0.35,0.89 -0.55,1.96 -0.44,0.78 -1.12,1.28 -0.25,0.89 -0.17,1.04 0,3.15 -0.26,0.9 -0.71,1.74 -0.2,0.99 -0.06,0.89 0.13,0.59 0.46,0.35 0.75,0.35 0.92,0.3 2.14,0.28 2.15,-0.21 2.18,0 1.01,0.2 0.91,0.36 0.72,0.52 4,4.68 0.7,0.6 0.78,0.41 0.94,0.25 1.03,-0.03 6.69,-1.34 0.65,-0.06 0.82,0.06 0.71,0.36 6.79,5.63 4.74,5.15 1.49,1.04 1.8,0.66 8.83,2.22 0.51,0.36 0.01,0.63 -0.18,0.86 -1.39,2.4 -0.34,0.89 -0.14,0.99 0.45,2.88 -0.16,0.93 -1.28,3.64 -0.5,0.73 -0.69,0.55 -1.42,0.43 -1.92,0.41 -3.8,0.43 -1.8,0.47 -1.24,0.56 -1.94,1.94 -4.21,5.68 -2.44,2.67 -4.88,3.57 -4.92,2.81 -3.47,1.23 -21.89,1.24 -1.78,-0.24 -0.53,-0.69 -0.36,-0.88 -0.5,-1.85 -0.34,-0.88 -0.82,-0.78 -1.24,-0.64 -2.58,-0.42 -1.44,0.09 -1.16,0.36 -2.2,1.48 -11.34,12.48 -0.43,0.77 -0.27,0.87 -0.04,2.04 -0.43,0.74 -0.2,0.84 -0.77,1.57 -0.23,0.87 0.11,2.87 -0.21,0.83 -0.47,0.71 -0.54,0.66 -0.45,0.8 -0.38,0.86 -0.57,0.66 -1.33,1.14 -1.03,1.45 -0.61,0.64 -2.06,1.68 -0.78,0.45 -1.68,0.77 -0.74,0.47 -0.57,0.67 -0.34,0.94 -0.2,0.82 -0.03,0.61 0.95,0.41 0.97,0.07 1.07,-0.1 6.42,-1.83 9.09,0.23 3.52,0.41 2.07,0.57 0.9,0.43 0.73,0.5 0.67,0.66 0.49,0.76 0.26,0.78 -0.18,0.8 -0.67,0.63 -1.02,0.57 -1.62,0.68 -1.05,0.61 -0.87,0.63 -0.6,0.63 -0.55,0.76 -0.4,0.82 -0.57,1.91 -1.31,10.51 -0.24,1.03 -0.72,2 -0.89,1.77 -0.53,0.66 -0.61,0.65 -1.19,0.77 -1.76,0.9 -3.69,1.44 -2.01,0.51 -1.69,0.25 -2.37,-0.22 -4.46,-1.04 -1.4,-0.13 -0.51,0.52 -0.19,0.83 -0.1,1.02 -0.62,3.05 -0.09,1.05 0.17,0.98 0.53,0.64 1.67,0.66 0.67,0.55 0.37,0.84 0.25,3.2 0.31,0.88 0.61,0.61 2.32,1.42 0.54,0.64 0.31,0.74 -0.14,0.8 -0.98,1.42 -0.41,0.77 -0.19,0.87 0.16,0.87 0.87,1.54 0.26,0.83 0.06,0.82 -0.57,0.78 -0.69,1.78 -0.54,0.69 -0.71,0.53 -0.64,0.61 -1.17,1.61 -1,0.78 -0.71,0.73 -0.5,0.86 -0.89,1.96 -0.98,0.83 -0.64,0.79 -0.44,0.92 -0.57,1.9 -1.39,2.15 -0.06,0.73 0.68,1.31 -0.02,0.76 -0.99,1.24 -0.37,0.79 -0.03,0.91 0.39,0.7 0.71,0.5 1.87,0.65 0.6,0.6 0.27,0.93 0,0.84 -0.31,1.75 -0.55,4.32 0.43,0.45 0.98,0.64 1.6,0.19 1.28,0.01 1.13,-0.11 0.95,-0.28 1.62,-0.79 0.68,-0.47 2.32,-2.25 0.57,-0.88 0.86,-1.81 0.67,-1.88 0.5,-1.98 1.82,-12.62 0.46,-1.44 0.97,-2.08 0.96,-0.87 0.99,-0.47 1.06,0.05 0.91,0.27 1.74,0.78 5.53,3.41 1.12,0.26 1.37,0 3.85,-1.32 1.42,-0.22 1.42,0.23 0.86,0.55 0.51,0.64 0.23,0.72 0.13,0.6 0.09,0.94 0,0.98 -3.43,10.2 -0.25,2.23 0.05,1.1 0.22,0.93 0.46,0.81 1.62,0.8 13.17,3.06 0.87,0.39 0.74,0.52 0.64,0.61 1.42,2.24 0.36,0.88 0.79,2.9 0.4,1.03 0.55,1.06 1.11,1.26 1.11,0.49 1.38,0.2 4.17,-0.18 8.3,0.39 2.15,1.28 0.37,1.27 0.13,0.83 -0.1,0.94 -0.26,0.88 -0.81,1.7 -0.29,0.98 -0.07,1.16 0.28,2.62 -0.17,1.04 -0.36,0.81 -0.61,0.63 -0.53,0.92 -0.38,1.15 2.65,14.01 0.82,2.16 0.93,1.09 0.57,-0.05 1.41,-0.51 0.92,-0.07 1.15,0.45 0.87,1.55 2.55,7.11 1.12,1.91 1.11,0.95 0.78,-0.03 0.71,0.24 0.66,0.66 2.92,3.71 1.63,1.48 1.13,0.33 0.85,-0.04 0.54,-0.6 0.44,-0.75 0.78,-0.43 1.17,-0.05 2.28,1.11 1.46,0.24 1.2,-0.01 0.84,-0.31 0.67,-0.42 1.08,-1.08 0.66,-0.34 0.85,-0.11 1.88,0.18 2.44,1.11 0.36,0.81 -0.03,0.87 -0.26,0.81 -0.22,1.04 -0.05,0.63 0.02,0.91 0.3,1.3 0.84,0.72 3.88,1.96 0.62,0.67 0.53,1.07 0.63,0.56 2.52,0.53 1.97,0.09 4.9,1.98 0.88,0.87 0.86,1.42 1.2,0.7 1.52,0.6 2.71,1.42 1.63,0.37 1.16,-0.07 0.91,-0.33 1.23,0.03 1.99,-0.4 4.05,-0.28 1.91,-0.35 2.23,0.12 1.44,0.53 1.03,-0.02 1.67,-0.5 1.93,0.06 0.97,-0.09 0.9,-0.21 0.98,-0.12 1.71,0.57 2.9,0.53 1.06,0.65 1.41,1.38 0.74,1 0.42,0.95 0.01,0.83 -0.35,0.57 -0.72,0.21 -0.84,0.11 -0.72,0.44 0.06,0.89 0.69,1.17 2.87,1.69 1.64,0.76 1.61,0.56 0.87,0.08 0.76,-0.33 0.48,-0.69 1.02,-2.42 -0.08,-0.86 -0.28,-0.74 -0.11,-0.73 0.35,-0.59 1.74,-0.38 2,0.05 0.82,-0.26 0.73,-0.3 1.58,-0.26 0.55,-0.53 0.5,-0.71 0.62,-0.68 3.41,-0.63 1.03,-0.04 0.91,-0.18 0.81,-0.35 0.6,-0.6 1.04,-0.28 1.45,-0.02 4.1,1.08 1.2,0.91 0.96,0.38 1.02,0.04 1,-0.25 1.21,-0.16 0.72,0.44 0.39,0.82 0.28,1.02 0.37,0.91 0.5,0.92 0.77,0.14 0.96,-0.01 0.93,-0.3 0.84,-0.38 1.47,-1.05 0.94,-0.21 0.55,0.3 0.55,0.59 0.47,0.08 0.23,-0.63 0.17,-0.88 0.29,-0.86 1.23,-0.84 0.39,-0.4 0.23,-0.33 0.21,-0.92 3.26,-6.42 -0.07,-2.44 -0.56,-0.65 -0.64,-0.42 -0.88,-0.05 -0.76,0.14 -0.65,-0.02 -0.36,-0.55 -0.06,-0.76 0.24,-0.84 1.1,-2.37 0.23,-0.98 0,-0.15 0.17,-1.25 1.36,-3.75 1.53,-2.55 0.51,-1.15 1.25,-3.98 0.19,-1.07 0.3,-1.01 0.61,-0.71 2.22,-0.63 0.67,-0.62 0.06,-1.12 -0.46,-0.73 -0.76,-0.52 -0.78,-0.23 -0.42,-0.58 0.12,-1.75 -0.28,-0.73 -0.13,-0.8 0.44,-0.99 2.03,-3.45 0.43,-1.42 0.34,-2.22 0,-1.11 -0.11,-1.03 -0.32,-0.91 -0.47,-0.74 -0.55,-0.66 -0.28,-0.57 0.36,-0.73 4.02,-2.3 1.39,-1.08 0.74,-0.84 0.79,-1.09 0.99,-2.02 0.47,-1.39 0.41,-2.46 2.09,-7.89 2.73,-7.23 7.7,-12.13 23.29,-24.15 0.86,-1.19 0.43,-0.81 1.01,-1.45 5.04,-5.02 1.15,-1.45 0.64,-1.17 0.06,-0.62 -0.05,-0.95 -0.47,-1.92 -0.8,-1.65 -0.97,-1.48 -0.58,-0.68 -0.63,-0.59 -4.2,-3.25 -1.26,-1.24 -1.1,-1.4 -0.91,-1.54 -0.34,-0.87 -0.2,-0.98 -0.06,-1.06 0.1,-1.07 0.49,-1.96 0.7,-1.78 1.16,-1.14 1.83,-1.3 4.36,-2.08 3.93,-1.46 12.96,-1.82 0.92,-0.31 1.15,-0.72 1.48,-1.27 32.28,-45.24 2.02,-1.75 2.73,-0.57 24,-0.45 1.7,-0.51 1.97,-2.19 0.57,-0.9 1.23,-1.26 1.35,-0.8 2.01,-0.88 8.93,-3 2.15,-1.3 2.21,-1.83 1.14,-1.15 3.55,-4.49 1.25,-1.23 1.38,-1.08 3.23,-1.15 10.32,-1.85 -7.99,-14.22 -3.5,-4.49 -1,-0.62 -0.97,-0.45 -25.33,-9.33 -18.74,-3.32 -5.49,-1.72 -1.56,-0.8 -1.13,-0.78 -1.16,-1.29 -1.84,-3.08 -3.21,-7.81 -4.12,-6.72 -3.13,-3.25 -4.35,-3.67 -2.09,-1.2 -1.44,-0.26 -0.69,0.51 -0.82,0.42 -3.67,1.26 -1.59,0.88 -2.66,2.39 -1.01,0.15 -1.31,-0.21 -1.12,-0.93 -0.7,0.15 -0.47,0.51 -0.85,1.69 -0.61,0.75 -0.73,0.6 -1.07,0.34 -0.75,-0.28 -0.53,-0.65 -0.27,-0.69 -0.94,-0.37 -1.33,-0.15 -2.47,-0.63 -1.6,-0.69 -1.89,-1.12 -1.15,-0.17 -1.18,0.12 -1.58,-0.04 -1.22,0.16 -0.88,0.43 -1.25,1.06 -0.88,0.12 -2.05,-0.12 -2.38,0.26 -1.7,0.02 -0.92,-0.4 -0.8,-0.7 -1.38,-1.77 -0.89,-0.29 -0.92,0.04 -2.19,0.45 -1.4,0.01 -0.89,-0.47 -1.59,-1.65 -0.9,-0.37 -5.14,-0.73 -1.59,-0.01 -1.14,0.36 -0.54,0.64 -0.99,1.5 -0.56,0.65 -2.25,1.51 -1.28,1.21 -0.54,0.68 -0.43,0.83 -0.67,1.87 -0.5,0.73 -0.72,0.52 -3.34,0.85 -2.03,0.14 -2.7,0.58 -1.66,0.08 -1.14,0.22 -0.98,0.29 -1.95,0.28 -0.92,0.29 -0.83,0.36 -1,0.34 -1.02,0.21 -3.47,-0.02 -3.98,0.61 z"
 />
  <path
     id="GH-UW"
     title="Upper West"
     d="m 330.53226,26.838187 -2.24,-0.88 -22.7,-0.71 -3.12,0.99 -1.29,3.21 -2.1,1.19 -27.91,0.28 -39.3,0.39 -40.41,0.4 -43.44,0.43 -35.06,0.36 -16.849998,0.17 -3.94,0.04 -0.07,-1.94 -15.49,-0.29 0.25,1.06 -0.49,1.3 1.07,3.5 1.97,3.24 1.08,3.5 -1.01,4.19 -2.42,2.68 -2.86,2.2 -2.42,2.8 -1.32,3.81 -1.99,8.48 -3.02,4.95 -0.65,4.17 -0.98,1.74 -1.92,1.91 -0.55,1.09 0.43,1.85 0.18,0.82 0.36,0 0.77,0.15 0.83,0.4 0.52,0.81 0,1.18 -0.4,0.81 -0.5,0.7 -1.1,2.99 -2.41,4.37 -0.51,1.81 0.76,3.490003 5.39,9.61 0.43,1.8 0.3,3.89 0.48,1.79 0.83,1.07 2.43,2.43 0.53,0.86 0.55,3.57 1.4,2.31 6.31,5.58 2.21,1.14 2.92,0.49 4.39,0.11 0.7,0.79 -0.78,1.71 -1.64,1.72 -1.97,0.78 -2.33,0.18 -1.74,0.63 -1.38,1.12 -1.28,1.69 -1.23,2.67 -0.9,3.73 0,3.83 1.46,2.97 1.57,0.69 1.84,0.21 1.53,0.38 0.64,1.22 0.44,2.08 1.16,0.43 1.57,-0.05 1.73,0.66 1.79,1.11 1.17,0.55 0.61,0.97 0.1,2.35 -0.59,2.42 -1.34,1.61 -3.63,2.87 -2.35,3.76 -0.09,3.63 1.88,8.24 0,5.86 0,9.77 0.88,3.7 4.08,6.15 1.16,3.28 -0.21,4.67 -1.67,8.28 0.78,4.6 4.27,6.92 0.51,1.78 -1.14,1.86 -6.21,6.97 -3.01,6.09 -0.67,3.82 1.23,3.78 1.47,1.64 0.98,0.17 1,-0.11 1.57,0.79 0.91,1.47 0.22,1.67 0.58,1.67 1.37,1.06 20.319998,-2.8 1.28,-0.5 1.49,-1.01 1.49,-1.71 0.85,-1.19 1.03,-1.76 0.55,-0.74 0.86,-0.63 1.16,-0.57 3.26,-0.76 1.24,-0.5 0.94,-0.73 0.91,-1.5 1.12,-3.38 0.43,-0.85 0.99,-1.45 0.67,-0.61 1.08,-0.65 1.45,-0.66 2.76,-0.79 2.69,-0.49 8.94,-0.13 2.15,-0.32 16.64,-5.18 1.02,-0.11 15.95,1.19 1.1,-0.12 5.79,-1.71 2.13,-0.31 2.42,-0.05 4.74,0.36 2.11,0.48 4.36,0.6 6.8,-0.24 23.38,-5.22 11.65,0.75 2.27,-0.2 2.88,-0.55 0.69,0 10.02,1.28 4.36,-0.12 1.1,-0.61 1.06,-1.03 1.49,-2.59 1.16,-1.47 1.63,-1.19 4.19,-1.26 0.86,-0.42 0.65,-0.75 0.59,-1.18 0.36,-2 0.68,-2 0.26,-1.51 0.06,-1.25 -0.18,-1.07 -0.29,-0.95 -1.49,-2.24 -0.27,-0.84 -0.06,-0.94 0.07,-0.93 -0.25,-3.1 0.13,-1.06 0.73,-1.94 0,-0.02 0.38,-0.83 0.55,-0.78 0.82,-0.71 1.46,-0.7 1.15,-0.31 2.4,-1.39 1,-0.05 1.07,0.08 1.02,0.21 1.08,-0.03 0.96,-0.4 0.63,-0.76 0.18,-1.43 -0.53,-0.73 -0.86,-0.51 -3.02,-0.75 -0.47,-0.45 0.2,-0.56 1.12,-0.42 2.25,-0.39 0.88,-0.26 0.88,-0.17 0.89,0.17 1.76,0.67 1.09,0.15 1.06,0.02 0.86,-0.05 0.78,-0.23 2.29,-1.19 1.9,-0.7 0.72,-0.64 0.46,-1.06 -0.74,-1.32 -1.36,-1.47 -13.69,-12.22 -1.13,-1.33 0.05,-1.19 0.52,-1.24 2.91,-5.31 0.4,-1.25 0.19,-1.09 0.46,-7.08 0.46,-2.15 0.35,-0.98 1,-1.94 1.73,-2.42 2.23,-2.28 7.2,-5.35 2.53,-2.52 1.11,-1.47 3.57,-6.78 2.41,-3.13 0.64,-0.54 0.84,-0.48 1.34,-0.38 1.23,-0.15 1.23,-0.02 2.4,0.25 3.86,1.54 6.49,3.4 5.78,1.86 1.25,-1.16 0.21,-1.03 0.28,-3 -0.43,-3.69 -0.94,-3.22 -0.78,-1.54 -0.84,-1.01 -1.7,-0.78 -0.99,-0.11 -0.89,0.18 -0.77,0.46 -1.71,2.02 -0.59,0.51 -0.5,0.23 -0.42,0 -0.42,-0.3 -1.83,-1.67 -1.53,-0.87 -1.39,-1.06 -0.61,-0.65 -0.43,-0.81 -0.59,-1.92 -0.15,-1.05 0.34,-1.71 0.09,-1.17 -0.47,-1.23 -0.66,-0.64 -2.51,-1.29 -0.98,-0.24 -2.13,-0.26 -0.86,-0.35 -0.57,-0.55 -0.75,-1 -0.52,-0.53 -0.65,-0.5 -0.88,-0.37 -0.68,-0.57 -0.43,-0.82 -0.34,-0.92 -0.4,-0.85 -0.59,-0.67 -0.85,-0.39 -1.11,-0.13 -1.07,-0.04 -1.07,-0.19 -0.71,-0.51 -0.53,-0.74 -0.68,-1.81 -0.43,-0.82 -0.36,-0.89 -0.27,-0.97 -1.03,-6.450003 -0.32,-0.94 -0.78,-1.65 -0.18,-1.25 -0.06,-1.68 0.91,-5.17 0.53,-1.79 0.66,-1.49 1.67,-1.94 1.19,-0.94 1.08,-0.62 1.73,-0.79 0.99,-0.74 2.55,-3.04 2.49,-2.25 0.27,-0.76 0.16,-1.08 0.08,-2.33 0.33,-1.6 1.32,-1.8 2.7,-1.97 0.62,-0.65 0.81,-0.46 0.95,-0.32 0.84,-0.74 0.65,-1.22 0.08,-7.64 -0.26,-1.04 -0.09,-1.04 0.24,-1.01 0.71,-1.34 0.39,-1.5 0.07,-2.46 -0.32,-2.83 0.94,-3.59 3.54,-7.91 z"
 />
  <path
     id="GH-UE"
     title="Upper East"
     d="m 532.02226,0.29818714 -0.5,2.95999996 0.71,1.71 0.4,1.65 -1.41,2.72 -2.27,2.2299999 -9.01,6.62 -3.23,-3.88 -3.4,-2.76 -3.47,0 -3.45,4.4 -0.83,2.66 -0.4,4.15 -0.98,1.94 -2.12,1.74 -4.73,2.25 -1.68,2.1 0,0.02 -0.45,0.47 -0.54,0.4 -0.58,0.32 -0.63,0.2 -7,-0.24 -3.73,0.4 -2.58,0.97 -1.66,3.05 -1.31,4.49 -1.82,4.13 -3.15,1.96 -8.62,-8.35 0.54,-1.28 1.34,-1.45 0.77,-1.46 -1.06,-1.28 -1.67,-0.16 -1.26,0.47 -0.8,-0.17 -0.24,-2.07 -1.26,-0.02 -20.46,-0.38 0,-0.04 -0.93,-1.31 -1.01,-0.41 -1.06,0.45 -1.03,1.27 -3.84,0.64 -4.02,4.45 -3.13,0.44 1.2,-2.5 -1.88,0.07 -0.92,-0.58 -1.25,-2.48 -1.36,-0.95 -1.52,-0.31 -24.76,-1.97 -5.1,0.79 -1.58,2.78 -21.65,-0.2 -22.85,-0.23 -4.5,-0.83 -5.96,-2.34 -1.8,-0.71 -3.54,7.91 -0.94,3.59 0.32,2.83 -0.07,2.46 -0.39,1.5 -0.71,1.34 -0.24,1.01 0.09,1.04 0.26,1.04 -0.08,7.64 -0.65,1.22 -0.84,0.74 -0.95,0.32 -0.81,0.46 -0.62,0.65 -2.7,1.97 -1.32,1.8 -0.33,1.6 -0.08,2.33 -0.16,1.08 -0.27,0.76 -2.49,2.25 -2.55,3.04 -0.99,0.74 -1.73,0.79 -1.08,0.62 -1.19,0.94 -1.67,1.94 -0.66,1.49 -0.53,1.79 -0.91,5.17 0.06,1.68 0.18,1.25 0.78,1.65 0.32,0.94 1.03,6.450003 0.27,0.97 0.36,0.89 0.43,0.82 0.68,1.81 0.53,0.74 0.71,0.51 1.07,0.19 1.07,0.04 1.11,0.13 0.85,0.39 0.59,0.67 0.4,0.85 0.34,0.92 0.43,0.82 0.68,0.57 0.88,0.37 0.65,0.5 0.52,0.53 0.75,1 0.57,0.55 0.86,0.35 2.13,0.26 0.98,0.24 2.51,1.29 0.66,0.64 0.47,1.23 -0.09,1.17 -0.34,1.71 0.15,1.05 0.59,1.92 0.43,0.81 0.61,0.65 1.39,1.06 1.53,0.87 1.83,1.67 0.42,0.3 0.42,0 0.5,-0.23 0.59,-0.51 1.71,-2.02 0.77,-0.46 0.89,-0.18 0.99,0.11 1.7,0.78 0.84,1.01 0.78,1.54 0.94,3.22 0.43,3.69 -0.28,3 -0.21,1.03 -1.25,1.16 0.3,1.63 0.59,1.71 0.48,0.78 0.61,0.63 0.76,0.5 0.83,0.45 0.71,0.54 0.6,0.66 0.68,1.8 0.44,0.8 0.68,0.57 0.95,0.27 1.03,0.13 0.96,0.27 0.81,0.43 0.73,0.55 3.2,1.78 0.9,0.35 1.1,0.17 2.87,-0.11 1.2,0.13 0.84,0.49 0.42,0.81 0.34,0.91 0.81,0.5 1.12,0.05 2.42,-1.38 1.16,-1.01 0.78,-1.09 0.27,-1.01 0.16,-1.1 0.03,-1.18 -0.21,-2.24 -1.31,-6.14 -0.06,-1.07 0.05,-1.01 0.23,-0.96 0.37,-0.88 0.99,-1.5 1.28,-1.23 6.21,-3.05 1.37,-1.17 0.84,-1.14 0.77,-3.04 0.8,-1.75 0.51,-0.73 0.62,-0.67 0.65,-0.59 1.51,-0.97 18.83,-7.02 2.08,-0.5 1.34,-0.09 1.94,0.25 2.41,0.68 2.3,0.26 1.04,0.23 0.83,0.44 0.75,0.52 1.14,0.4 1.61,0.17 2.72,-0.08 1.1,0.46 0.24,0.67 -0.39,0.69 -0.89,0.99 -0.04,0.03 -0.04,0.05 -2.14,2.14 -0.42,0.68 0.01,0.76 0.71,0.37 1.18,-0.17 1.89,-0.96 1.96,-1.5 0.54,-0.63 0.86,-0.72 0.02,-0.02 7.1,-6.46 0.5,-0.76 0.4,-0.88 0.65,-1.87 0.49,-0.72 0.82,-0.94 0.39,-0.57 0.28,-0.79 0.18,-2 0.25,-0.97 0.79,-0.73 1.19,-0.63 1.97,-0.79 1.12,-0.72 0.83,-0.81 0.39,-0.91 0.41,-3.400003 0.33,-0.96 1.14,-0.6 1.82,-0.3 10.78,0.25 1.54,0.46 1.07,0.61 0.46,0.81 0.26,0.89 -0.09,0.96 -0.38,0.780003 -0.59,0.6 -0.39,0.68 -0.16,0.82 0.16,0.92 0.43,0.75 0.67,0.6 0.74,0.51 0.68,0.58 0.5,0.76 0.3,0.94 0.19,1.04 -0.03,1.12 -0.17,1.04 -0.29,0.99 -0.37,0.89 -0.55,0.72 -1.86,1.91 -0.36,0.83 -0.08,0.92 0.34,0.81 0.65,0.38 0.77,-0.11 1.56,-1.22 0.97,0.24 0.7,0.56 0.88,0.42 1.06,-0.06 1.63,-1.11 0.87,-0.91 1.15,-1.74 0.85,-0.59 1.17,-0.41 5.86,-0.05 2.68,0.94 1.04,-0.09 1.1,-0.42 2.26,-1.81 1.11,-0.61 1.19,-0.33 1.98,0.02 1.13,0.39 0.86,0.57 0.78,0.38 1.05,-0.1 1.07,-0.48 1.22,-1.21 0.63,-0.93 0.38,-0.91 1.09,-5.6 0.36,-0.92 0.43,-0.83 0.54,-0.73 0.73,-0.53 0.89,-0.210003 1.21,0.370003 0.76,0.62 1.31,1.33 0.8,0.43 1.02,0.23 3.25,0.28 1.21,-0.04 4.39,-1.19 8.29,-3.710003 1.49,-0.19 1.36,-0.9 2.34,-0.78 18.35,-3.92 8.69,-0.71 11.37,-5.88 3.46,-0.85 0.08,-0.02 0.62,-2.58 0.95,-7.65 1.37,-3.18 2.53,-3.24 3.67,-2.5 1.55,-1.49 0.33,-1.94 -0.92,-3.59 -0.14,-1.78 3.89,-18.37 0.87,-1.72 1.44,-1.52 1.58,-1.01 1.25,-1.25 0.43,-2.3 0.51,-6.48 -0.57,-5.66 -2.71,-4.29 -6,-2.3 -3.38,0.06 -6.1,1.62 -3.29,0.34 -3.3,-0.85 -3.65,-2.04 -2.98,-2.7699999 -1.34,-3.02 -24.35,-5.11999996 z"
 />
  <path
     id="GH-NP"
     title="Northern"
     d="m 618.51226,140.84819 -0.52,-0.64 -9.15,-17.15 -2.85,-3.04 -9.5,-6.01 -1.48,-1.79 -2.1,-4.06 -1.42,-1.71 -1.63,-1.01 -5.62,-1.87 -1.62,-1.11 -1.12,-1.1 -1.28,-0.86 -4.15,-0.530003 -2.14,-0.56 -1.97,-0.95 -1.58,-1.32 -1.84,-3.78 0.12,-3.81 1.1,-4.62 -0.08,0.02 -3.46,0.85 -11.37,5.88 -8.69,0.71 -18.35,3.92 -2.34,0.78 -1.36,0.9 -1.49,0.19 -8.29,3.710003 -4.39,1.19 -1.21,0.04 -3.25,-0.28 -1.02,-0.23 -0.8,-0.43 -1.31,-1.33 -0.76,-0.62 -1.21,-0.370003 -0.89,0.210003 -0.73,0.53 -0.54,0.73 -0.43,0.83 -0.36,0.92 -1.09,5.6 -0.38,0.91 -0.63,0.93 -1.22,1.21 -1.07,0.48 -1.05,0.1 -0.78,-0.38 -0.86,-0.57 -1.13,-0.39 -1.98,-0.02 -1.19,0.33 -1.11,0.61 -2.26,1.81 -1.1,0.42 -1.04,0.09 -2.68,-0.94 -5.86,0.05 -1.17,0.41 -0.85,0.59 -1.15,1.74 -0.87,0.91 -1.63,1.11 -1.06,0.06 -0.88,-0.42 -0.7,-0.56 -0.97,-0.24 -1.56,1.22 -0.77,0.11 -0.65,-0.38 -0.34,-0.81 0.08,-0.92 0.36,-0.83 1.86,-1.91 0.55,-0.72 0.37,-0.89 0.29,-0.99 0.17,-1.04 0.03,-1.12 -0.19,-1.04 -0.3,-0.94 -0.5,-0.76 -0.68,-0.58 -0.74,-0.51 -0.67,-0.6 -0.43,-0.75 -0.16,-0.92 0.16,-0.82 0.39,-0.68 0.59,-0.6 0.38,-0.780003 0.09,-0.96 -0.26,-0.89 -0.46,-0.81 -1.07,-0.61 -1.54,-0.46 -10.78,-0.25 -1.82,0.3 -1.14,0.6 -0.33,0.96 -0.41,3.400003 -0.39,0.91 -0.83,0.81 -1.12,0.72 -1.97,0.79 -1.19,0.63 -0.79,0.73 -0.25,0.97 -0.18,2 -0.28,0.79 -0.39,0.57 -0.82,0.94 -0.49,0.72 -0.65,1.87 -0.4,0.88 -0.5,0.76 -7.1,6.46 -0.02,0.02 -0.86,0.72 -0.54,0.63 -1.96,1.5 -1.89,0.96 -1.18,0.17 -0.71,-0.37 -0.01,-0.76 0.42,-0.68 2.14,-2.14 0.04,-0.05 0.04,-0.03 0.89,-0.99 0.39,-0.69 -0.24,-0.67 -1.1,-0.46 -2.72,0.08 -1.61,-0.17 -1.14,-0.4 -0.75,-0.52 -0.83,-0.44 -1.04,-0.23 -2.3,-0.26 -2.41,-0.68 -1.94,-0.25 -1.34,0.09 -2.08,0.5 -18.83,7.02 -1.51,0.97 -0.65,0.59 -0.62,0.67 -0.51,0.73 -0.8,1.75 -0.77,3.04 -0.84,1.14 -1.37,1.17 -6.21,3.05 -1.28,1.23 -0.99,1.5 -0.37,0.88 -0.23,0.96 -0.05,1.01 0.06,1.07 1.31,6.14 0.21,2.24 -0.03,1.18 -0.16,1.1 -0.27,1.01 -0.78,1.09 -1.16,1.01 -2.42,1.38 -1.12,-0.05 -0.81,-0.5 -0.34,-0.91 -0.42,-0.81 -0.84,-0.49 -1.2,-0.13 -2.87,0.11 -1.1,-0.17 -0.9,-0.35 -3.2,-1.78 -0.73,-0.55 -0.81,-0.43 -0.96,-0.27 -1.03,-0.13 -0.95,-0.27 -0.68,-0.57 -0.44,-0.8 -0.68,-1.8 -0.6,-0.66 -0.71,-0.54 -0.83,-0.45 -0.76,-0.5 -0.61,-0.63 -0.48,-0.78 -0.59,-1.71 -0.3,-1.63 -5.78,-1.86 -6.49,-3.4 -3.86,-1.54 -2.4,-0.25 -1.23,0.02 -1.23,0.15 -1.34,0.38 -0.84,0.48 -0.64,0.54 -2.41,3.13 -3.57,6.78 -1.11,1.47 -2.53,2.52 -7.2,5.35 -2.23,2.28 -1.73,2.42 -1,1.94 -0.35,0.98 -0.46,2.15 -0.46,7.08 -0.19,1.09 -0.4,1.25 -2.91,5.31 -0.52,1.24 -0.05,1.19 1.13,1.33 13.69,12.22 1.36,1.47 0.74,1.32 -0.46,1.06 -0.72,0.64 -1.9,0.7 -2.29,1.19 -0.78,0.23 -0.86,0.05 -1.06,-0.02 -1.09,-0.15 -1.76,-0.67 -0.89,-0.17 -0.88,0.17 -0.88,0.26 -2.25,0.39 -1.12,0.42 -0.2,0.56 0.47,0.45 3.02,0.75 0.86,0.51 0.53,0.73 -0.18,1.43 -0.63,0.76 -0.96,0.4 -1.08,0.03 -1.02,-0.21 -1.07,-0.08 -1,0.05 -2.4,1.39 -1.15,0.31 -1.46,0.7 -0.82,0.71 -0.55,0.78 -0.38,0.83 0,0.02 -0.73,1.94 -0.13,1.06 0.25,3.1 -0.07,0.93 0.06,0.94 0.27,0.84 1.49,2.24 0.29,0.95 0.18,1.07 -0.06,1.25 -0.26,1.51 -0.68,2 -0.36,2 -0.59,1.18 -0.65,0.75 -0.86,0.42 -4.19,1.26 -1.63,1.19 -1.16,1.47 -1.49,2.59 -1.06,1.03 -1.1,0.61 -4.36,0.12 -10.02,-1.28 -0.69,0 -2.88,0.55 -2.27,0.2 -11.65,-0.75 -23.38,5.22 -6.8,0.24 -4.36,-0.6 -2.11,-0.48 -4.74,-0.36 -2.42,0.05 -2.13,0.31 -5.79,1.71 -1.1,0.12 -15.95,-1.19 -1.02,0.11 -16.64,5.18 -2.15,0.32 -8.94,0.13 -2.69,0.49 -2.76,0.79 -1.45,0.66 -1.08,0.65 -0.67,0.61 -0.99,1.45 -0.43,0.85 -1.12,3.38 -0.91,1.5 -0.94,0.73 -1.24,0.5 -3.26,0.76 -1.16,0.57 -0.86,0.63 -0.55,0.74 -1.03,1.76 -0.85,1.19 -1.49,1.71 -1.49,1.01 -1.28,0.5 -20.319998,2.8 0.58,0.46 -2.3,1.99 -1.54,2.67 -0.89,2.98 -0.28,2.93 0.32,2.96 0.93,1.88 6.43,5.89 6.479998,8.22 2.43,3.1 0.19,2.59 -0.73,5.82 0.23,1.41 0.89,3.05 0,4.92 -0.91,3.09 -2.14,1.36 -2.45,1.15 -1.849998,2.42 -0.29,3.44 1.409998,2.8 2.54,1.88 3.14,0.7 2.82,1.56 -0.24,3.46 -2.15,3.46 -5.69,3 -2.099998,3.3 -3.13,6.44 -3.82,3.95 -0.76,1.51 -0.34,9.1 -0.74,2.86 -1.69,2.57 1.75,1 1.15,1.2 1.42,0.99 2.48,0.42 4.61,0.22 4.529998,1.03 4.54,2.42 1.16,2.93 0.19,3.71 2.8,8.53 1.07,0.82 1.21,0.18 1,0.43 0.41,1.57 0.22,3.12 3.66,12.68 -0.2,2.49 -1.9,1.06 -1.33,1.2 -0.46,2.32 0.87,1.43 0.04,0.06 1.62,-0.76 1.08,-0.57 0.52,0.78 0.54,0.29 1.39,0.28 3.8,2.04 7.23,7.89 0.15,-0.23 0.74,-0.12 0.94,0.06 0.74,0.29 2.45,2.48 5.22,9.91 6.74,5.23 1.53,4.14 0.98,1.97 4.29,2.63 0.98,1.54 0.43,1.85 3.24,6.33 -1.07,3.41 1.45,2.96 2.18,2.7 1.12,2.7 0.77,1.16 3.37,1.1 0.77,1.52 0.28,1.65 2.17,3.99 1.68,6.45 1.42,11.39 1.7,2.42 2.38,1.75 2.74,1.54 2.54,2.4 5.06,6.33 5.5,2.88 4.64,7.82 3.11,2.98 6.5,1.6 7.81,-0.14 17.12,-3.52 0.75,-0.5 1.15,-1.16 2.95,-4.96 1.53,-1.46 2.22,-3.26 2.95,-3.38 3.73,-1.81 4.35,0.45 7.16,3.54 3.87,0.86 3.38,-0.98 1.8,-2.46 0.62,-3.21 -0.12,-3.27 -3,-6.78 -5.59,-1.31 -6.88,0.57 -6.82,-1.15 -1.94,-1.63 -1.51,-2.53 -0.99,-3.1 -0.35,-3.33 -0.44,-1.4 -0.79,-1.48 -0.34,-1.6 0.9,-1.72 2.5,-2.99 0.97,-1.77 0.77,-2.11 0.5,-3.41 -0.5,-10.91 0.24,-3.89 0.8,-3.8 1.52,-3.54 2.34,-3.08 7.32,-3.18 13.38,4.29 5.27,-2.36 2.3,-0.59 1.27,-1.08 0.55,-0.68 0.45,-0.87 0.59,-1.87 0.42,-0.84 0.5,-0.72 0.94,-0.7 1.25,-0.58 2.23,-0.64 1.41,-0.01 10.65,2.1 1.82,0.08 4.4,-0.45 2.05,-0.46 3.44,-1.5 1.56,-0.89 0.72,-0.55 0.58,-0.66 0.41,-0.87 1.03,-5.33 0.27,-0.94 0.39,-0.88 0.47,-0.79 0.58,-0.69 0.65,-0.61 2.92,-1.9 4.39,-0.62 9.65,-0.37 2.22,0.13 2.05,0.54 1.66,0.8 0.71,0.55 1.25,1.24 0.69,0.56 1.63,1.78 2.64,2.21 8.95,6.04 1.52,0.8 3.1,1 3.84,0.78 2.74,0.24 3.81,0 1.52,0.44 0.95,0.69 0.97,2.76 0.87,4.01 2.63,6.07 0.71,2.91 0.09,0.87 0,0.99 -0.16,1.02 -0.65,1.84 -1.87,3.51 -1.06,1.28 -9.2,8.33 -1.06,1.41 -0.86,1.68 -0.28,0.95 -0.19,1.06 -0.12,5.96 -0.16,1.08 -0.31,0.98 -0.41,0.81 -0.56,0.75 -0.54,0.62 -1.29,1.2 -0.71,0.53 -1.25,1.24 -1.13,1.45 -0.48,0.76 -0.4,0.85 -0.24,0.93 0.94,1.29 1.84,1.72 4.92,3.24 2.45,3.21 1.89,3.25 19.13,53.73 1.01,1.65 1.29,0.74 1.85,0.51 1.21,0.68 1.35,0.97 0.88,0.18 0.59,-0.46 0.91,-1.55 1.08,-1.44 1.54,-3.03 0.33,-0.4 0.56,-0.43 0.73,-0.47 0.87,-0.42 0.78,-0.65 0.55,-0.87 0.28,-1.06 0.16,-1.15 -0.06,-4.38 -0.19,-0.97 -0.25,-0.92 -0.69,-1.61 -1.91,-3.07 -0.75,-1.61 -0.35,-1.99 0,-1.17 0.14,-1.14 0.21,-1.03 0.34,-0.94 0.42,-0.8 0.54,-0.81 0.67,-0.59 0.8,-0.48 1.64,-0.66 5.74,-1.39 0.85,-0.37 1.44,-1.01 2.65,-2.45 1.15,-1.37 0.87,-1.61 2.85,-7.57 0.45,-0.76 0.51,-0.7 0.53,-0.58 1.51,-1.22 1.63,-0.95 1.72,-0.79 2.61,-0.83 0.83,-0.39 0.77,-0.45 1.3,-1.17 1.19,-1.28 2.25,-2.99 1.17,-1.28 0.6,-0.45 0.54,-0.31 0.57,-0.21 0.8,-0.14 1.02,-0.1 2.24,0.13 3.46,0.57 2.28,0.14 1.81,-0.11 4.01,-0.77 4.05,-0.27 1.16,0.2 0.99,0.31 0.84,0.4 1.38,1.09 2.95,3.13 2.07,2.83 0.61,0.63 0.55,0.71 0.6,0.66 0.53,0.71 18.6,15.11 9.98,5.84 3.32,1.16 7.34,1.13 3.23,-0.19 1.91,-0.64 3.8,-3.83 3.58,-7.86 1.19,-1.18 1.06,-0.54 1.99,0.42 1.36,0 1.65,-0.19 6.26,-2.1 1.17,0.03 0.95,0.31 4.29,2 0.93,0.29 1.37,0.2 1.74,-0.04 3.04,-0.61 1.43,-0.94 1.13,-1.18 0.77,-1.32 1.03,-0.57 1.42,-0.45 0.54,-0.79 0.38,-0.98 1.93,-3.2 0.17,-1 -0.01,-1.06 -0.17,-1 0.31,-1.26 0.85,-1.34 2.67,-2.45 1.84,-1.3 1.41,-0.82 7.99,-2.8 3.7,-0.08 4.39,0.8 3.82,1.24 2.87,1.25 6.3,4.06 2.57,2.49 1.64,2.03 3.91,3.82 2.17,1.6 2,0.2 3.15,-0.03 7.22,-0.83 2.92,-0.79 1.68,-1.03 0.25,-1.04 -0.02,-0.97 -0.14,-0.8 -0.42,-0.76 -1.18,-7.39 0.09,-1.09 0.53,-1.18 0.92,-0.57 1.14,-0.21 5.57,-0.24 1.14,-0.5 0.71,-0.72 0.17,-0.99 0.08,-1.09 -0.25,-2.09 -0.37,-0.92 -1.92,-2.97 -0.62,-0.65 -0.78,-0.49 -0.89,-0.38 -0.97,-0.27 -1.14,-0.08 -5.41,0.66 -3.93,1 -4.2,0.6 -0.9,0.03 -2.04,-0.25 -1.95,-0.56 -0.83,-0.36 -0.7,-0.53 -0.42,-0.61 -0.11,-0.91 0.37,-2 0,-1.1 -0.37,-1.99 -0.67,-1.86 -0.11,-1.08 0.39,-1.48 0.73,-0.77 1.11,-0.57 1.28,-0.31 1.84,-0.62 0.86,-0.75 0.48,-0.91 -0.12,-0.96 -0.44,-0.79 -0.67,-0.62 -3.4,-1.63 -0.69,-0.54 -0.5,-0.72 -0.25,-0.94 0,-0.99 0.11,-1.04 0.25,-0.99 1.95,-5.66 1.33,-2.78 1.92,-2.97 1.01,-0.8 1.04,-0.34 0.89,0.25 1.61,0.9 1,0.31 1.17,0 1.56,-0.59 0.64,-0.89 0.23,-1.08 -0.23,-0.97 -0.41,-0.82 -0.62,-0.65 -1.97,-1.77 -1.01,-1.5 -0.39,-0.79 -0.3,-0.96 -0.2,-1.01 0.31,-1.36 0.72,-1.5 3.6,-4.66 1.47,-2.87 1.17,-3.14 0.82,-1.44 0.03,-1.04 -0.31,-0.9 -0.54,-0.77 -0.7,-0.77 0.12,-0.99 0.33,-1.2 0.62,-0.68 0.64,-0.48 4.4,-1.83 1.84,-0.42 0.97,-0.04 1.01,0.18 0.89,0.32 4.18,2.41 0.95,0.33 1.11,0.17 1.12,0 1.08,-0.1 5.72,-1.16 1.11,-0.07 7,0.97 0.07,0 0.06,0 -0.39,-2.32 1.22,-1.72 2.26,-0.43 2.13,0.83 1.92,4.08 1.88,-2.09 1.2,-3.04 -0.96,-0.72 1.89,-0.63 1.66,0.23 1.82,0.56 2.33,0.38 1.98,-0.95 0.63,-2.4 0.26,-2.84 0.91,-2.26 0.02,-0.03 3.95,-5.7 -2.25,-8.89 -8.66,-14.77 0,-0.02 -0.04,0 -2.41,-5.64 1.85,-5.57 3.04,-5.64 0.95,-5.87 -0.02,-2.84 1.13,-1.75 4.07,-3.65 2.17,-3.71 -0.05,-2.9 -2.23,-6.51 0.17,-3.59 1.46,-1.74 2.02,-1.19 1.82,-1.88 0.75,-2.29 0.29,-5.34 1.67,-9.22 -1.11,-4.27 -3.25,-2.86 -5.34,-1.83 -0.13,-0.19 -0.04,-0.18 0.04,-0.17 1.18,-2.04 0.41,-1.87 -0.31,-1.79 -1.15,-1.62 -9.54,-3.49 -3.37,-0.56 -7.22,0.41 -4.04,0.72 -2.73,1.2 -0.89,1.44 -0.55,3.68 -0.7,1.55 -1.37,1.16 -8.21,2.88 -3.34,0.67 -3.33,-0.36 -0.82,-2.44 1.47,-2.08 -1.26,-2.91 0.01,-2.59 7.49,-1.52 2.8,-1.1 2.3,-1.59 0.68,-1.89 -1.58,-1.97 -2.53,-0.13 -4.58,0.86 -1.87,-0.8 -1.78,-1.26 -1.31,-1.15 -0.45,-0.53 -0.06,-1.16 0.84,-5.13 0.44,-1.16 9.04,1.01 4.32,-0.25 3.21,-2.11 2.46,1.63 3.31,0.56 2.91,-0.83 1.25,-2.5 -1.54,-3.78 -3.56,-0.69 -7.28,1.87 -5.6,-0.6 -2.86,-3.82 -0.13,-5.33 2.57,-5.17 4.78,5.05 3.02,1.68 3.22,-0.4 1.87,-2.25 0.5,-3.18 -0.4,-3.32 -0.84,-2.68 -1.2,-1.81 -1.28,-1.42 -0.94,-1.97 -0.26,-3.39 3.85,-14.16 0.05,-2.07 -0.81,-7.31 0.37,-2.54 1.45,-2.77 2.3,-2.5 1.25,-1.12 0.11,-1.5 -1.22,-3.6 -2.15,-4.32 -0.29,-1.22 0.35,-1.69 0.61,-1.13 0.1,-1.16 -1.06,-1.79 3.14,-0.61 2.78,0.47 2,-0.53 0.12,-0.56 0.64,-3.02 -0.53,-3.69 -1.45,-1.21 -1.98,-0.48 -2.28,-1.47 -1.76,-4.72 0.95,-12.92 -0.3,-6.14 1.3,-2.45 0.51,-2.99 0.86,-2.8 4.41,-3.3 -3.67,-3.05 -1.72,-0.83 -7.88,1.32 -2.5,0.03 1.57,-3.7 -1.88,-2.91 -3.06,-2.78 -2.02,-3.31 0.25,-1.56 0.6,-1.93 -0.08,-2.02 -1.77,-1.79 -1.84,-0.42 -1.63,0.52 -1.68,0.83 -2.04,0.53 -1.72,-0.24 -4.77,-1.89 -0.47,0.53 -0.49,1.2 -0.76,1.07 -1.37,0.14 z"
 />
</svg>